<?xml version="1.0" standalone="no"?>
<!DOCTYPE svg PUBLIC "-//W3C//DTD SVG 1.1//EN" "http://www.w3.org/Graphics/SVG/1.1/DTD/svg11.dtd" >
<svg xmlns="http://www.w3.org/2000/svg" xmlns:xlink="http://www.w3.org/1999/xlink" version="1.1">
<metadata></metadata>
<defs>
<font id="kryptonianbold" horiz-adv-x="1228" >
<font-face units-per-em="2048" ascent="1638" descent="-410" />
<missing-glyph horiz-adv-x="819" />
<glyph horiz-adv-x="0" />
<glyph horiz-adv-x="682" />
<glyph unicode=" "  horiz-adv-x="819" />
<glyph unicode="&#x09;" horiz-adv-x="819" />
<glyph unicode="&#xa0;" horiz-adv-x="819" />
<glyph unicode="!" horiz-adv-x="2281" d="M-2 1210l1135 -1241l1124 1237l-418 404h-1407zM23 1208l409 383h1393l405 -383l-1097 -1208zM86 1204l1049 -1153l1046 1153l-366 355h-1362zM301 1202q8 8 37 38t42 44t38.5 40t38.5 38q12 12 33.5 28.5t23.5 16.5h39l-12 -12q-51 -47 -87 -88t-59 -90q-4 -10 -10 -37 q-12 -41 -20 -56q-14 10 -36 32.5t-28 45.5zM635 852q8 -2 26.5 -4t53.5 -6l133 -4q33 0 113 8q86 8 122 8h27q14 -2 20 -2q61 -4 142.5 -17.5t87.5 -15.5q18 -4 47 -13t55.5 -21.5t44 -23.5t17.5 -18q0 -31 -37 -48t-89 -25t-94 -10.5t-79 -2.5q-51 0 -77 9.5t-56 31.5 q-39 27 -72 41q-39 14 -125 15q-92 0 -160 -25q-2 0 -22.5 16.5t-34.5 34.5q-16 18 -37 60zM750 1251q0 51 37.5 84t93 51.5t112 25.5t99.5 7q150 0 244 -57t132 -199h375v150l133 -125l-200 -207q-72 82 -177 119q-98 39 -260 49q-45 2 -135 4q-150 2 -219 10 q-111 12 -173 33t-62 55zM987 461q4 0 23 -2q39 -6 62.5 -9.5t41.5 -3.5q14 0 48 3.5t52 5.5q61 6 74 6q-8 -8 -23.5 -24.5t-34 -37t-32.5 -38t-20 -25.5l-20.5 -20.5t-20.5 -18.5q-10 10 -51.5 53t-59.5 63.5t-22 24.5q-2 2 -9.5 11.5t-7.5 11.5zM1526 1419h37v-43l-21 23z " />
<glyph unicode="&#x22;" />
<glyph unicode="#" horiz-adv-x="3403" />
<glyph unicode="$" horiz-adv-x="1759" d="M-96 -94l674 536l-177 -376l426 249l-286 -282h176l141 141h209l-141 -145h594l100 102h-461l455 453h-184l-275 -273h-186l577 580l-897 -557l166 522z" />
<glyph unicode="%" />
<glyph unicode="&#x26;" />
<glyph unicode="'" />
<glyph unicode="(" />
<glyph unicode=")" />
<glyph unicode="*" />
<glyph unicode="+" />
<glyph unicode="," />
<glyph unicode="-" />
<glyph unicode="." />
<glyph unicode="/" />
<glyph unicode="0" horiz-adv-x="1198" d="M0 915q0 -111 43 -211t119 -176.5t176 -119.5t211 -43t211 43t177 119.5t119 177t42 210.5q0 111 -42 211.5t-119 177t-177 118.5t-211 42t-211 -42t-176 -118.5t-119 -177t-43 -211.5zM51 915q0 94 36 179.5t100.5 150t149.5 100t179 35.5t179 -35.5t149.5 -100 t100.5 -149.5t36 -180q0 -94 -36 -179t-100.5 -149.5t-149.5 -100t-179 -35.5t-179 35.5t-149.5 100t-100.5 149.5t-36 179zM758 915q0 -39 28.5 -67.5t67.5 -28.5t67.5 29t28.5 67q0 39 -28.5 68t-67.5 29t-67.5 -29t-28.5 -68z" />
<glyph unicode="1" horiz-adv-x="342" d="M0 0h233v1630h-233v-1630z" />
<glyph unicode="2" horiz-adv-x="651" d="M0 0h129v1630h-129v-1630zM254 0h233v616h-233v-616z" />
<glyph unicode="3" horiz-adv-x="917" d="M0 0h129v1630h-129v-1630zM254 0h233v635v995h-233v-1630zM616 0h129v1630h-129v-1630z" />
<glyph unicode="4" horiz-adv-x="1316" d="M0 913l578 -913l579 913l-584 1082zM104 965l437 831l454 -831h-891zM109 864h884l-442 -700z" />
<glyph unicode="5" horiz-adv-x="628" d="M0 0h494v1630h-494v-1630zM102 100v764h342v-764h-342zM102 965v561h342v-561h-342z" />
<glyph unicode="6" horiz-adv-x="544" d="M0 0h129v1630h-129v-1630zM211 96q0 -39 28.5 -67.5t67.5 -28.5t67.5 28.5t28.5 67.5t-28.5 68t-67.5 29t-67.5 -29t-28.5 -68z" />
<glyph unicode="7" horiz-adv-x="917" d="M0 0h129v1630h-129v-1630zM254 0h233v631h-233v-631zM274 915q0 -39 29 -67.5t68 -28.5t67.5 29t28.5 67q0 39 -28.5 68t-67.5 29t-68 -29t-29 -68zM616 0h129v1630h-129v-1630z" />
<glyph unicode="8" horiz-adv-x="1198" d="M0 915q0 -111 43 -211t119 -176.5t176 -119.5t211 -43t211 43t177 119.5t119 177t42 210.5q0 111 -42 211.5t-119 177t-177 118.5t-211 42t-211 -42t-176 -118.5t-119 -177t-43 -211.5zM51 915q0 94 36 179.5t100.5 150t149.5 100t179 35.5t179 -35.5t149.5 -100 t100.5 -149.5t36 -180q0 -94 -36 -179t-100.5 -149.5t-149.5 -100t-179 -35.5t-179 35.5t-149.5 100t-100.5 149.5t-36 179z" />
<glyph unicode="9" horiz-adv-x="544" d="M0 1534q0 -39 28.5 -67.5t67.5 -28.5t68 28.5t29 67.5t-29 67.5t-68 28.5t-67.5 -28.5t-28.5 -67.5zM274 0h129v1630h-129v-1630z" />
<glyph unicode=":" />
<glyph unicode=";" />
<glyph unicode="&#x3c;" />
<glyph unicode="=" />
<glyph unicode="&#x3e;" />
<glyph unicode="?" />
<glyph unicode="@" horiz-adv-x="1028" />
<glyph unicode="A" horiz-adv-x="643" d="M0 365h236v1267h-236v-620q45 0 75.5 -32t30.5 -75q0 -45 -30.5 -76.5t-75.5 -31.5v-432zM20 94q0 -39 28 -66.5t67 -27.5t66.5 27.5t27.5 66.5q0 37 -27.5 64.5t-66.5 27.5t-67 -27.5t-28 -64.5zM338 94q0 -39 27.5 -66.5t64.5 -27.5q39 0 67.5 27.5t28.5 66.5 q0 37 -28.5 64.5t-67.5 27.5q-37 0 -64.5 -27.5t-27.5 -64.5zM389 365h84v1267h-84v-1267z" />
<glyph unicode="B" horiz-adv-x="2023" d="M0 0h233v399q-49 0 -83.5 34t-34.5 83q0 47 35.5 83t82.5 36v995h-233v-1630zM596 0h1292v1630h-1292v-1630zM643 100v1426h1145v-1426h-1145z" />
<glyph unicode="C" horiz-adv-x="1789" d="M0 1047q0 -86 33 -164t92 -137.5t137 -92t164 -32.5q147 0 268 91t162 232q35 -139 153.5 -231t268.5 -92q86 0 164 32.5t137 92t92 137.5t33 164t-33 163.5t-92 137t-137 92.5t-164 33q-150 0 -269.5 -92.5t-154.5 -231.5q-39 141 -160 232.5t-268 91.5q-86 0 -164 -33 t-137 -92.5t-92 -137t-33 -163.5zM61 1073q0 74 29 141.5t79 117.5t116.5 78t140.5 28t140.5 -28t117.5 -78t79 -116.5t28 -142.5q0 -72 -28 -138.5t-79 -116.5t-117.5 -78.5t-140.5 -28.5t-140.5 28.5t-116.5 78.5t-79 116.5t-29 138.5zM240 365h1269v102h-1269v-102z M915 1024q0 74 28 140.5t78 116.5t116.5 77.5t140.5 27.5t140.5 -27.5t116.5 -77.5t78.5 -116.5t28.5 -140.5t-28.5 -140.5t-78.5 -116.5t-116.5 -79t-140.5 -29t-140.5 29t-116.5 79t-78 116.5t-28 140.5z" />
<glyph unicode="D" horiz-adv-x="2023" d="M0 0h1296v1630h-1296v-1630zM102 100v1426h1145v-1426h-1145zM1655 0h233v1630h-233v-995q49 0 84 -36t35 -83q0 -49 -35 -83t-84 -34v-399z" />
<glyph unicode="E" horiz-adv-x="1034" d="M0 688h428q-25 -10 -41 -34.5t-16 -53.5q0 -39 28.5 -67.5t67.5 -28.5t67.5 28.5t28.5 67.5q0 29 -15.5 53.5t-41.5 34.5h414v868h-920v-868zM51 811v623h754v-623h-754zM371 96q0 -39 28.5 -67.5t67.5 -28.5t67.5 28.5t28.5 67.5t-28.5 68t-67.5 29t-67.5 -29t-28.5 -68 zM371 1905q0 -39 28.5 -68t67.5 -29t67.5 29t28.5 68t-28.5 67.5t-67.5 28.5t-67.5 -28.5t-28.5 -67.5z" />
<glyph unicode="F" horiz-adv-x="1837" d="M0 860h16q20 -100 100.5 -166.5t184.5 -66.5q94 0 172 59t109 150l532 -836l578 913l-574 1082l-543 -994q-31 90 -107.5 148.5t-166.5 58.5q-104 0 -183 -64.5t-102 -164.5h-16v-119zM53 860h490q-18 -86 -87 -142t-157 -56q-90 0 -158.5 56t-87.5 142zM55 979 q23 82 90.5 133t153.5 51t152.5 -52t89.5 -132h-486zM670 915l481 881l463 -883l-473 -749z" />
<glyph unicode="G" horiz-adv-x="1208" d="M0 498q0 -100 39 -191.5t107.5 -160t159.5 -107.5t192 -39q100 0 191 39t160 107.5t107.5 159.5t38.5 192q0 152 -83 275.5t-216 180.5q133 57 216 181.5t83 275.5q0 100 -38.5 191.5t-107.5 160t-160 107.5t-191 39t-191.5 -38t-160 -107.5t-107.5 -161t-39 -191.5 q0 -152 83 -276t218 -181q-135 -57 -218 -181t-83 -275zM49 498q0 84 32 158.5t89 132t132 89t159 31.5t158.5 -31.5t132 -89t89 -132t31.5 -158.5t-31.5 -159t-89 -132t-132 -89t-158.5 -32t-159 32t-132 89t-89 132t-32 159zM121 1411q0 84 31.5 159t89 132t132 89 t158.5 32t159 -32t132.5 -89t89 -132t31.5 -159t-31.5 -158.5t-89 -132t-132.5 -89.5t-159 -32t-158.5 32t-132 89.5t-89 132t-31.5 158.5z" />
<glyph unicode="H" horiz-adv-x="2156" d="M0 479h920v344l520 -823l579 913l-583 1082l-516 -973v326h-920v-869zM51 602v623h754v-623h-754zM371 1696q0 -39 28.5 -68t67.5 -29t67.5 29t28.5 68t-28.5 67.5t-67.5 28.5t-67.5 -28.5t-28.5 -67.5zM940 913l463 883l481 -881l-471 -751z" />
<glyph unicode="I" horiz-adv-x="1685" d="M0 864h1280v101h-1280v-101zM1378 1180q0 -47 34 -81t81 -34t80 34t33 81t-33 79.5t-80 32.5t-81 -32.5t-34 -79.5z" />
<glyph unicode="J" horiz-adv-x="1210" d="M0 913q0 -47 34 -80.5t81 -33.5t79.5 33.5t32.5 80.5t-32.5 80t-79.5 33t-81 -32.5t-34 -80.5zM401 586q0 -72 28 -135.5t76 -111.5t111.5 -75.5t135.5 -27.5t135 27.5t111.5 75.5t76 111.5t27.5 135.5q0 115 -67.5 206t-174.5 128q106 35 174 126t68 205 q0 72 -27.5 135.5t-76 111.5t-112 76t-134.5 28q-72 0 -135.5 -28t-111.5 -76t-76 -111.5t-28 -135.5q0 -115 68 -205.5t174 -125.5q-106 -37 -174 -128.5t-68 -205.5zM446 586q0 121 84 204.5t205 83.5t205 -83.5t84 -204.5t-84 -205t-205 -84t-205 84t-84 205zM477 1251 q0 121 84 205t205 84t205 -84t84 -205t-84 -204.5t-205 -83.5t-205 83.5t-84 204.5z" />
<glyph unicode="K" horiz-adv-x="1406" d="M0 276h1270v1098h-461q59 49 94 120t35 151q0 72 -27.5 135t-76 111t-112 76t-134.5 28q-72 0 -135.5 -28t-111.5 -76t-75.5 -111.5t-27.5 -134.5q0 -80 34.5 -151t96.5 -120h-369v-1098zM61 391v864h314q-63 -49 -100 -120.5t-37 -155.5q0 -72 27.5 -135.5t75.5 -111.5 t111.5 -75.5t135.5 -27.5t135 27.5t111.5 75.5t76 111.5t27.5 135.5q0 82 -35.5 153.5t-101.5 122.5h356v-864h-1096zM283 979q0 121 84 205t204 84q121 0 205 -84t84 -205t-84 -205t-205 -84t-204.5 84t-83.5 205zM313 1645q0 121 84 204.5t205 83.5t205 -84t84 -204 q0 -121 -84 -205t-205 -84t-205 84t-84 205z" />
<glyph unicode="L" horiz-adv-x="1800" d="M0 920q0 -154 59.5 -293.5t164 -243.5t243.5 -163.5t293 -59.5q133 0 256 45t222 127t168 191.5t95 238.5v-580h113v1481h-113v-586q-27 127 -95.5 237.5t-167.5 191.5t-222 126t-256 45q-154 0 -293 -58t-243.5 -163.5t-164 -244t-59.5 -291.5zM70 920q0 129 49 245.5 t138 204.5t206 137t246 49t245.5 -49t204.5 -137t137.5 -204.5t49.5 -245.5t-49.5 -246t-138.5 -206t-204.5 -138t-244.5 -49t-246 49t-206 138t-138 206t-49 246zM1468 1903q0 -39 28 -67t65 -28q39 0 67.5 28t28.5 67q0 37 -28.5 64.5t-67.5 27.5q-37 0 -65 -28t-28 -64z " />
<glyph unicode="M" horiz-adv-x="2201" d="M0 913l578 -913l552 872v-376h920v868h-920v-401l-557 1032zM78 913l463 883l481 -881l-471 -751zM1182 618v623h753v-623h-753zM1501 338q0 -39 29 -67.5t67 -28.5q39 0 68 28.5t29 67.5t-29 67.5t-68 28.5t-67.5 -28.5t-28.5 -67.5z" />
<glyph unicode="N" horiz-adv-x="1249" d="M0 913l578 -913l579 913l-584 1082zM78 913l463 883l481 -881l-471 -751z" />
<glyph unicode="O" d="M0 0h129v1630h-129v-1630zM254 0h233v399q-49 0 -83.5 34t-34.5 83q0 47 35.5 83t82.5 36v995h-233v-1630zM616 0h129v1630h-129v-1630zM893 516q0 -39 28.5 -67.5t67.5 -28.5t67.5 28.5t28.5 67.5t-28.5 67.5t-67.5 28.5t-67.5 -28.5t-28.5 -67.5z" />
<glyph unicode="P" horiz-adv-x="2334" d="M0 913l578 -913l542 860h217q33 -111 113 -172t178 -61q104 0 184 66.5t101 166.5h280v119h-280q-23 100 -101.5 164.5t-183.5 64.5q-96 0 -177 -60.5t-114 -168.5h-221l-543 1016zM78 913l463 883l481 -881l-471 -751zM1386 860h482q-18 -82 -85 -136t-157 -54 q-88 0 -155 54t-85 136zM1389 979q23 80 89 132t152 52t150.5 -51t87.5 -133h-479z" />
<glyph unicode="Q" horiz-adv-x="1652" d="M0 920q0 -143 51 -272.5t142.5 -232t213 -168t261.5 -81.5q-72 -25 -123 -81t-68 -130h-321v-119h319q23 -102 101.5 -167.5t183.5 -65.5q104 0 184 66.5t98 166.5h314v119h-314q-16 76 -67 131t-125 80q139 16 262 80.5t214 168t142.5 232.5t51.5 273q0 154 -59.5 292 t-165 243.5t-244 163.5t-291.5 58q-154 0 -293 -58t-243.5 -163.5t-164 -244t-59.5 -291.5zM70 920q0 129 49 245.5t138 204.5t206 137t246 49t245.5 -49t204.5 -137t137.5 -204.5t49.5 -245.5t-49.5 -246t-138.5 -206t-204.5 -138t-244.5 -49t-246 49t-206 138t-138 206 t-49 246zM516 -164h277h208q-18 -84 -85.5 -139t-155.5 -55t-156.5 55t-87.5 139zM518 -45q23 80 90.5 132t151.5 52t150 -52t89 -132h-247h-234z" />
<glyph unicode="R" horiz-adv-x="1554" d="M0 920l506 -801h-324v-119h1245v119h-778l508 801l-584 1081zM78 920l463 882l481 -880l-471 -752zM207 1688q0 -37 27.5 -65t66.5 -28t66.5 28t27.5 65q0 39 -27.5 66.5t-66.5 27.5t-66.5 -28t-27.5 -66z" />
<glyph unicode="S" horiz-adv-x="2476" d="M0 1190l1133 -1190l1165 1231l-576 715h-1046zM76 1190l432 481q-25 -45 -25 -96q0 -127 138.5 -223.5t363.5 -126.5q-246 -25 -387 -122t-141 -231q0 -31 6 -60t18 -52zM508 874q0 63 52 121t140 102t194.5 68.5t211.5 24.5q121 0 229.5 -24.5t191.5 -67.5t129 -101.5 t46 -122.5q0 -63 -46 -120.5t-129 -99.5t-191.5 -65.5t-229.5 -23.5q-117 0 -225.5 23.5t-192.5 65.5t-132 99.5t-48 120.5zM598 651q98 -66 243.5 -104.5t305.5 -38.5q104 0 204.5 19.5t192.5 52.5l-438 -461zM606 1567q0 63 46 120.5t129 100.5t192.5 66.5t230.5 23.5 t229.5 -23.5t191.5 -66.5t129 -100.5t46 -120.5t-46 -120.5t-129 -99.5t-191.5 -66t-229.5 -24q-123 0 -231.5 24t-191.5 66t-129 99t-46 121zM1333 1223q217 4 360.5 96t168.5 256l276 -352l-305 -328q-12 119 -149.5 209t-350.5 119z" />
<glyph unicode="T" horiz-adv-x="1198" d="M0 1483q0 -39 28.5 -68t67.5 -29t68 29t29 68t-29 67.5t-68 28.5t-67.5 -28.5t-28.5 -67.5zM365 1391h124v-1231h154v1231h436v165h-714v-165z" />
<glyph unicode="U" horiz-adv-x="790" d="M0 0h236v440q-45 0 -76 32t-31 75q0 45 31 76.5t76 31.5v432h-236v-1087zM27 1403q0 -37 27.5 -64.5t66.5 -27.5t66.5 27.5t27.5 64.5q0 39 -27.5 66.5t-66.5 27.5t-66.5 -27.5t-27.5 -66.5zM459 1403q0 -37 27.5 -64.5t64.5 -27.5q39 0 67.5 27.5t28.5 64.5 q0 39 -28.5 66.5t-67.5 27.5q-37 0 -64.5 -27.5t-27.5 -66.5zM510 0h84v1087h-84v-1087z" />
<glyph unicode="V" horiz-adv-x="1699" d="M0 864h469q8 -102 54 -194t121 -161t171 -106.5t201 -37.5q111 0 211 43t177 119.5t119 177t42 210.5q0 111 -42 211.5t-119 177t-177.5 118.5t-210.5 42q-104 0 -200.5 -39t-171.5 -107.5t-122 -159.5t-57 -193h-465v-101zM520 965q8 86 48 161.5t103.5 133t143.5 89 t168 31.5q94 0 179 -35.5t149.5 -100t100.5 -149.5t36 -180q0 -94 -36 -179t-100.5 -149.5t-149.5 -100t-179 -35.5q-88 0 -167 31.5t-142.5 88t-103.5 132t-48 161.5h637v101h-639z" />
<glyph unicode="W" horiz-adv-x="2791" d="M0 868h389q8 -94 49 -176t108.5 -144.5t153.5 -96t181 -33.5q141 0 262 75.5t182 198.5q63 -123 183 -198.5t261 -75.5q94 0 180.5 33.5t154 96t108.5 144.5t49 176h389v90h-385q-10 92 -52 175.5t-108.5 144.5t-153.5 96t-182 35q-141 0 -262 -76t-182 -198 q-61 123 -182 198.5t-262 75.5q-94 0 -180.5 -35t-154 -97.5t-109.5 -144t-52 -174.5h-385v-90zM434 958q8 78 44 147t93.5 120t129 79.5t151.5 28.5q86 0 162 -32.5t134 -90t91 -134.5t33 -161q0 -86 -33 -161.5t-90 -134t-134 -91t-163 -32.5q-78 0 -150.5 28.5t-129 79.5 t-92.5 118.5t-44 145.5h576v90h-578zM1378 915q0 84 33 161t90.5 134.5t134 90t162.5 32.5q80 0 151.5 -28.5t129 -79.5t93.5 -120t44 -147h-578v-90h576q-8 -76 -44 -144.5t-92.5 -119.5t-129 -79.5t-150.5 -28.5q-86 0 -161.5 32.5t-134 91t-91.5 134t-33 161.5z" />
<glyph unicode="X" horiz-adv-x="1503" d="M0 563h1374v1295h-1374v-1295zM51 684v1045h1192v-1045h-1192zM233 270q0 -39 28 -66.5t65 -27.5q39 0 67.5 27.5t28.5 66.5q0 37 -28.5 64.5t-67.5 27.5q-37 0 -65 -27.5t-28 -64.5zM594 160h620v235h-620v-235z" />
<glyph unicode="Y" horiz-adv-x="1220" d="M0 1898q0 -39 28.5 -67.5t67.5 -28.5t68 29t29 67q0 39 -29 68t-68 29t-67.5 -29t-28.5 -68zM430 1898q0 -39 28.5 -67.5t67.5 -28.5t68 29t29 67q0 39 -29 68t-68 29t-67.5 -29t-28.5 -68zM461 0h129v1630h-129v-1630zM852 0h233v399q-49 0 -83.5 34t-34.5 83 q0 47 35.5 83t82.5 36v995h-233v-1630z" />
<glyph unicode="Z" horiz-adv-x="1804" d="M0 864h1278v-481h377v582h-1655v-101zM1370 1403q0 -39 28.5 -67.5t67.5 -28.5t68 28.5t29 67.5t-29 67.5t-68 28.5t-67.5 -28.5t-28.5 -67.5z" />
<glyph unicode="[" />
<glyph unicode="\" />
<glyph unicode="]" />
<glyph unicode="^" />
<glyph unicode="_" horiz-adv-x="2258" />
<glyph unicode="`" />
<glyph unicode="a" horiz-adv-x="643" d="M0 365h236v1267h-236v-620q45 0 75.5 -32t30.5 -75q0 -45 -30.5 -76.5t-75.5 -31.5v-432zM20 94q0 -39 28 -66.5t67 -27.5t66.5 27.5t27.5 66.5q0 37 -27.5 64.5t-66.5 27.5t-67 -27.5t-28 -64.5zM338 94q0 -39 27.5 -66.5t64.5 -27.5q39 0 67.5 27.5t28.5 66.5 q0 37 -28.5 64.5t-67.5 27.5q-37 0 -64.5 -27.5t-27.5 -64.5zM389 365h84v1267h-84v-1267z" />
<glyph unicode="b" horiz-adv-x="2023" d="M0 0h233v399q-49 0 -83.5 34t-34.5 83q0 47 35.5 83t82.5 36v995h-233v-1630zM596 0h1292v1630h-1292v-1630zM643 100v1426h1145v-1426h-1145z" />
<glyph unicode="c" horiz-adv-x="1789" d="M0 1047q0 -86 33 -164t92 -137.5t137 -92t164 -32.5q147 0 268 91t162 232q35 -139 153.5 -231t268.5 -92q86 0 164 32.5t137 92t92 137.5t33 164t-33 163.5t-92 137t-137 92.5t-164 33q-150 0 -269.5 -92.5t-154.5 -231.5q-39 141 -160 232.5t-268 91.5q-86 0 -164 -33 t-137 -92.5t-92 -137t-33 -163.5zM61 1073q0 74 29 141.5t79 117.5t116.5 78t140.5 28t140.5 -28t117.5 -78t79 -116.5t28 -142.5q0 -72 -28 -138.5t-79 -116.5t-117.5 -78.5t-140.5 -28.5t-140.5 28.5t-116.5 78.5t-79 116.5t-29 138.5zM240 365h1269v102h-1269v-102z M915 1024q0 74 28 140.5t78 116.5t116.5 77.5t140.5 27.5t140.5 -27.5t116.5 -77.5t78.5 -116.5t28.5 -140.5t-28.5 -140.5t-78.5 -116.5t-116.5 -79t-140.5 -29t-140.5 29t-116.5 79t-78 116.5t-28 140.5z" />
<glyph unicode="d" horiz-adv-x="2023" d="M0 0h1296v1630h-1296v-1630zM102 100v1426h1145v-1426h-1145zM1655 0h233v1630h-233v-995q49 0 84 -36t35 -83q0 -49 -35 -83t-84 -34v-399z" />
<glyph unicode="e" horiz-adv-x="1034" d="M0 688h428q-25 -10 -41 -34.5t-16 -53.5q0 -39 28.5 -67.5t67.5 -28.5t67.5 28.5t28.5 67.5q0 29 -15.5 53.5t-41.5 34.5h414v868h-920v-868zM51 811v623h754v-623h-754zM371 96q0 -39 28.5 -67.5t67.5 -28.5t67.5 28.5t28.5 67.5t-28.5 68t-67.5 29t-67.5 -29t-28.5 -68 zM371 1905q0 -39 28.5 -68t67.5 -29t67.5 29t28.5 68t-28.5 67.5t-67.5 28.5t-67.5 -28.5t-28.5 -67.5z" />
<glyph unicode="f" horiz-adv-x="1837" d="M0 860h16q20 -100 100.5 -166.5t184.5 -66.5q94 0 172 59t109 150l532 -836l578 913l-574 1082l-543 -994q-31 90 -107.5 148.5t-166.5 58.5q-104 0 -183 -64.5t-102 -164.5h-16v-119zM53 860h490q-18 -86 -87 -142t-157 -56q-90 0 -158.5 56t-87.5 142zM55 979 q23 82 90.5 133t153.5 51t152.5 -52t89.5 -132h-486zM670 915l481 881l463 -883l-473 -749z" />
<glyph unicode="g" horiz-adv-x="1208" d="M0 498q0 -100 39 -191.5t107.5 -160t159.5 -107.5t192 -39q100 0 191 39t160 107.5t107.5 159.5t38.5 192q0 152 -83 275.5t-216 180.5q133 57 216 181.5t83 275.5q0 100 -38.5 191.5t-107.5 160t-160 107.5t-191 39t-191.5 -38t-160 -107.5t-107.5 -161t-39 -191.5 q0 -152 83 -276t218 -181q-135 -57 -218 -181t-83 -275zM49 498q0 84 32 158.5t89 132t132 89t159 31.5t158.5 -31.5t132 -89t89 -132t31.5 -158.5t-31.5 -159t-89 -132t-132 -89t-158.5 -32t-159 32t-132 89t-89 132t-32 159zM121 1411q0 84 31.5 159t89 132t132 89 t158.5 32t159 -32t132.5 -89t89 -132t31.5 -159t-31.5 -158.5t-89 -132t-132.5 -89.5t-159 -32t-158.5 32t-132 89.5t-89 132t-31.5 158.5z" />
<glyph unicode="h" horiz-adv-x="2156" d="M0 479h920v344l520 -823l579 913l-583 1082l-516 -973v326h-920v-869zM51 602v623h754v-623h-754zM371 1696q0 -39 28.5 -68t67.5 -29t67.5 29t28.5 68t-28.5 67.5t-67.5 28.5t-67.5 -28.5t-28.5 -67.5zM940 913l463 883l481 -881l-471 -751z" />
<glyph unicode="i" horiz-adv-x="1685" d="M0 864h1280v101h-1280v-101zM1378 1180q0 -47 34 -81t81 -34t80 34t33 81t-33 79.5t-80 32.5t-81 -32.5t-34 -79.5z" />
<glyph unicode="j" horiz-adv-x="1210" d="M0 913q0 -47 34 -80.5t81 -33.5t79.5 33.5t32.5 80.5t-32.5 80t-79.5 33t-81 -32.5t-34 -80.5zM401 586q0 -72 28 -135.5t76 -111.5t111.5 -75.5t135.5 -27.5t135 27.5t111.5 75.5t76 111.5t27.5 135.5q0 115 -67.5 206t-174.5 128q106 35 174 126t68 205 q0 72 -27.5 135.5t-76 111.5t-112 76t-134.5 28q-72 0 -135.5 -28t-111.5 -76t-76 -111.5t-28 -135.5q0 -115 68 -205.5t174 -125.5q-106 -37 -174 -128.5t-68 -205.5zM446 586q0 121 84 204.5t205 83.5t205 -83.5t84 -204.5t-84 -205t-205 -84t-205 84t-84 205zM477 1251 q0 121 84 205t205 84t205 -84t84 -205t-84 -204.5t-205 -83.5t-205 83.5t-84 204.5z" />
<glyph unicode="k" horiz-adv-x="1406" d="M0 276h1270v1098h-461q59 49 94 120t35 151q0 72 -27.5 135t-76 111t-112 76t-134.5 28q-72 0 -135.5 -28t-111.5 -76t-75.5 -111.5t-27.5 -134.5q0 -80 34.5 -151t96.5 -120h-369v-1098zM61 391v864h314q-63 -49 -100 -120.5t-37 -155.5q0 -72 27.5 -135.5t75.5 -111.5 t111.5 -75.5t135.5 -27.5t135 27.5t111.5 75.5t76 111.5t27.5 135.5q0 82 -35.5 153.5t-101.5 122.5h356v-864h-1096zM283 979q0 121 84 205t204 84q121 0 205 -84t84 -205t-84 -205t-205 -84t-204.5 84t-83.5 205zM313 1645q0 121 84 204.5t205 83.5t205 -84t84 -204 q0 -121 -84 -205t-205 -84t-205 84t-84 205z" />
<glyph unicode="l" horiz-adv-x="1800" d="M0 920q0 -154 59.5 -293.5t164 -243.5t243.5 -163.5t293 -59.5q133 0 256 45t222 127t168 191.5t95 238.5v-580h113v1481h-113v-586q-27 127 -95.5 237.5t-167.5 191.5t-222 126t-256 45q-154 0 -293 -58t-243.5 -163.5t-164 -244t-59.5 -291.5zM70 920q0 129 49 245.5 t138 204.5t206 137t246 49t245.5 -49t204.5 -137t137.5 -204.5t49.5 -245.5t-49.5 -246t-138.5 -206t-204.5 -138t-244.5 -49t-246 49t-206 138t-138 206t-49 246zM1468 1903q0 -39 28 -67t65 -28q39 0 67.5 28t28.5 67q0 37 -28.5 64.5t-67.5 27.5q-37 0 -65 -28t-28 -64z " />
<glyph unicode="m" horiz-adv-x="2201" d="M0 913l578 -913l552 872v-376h920v868h-920v-401l-557 1032zM78 913l463 883l481 -881l-471 -751zM1182 618v623h753v-623h-753zM1501 338q0 -39 29 -67.5t67 -28.5q39 0 68 28.5t29 67.5t-29 67.5t-68 28.5t-67.5 -28.5t-28.5 -67.5z" />
<glyph unicode="n" horiz-adv-x="1249" d="M0 913l578 -913l579 913l-584 1082zM78 913l463 883l481 -881l-471 -751z" />
<glyph unicode="o" d="M0 0h129v1630h-129v-1630zM254 0h233v399q-49 0 -83.5 34t-34.5 83q0 47 35.5 83t82.5 36v995h-233v-1630zM616 0h129v1630h-129v-1630zM893 516q0 -39 28.5 -67.5t67.5 -28.5t67.5 28.5t28.5 67.5t-28.5 67.5t-67.5 28.5t-67.5 -28.5t-28.5 -67.5z" />
<glyph unicode="p" horiz-adv-x="2334" d="M0 913l578 -913l542 860h217q33 -111 113 -172t178 -61q104 0 184 66.5t101 166.5h280v119h-280q-23 100 -101.5 164.5t-183.5 64.5q-96 0 -177 -60.5t-114 -168.5h-221l-543 1016zM78 913l463 883l481 -881l-471 -751zM1386 860h482q-18 -82 -85 -136t-157 -54 q-88 0 -155 54t-85 136zM1389 979q23 80 89 132t152 52t150.5 -51t87.5 -133h-479z" />
<glyph unicode="q" horiz-adv-x="1652" d="M0 920q0 -143 51 -272.5t142.5 -232t213 -168t261.5 -81.5q-72 -25 -123 -81t-68 -130h-321v-119h319q23 -102 101.5 -167.5t183.5 -65.5q104 0 184 66.5t98 166.5h314v119h-314q-16 76 -67 131t-125 80q139 16 262 80.5t214 168t142.5 232.5t51.5 273q0 154 -59.5 292 t-165 243.5t-244 163.5t-291.5 58q-154 0 -293 -58t-243.5 -163.5t-164 -244t-59.5 -291.5zM70 920q0 129 49 245.5t138 204.5t206 137t246 49t245.5 -49t204.5 -137t137.5 -204.5t49.5 -245.5t-49.5 -246t-138.5 -206t-204.5 -138t-244.5 -49t-246 49t-206 138t-138 206 t-49 246zM516 -164h277h208q-18 -84 -85.5 -139t-155.5 -55t-156.5 55t-87.5 139zM518 -45q23 80 90.5 132t151.5 52t150 -52t89 -132h-247h-234z" />
<glyph unicode="r" horiz-adv-x="1593" d="M0 913l502 -794h-320v-119h1245v119h-774l504 794l-584 1082zM78 920l463 882l481 -880l-471 -752zM209 1683q0 -37 27.5 -64.5t66.5 -27.5t66.5 28t27.5 64q0 39 -27.5 67t-66.5 28t-66.5 -28t-27.5 -67z" />
<glyph unicode="s" horiz-adv-x="2476" d="M0 1190l1133 -1190l1165 1231l-576 715h-1046zM76 1190l432 481q-25 -45 -25 -96q0 -127 138.5 -223.5t363.5 -126.5q-246 -25 -387 -122t-141 -231q0 -31 6 -60t18 -52zM508 874q0 63 52 121t140 102t194.5 68.5t211.5 24.5q121 0 229.5 -24.5t191.5 -67.5t129 -101.5 t46 -122.5q0 -63 -46 -120.5t-129 -99.5t-191.5 -65.5t-229.5 -23.5q-117 0 -225.5 23.5t-192.5 65.5t-132 99.5t-48 120.5zM598 651q98 -66 243.5 -104.5t305.5 -38.5q104 0 204.5 19.5t192.5 52.5l-438 -461zM606 1567q0 63 46 120.5t129 100.5t192.5 66.5t230.5 23.5 t229.5 -23.5t191.5 -66.5t129 -100.5t46 -120.5t-46 -120.5t-129 -99.5t-191.5 -66t-229.5 -24q-123 0 -231.5 24t-191.5 66t-129 99t-46 121zM1333 1223q217 4 360.5 96t168.5 256l276 -352l-305 -328q-12 119 -149.5 209t-350.5 119z" />
<glyph unicode="t" horiz-adv-x="1198" d="M0 1483q0 -39 28.5 -68t67.5 -29t68 29t29 68t-29 67.5t-68 28.5t-67.5 -28.5t-28.5 -67.5zM365 1391h124v-1231h154v1231h436v165h-714v-165z" />
<glyph unicode="u" horiz-adv-x="790" d="M0 0h236v440q-45 0 -76 32t-31 75q0 45 31 76.5t76 31.5v432h-236v-1087zM27 1403q0 -37 27.5 -64.5t66.5 -27.5t66.5 27.5t27.5 64.5q0 39 -27.5 66.5t-66.5 27.5t-66.5 -27.5t-27.5 -66.5zM459 1403q0 -37 27.5 -64.5t64.5 -27.5q39 0 67.5 27.5t28.5 64.5 q0 39 -28.5 66.5t-67.5 27.5q-37 0 -64.5 -27.5t-27.5 -66.5zM510 0h84v1087h-84v-1087z" />
<glyph unicode="v" horiz-adv-x="1699" d="M0 864h469q8 -102 54 -194t121 -161t171 -106.5t201 -37.5q111 0 211 43t177 119.5t119 177t42 210.5q0 111 -42 211.5t-119 177t-177.5 118.5t-210.5 42q-104 0 -200.5 -39t-171.5 -107.5t-122 -159.5t-57 -193h-465v-101zM520 965q8 86 48 161.5t103.5 133t143.5 89 t168 31.5q94 0 179 -35.5t149.5 -100t100.5 -149.5t36 -180q0 -94 -36 -179t-100.5 -149.5t-149.5 -100t-179 -35.5q-88 0 -167 31.5t-142.5 88t-103.5 132t-48 161.5h637v101h-639z" />
<glyph unicode="w" horiz-adv-x="2791" d="M0 868h389q8 -94 49 -176t108.5 -144.5t153.5 -96t181 -33.5q141 0 262 75.5t182 198.5q63 -123 183 -198.5t261 -75.5q94 0 180.5 33.5t154 96t108.5 144.5t49 176h389v90h-385q-10 92 -52 175.5t-108.5 144.5t-153.5 96t-182 35q-141 0 -262 -76t-182 -198 q-61 123 -182 198.5t-262 75.5q-94 0 -180.5 -35t-154 -97.5t-109.5 -144t-52 -174.5h-385v-90zM434 958q8 78 44 147t93.5 120t129 79.5t151.5 28.5q86 0 162 -32.5t134 -90t91 -134.5t33 -161q0 -86 -33 -161.5t-90 -134t-134 -91t-163 -32.5q-78 0 -150.5 28.5t-129 79.5 t-92.5 118.5t-44 145.5h576v90h-578zM1378 915q0 84 33 161t90.5 134.5t134 90t162.5 32.5q80 0 151.5 -28.5t129 -79.5t93.5 -120t44 -147h-578v-90h576q-8 -76 -44 -144.5t-92.5 -119.5t-129 -79.5t-150.5 -28.5q-86 0 -161.5 32.5t-134 91t-91.5 134t-33 161.5z" />
<glyph unicode="x" horiz-adv-x="1503" d="M0 563h1374v1295h-1374v-1295zM51 684v1045h1192v-1045h-1192zM233 270q0 -39 28 -66.5t65 -27.5q39 0 67.5 27.5t28.5 66.5q0 37 -28.5 64.5t-67.5 27.5q-37 0 -65 -27.5t-28 -64.5zM594 160h620v235h-620v-235z" />
<glyph unicode="y" horiz-adv-x="1220" d="M0 1898q0 -39 28.5 -67.5t67.5 -28.5t68 29t29 67q0 39 -29 68t-68 29t-67.5 -29t-28.5 -68zM430 1898q0 -39 28.5 -67.5t67.5 -28.5t68 29t29 67q0 39 -29 68t-68 29t-67.5 -29t-28.5 -68zM461 0h129v1630h-129v-1630zM852 0h233v399q-49 0 -83.5 34t-34.5 83 q0 47 35.5 83t82.5 36v995h-233v-1630z" />
<glyph unicode="z" horiz-adv-x="1804" d="M0 864h1278v-481h377v582h-1655v-101zM1370 1403q0 -39 28.5 -67.5t67.5 -28.5t68 28.5t29 67.5t-29 67.5t-68 28.5t-67.5 -28.5t-28.5 -67.5z" />
<glyph unicode="{" />
<glyph unicode="|" />
<glyph unicode="}" />
<glyph unicode="~" />
<glyph unicode="&#xa1;" />
<glyph unicode="&#xa2;" />
<glyph unicode="&#xa3;" />
<glyph unicode="&#xa4;" />
<glyph unicode="&#xa5;" />
<glyph unicode="&#xa6;" />
<glyph unicode="&#xa7;" />
<glyph unicode="&#xa8;" />
<glyph unicode="&#xa9;" />
<glyph unicode="&#xaa;" />
<glyph unicode="&#xab;" />
<glyph unicode="&#xac;" />
<glyph unicode="&#xad;" />
<glyph unicode="&#xae;" />
<glyph unicode="&#xaf;" />
<glyph unicode="&#xb0;" />
<glyph unicode="&#xb1;" />
<glyph unicode="&#xb2;" />
<glyph unicode="&#xb3;" />
<glyph unicode="&#xb4;" />
<glyph unicode="&#xb5;" />
<glyph unicode="&#xb6;" />
<glyph unicode="&#xb7;" />
<glyph unicode="&#xb8;" />
<glyph unicode="&#xb9;" />
<glyph unicode="&#xba;" />
<glyph unicode="&#xbb;" />
<glyph unicode="&#xbc;" />
<glyph unicode="&#xbd;" />
<glyph unicode="&#xbe;" />
<glyph unicode="&#xbf;" />
<glyph unicode="&#xc0;" />
<glyph unicode="&#xc1;" />
<glyph unicode="&#xc2;" />
<glyph unicode="&#xc3;" />
<glyph unicode="&#xc4;" />
<glyph unicode="&#xc5;" />
<glyph unicode="&#xc6;" />
<glyph unicode="&#xc7;" />
<glyph unicode="&#xc8;" />
<glyph unicode="&#xc9;" />
<glyph unicode="&#xca;" />
<glyph unicode="&#xcb;" />
<glyph unicode="&#xcc;" />
<glyph unicode="&#xcd;" />
<glyph unicode="&#xce;" />
<glyph unicode="&#xcf;" />
<glyph unicode="&#xd0;" />
<glyph unicode="&#xd1;" />
<glyph unicode="&#xd2;" />
<glyph unicode="&#xd3;" />
<glyph unicode="&#xd4;" />
<glyph unicode="&#xd5;" />
<glyph unicode="&#xd6;" />
<glyph unicode="&#xd7;" />
<glyph unicode="&#xd8;" />
<glyph unicode="&#xd9;" />
<glyph unicode="&#xda;" />
<glyph unicode="&#xdb;" />
<glyph unicode="&#xdc;" />
<glyph unicode="&#xdd;" />
<glyph unicode="&#xde;" />
<glyph unicode="&#xdf;" />
<glyph unicode="&#xe0;" />
<glyph unicode="&#xe1;" />
<glyph unicode="&#xe2;" />
<glyph unicode="&#xe3;" />
<glyph unicode="&#xe4;" />
<glyph unicode="&#xe5;" />
<glyph unicode="&#xe6;" />
<glyph unicode="&#xe7;" />
<glyph unicode="&#xe8;" />
<glyph unicode="&#xe9;" />
<glyph unicode="&#xea;" />
<glyph unicode="&#xeb;" />
<glyph unicode="&#xec;" />
<glyph unicode="&#xed;" />
<glyph unicode="&#xee;" />
<glyph unicode="&#xef;" />
<glyph unicode="&#xf0;" />
<glyph unicode="&#xf1;" />
<glyph unicode="&#xf2;" />
<glyph unicode="&#xf3;" />
<glyph unicode="&#xf4;" />
<glyph unicode="&#xf5;" />
<glyph unicode="&#xf6;" />
<glyph unicode="&#xf7;" />
<glyph unicode="&#xf8;" />
<glyph unicode="&#xf9;" />
<glyph unicode="&#xfa;" />
<glyph unicode="&#xfb;" />
<glyph unicode="&#xfc;" />
<glyph unicode="&#xfd;" />
<glyph unicode="&#xfe;" />
<glyph unicode="&#xff;" />
<glyph unicode="&#x152;" />
<glyph unicode="&#x153;" />
<glyph unicode="&#x178;" />
<glyph unicode="&#x2c6;" />
<glyph unicode="&#x2dc;" />
<glyph unicode="&#x2000;" horiz-adv-x="1000" />
<glyph unicode="&#x2001;" horiz-adv-x="2001" />
<glyph unicode="&#x2002;" horiz-adv-x="1000" />
<glyph unicode="&#x2003;" horiz-adv-x="2001" />
<glyph unicode="&#x2004;" horiz-adv-x="667" />
<glyph unicode="&#x2005;" horiz-adv-x="500" />
<glyph unicode="&#x2006;" horiz-adv-x="333" />
<glyph unicode="&#x2007;" horiz-adv-x="333" />
<glyph unicode="&#x2008;" horiz-adv-x="250" />
<glyph unicode="&#x2009;" horiz-adv-x="400" />
<glyph unicode="&#x200a;" horiz-adv-x="111" />
<glyph unicode="&#x2010;" />
<glyph unicode="&#x2011;" />
<glyph unicode="&#x2012;" />
<glyph unicode="&#x2013;" />
<glyph unicode="&#x2014;" />
<glyph unicode="&#x2018;" />
<glyph unicode="&#x2019;" />
<glyph unicode="&#x201a;" />
<glyph unicode="&#x201c;" />
<glyph unicode="&#x201d;" />
<glyph unicode="&#x201e;" />
<glyph unicode="&#x2022;" />
<glyph unicode="&#x2026;" />
<glyph unicode="&#x202f;" horiz-adv-x="400" />
<glyph unicode="&#x2039;" />
<glyph unicode="&#x203a;" />
<glyph unicode="&#x205f;" horiz-adv-x="500" />
<glyph unicode="&#x2122;" />
<glyph unicode="&#x25fc;" horiz-adv-x="1853" d="M0 0v1853h1853v-1853h-1853z" />
</font>
</defs>
</svg>
