<?xml version="1.0" standalone="no"?>
<!DOCTYPE svg PUBLIC "-//W3C//DTD SVG 1.1//EN" "http://www.w3.org/Graphics/SVG/1.1/DTD/svg11.dtd" >
<svg xmlns="http://www.w3.org/2000/svg" xmlns:xlink="http://www.w3.org/1999/xlink" version="1.1">
<metadata></metadata>
<defs>
<font id="stargate_sg1_go_aldnormal" horiz-adv-x="1703" >
<font-face units-per-em="2048" ascent="1638" descent="-410" />
<missing-glyph horiz-adv-x="1024" />
<glyph horiz-adv-x="0" />
<glyph unicode="&#xd;" horiz-adv-x="1024" />
<glyph unicode=" "  horiz-adv-x="1024" />
<glyph unicode="&#x09;" horiz-adv-x="1024" />
<glyph unicode="&#xa0;" horiz-adv-x="1024" />
<glyph unicode="!" d="M68 20l704 971q-92 39 -162.5 128t-70.5 173q0 133 94 227.5t231 94.5q131 0 224.5 -95.5t93.5 -230.5q0 -88 -71 -173t-173 -128l731 -967h-631l138 222l-318 528l-317 -516l143 -234h-616zM694 1288q0 72 45 125t111 53q74 0 125 -41.5t51 -111.5q6 -70 -40 -124 t-114 -54q-70 -6 -124 40t-54 113z" />
<glyph unicode="$" horiz-adv-x="1699" d="M106 315l625 734l285 -994zM125 317l876 -249l-274 958zM281 459l4 8l635 -176l-5 -8zM432 610l4 8l410 -110l-4 -8zM455 1288q68 55 135 80t155 25q86 0 149.5 -25t135.5 -84q-78 -51 -144.5 -69.5t-156.5 -18.5q-84 0 -144.5 21.5t-129.5 70.5zM471 1286 q59 -39 120.5 -60.5t137.5 -21.5q86 0 148.5 16.5t134.5 61.5q-117 102 -267 102q-84 0 -148.5 -22.5t-125.5 -75.5zM547 766l4 8l242 -57l-5 -8zM655 897v8l103 -20v-8zM659 1298q2 33 29 55.5t57 18.5q33 -2 55.5 -28.5t18.5 -57.5q-2 -33 -28.5 -55.5t-57.5 -18.5 q-33 2 -55.5 29t-18.5 57zM668 1298q0 -70 65 -77q70 -1 78 65q0 70 -66 78q-70 0 -77 -66zM709 1294q4 37 34 31q37 -4 31 -35q-4 -37 -35 -30q-37 4 -30 34zM717 1294q0 -23 22 -26q23 -1 27 22q0 23 -23 27q-23 0 -26 -23zM764 1057l786 -553l-501 -418zM778 1034 l273 -932l481 402zM846 885l69 37l5 -9l-70 -36zM895 713l168 98l4 -8l-168 -98zM948 504l271 196l4 -8l-271 -196zM1008 299l372 295l9 -8l-373 -295z" />
<glyph unicode="," d="M68 20l776 1090l825 -1090h-631l138 222l-318 528l-317 -516l143 -234h-616zM162 72h428l-113 186l383 598l381 -610l-108 -174h440l-725 940z" />
<glyph unicode="." d="M68 20l704 971q-92 39 -162.5 128t-70.5 173q0 133 94 227.5t231 94.5q131 0 224.5 -95.5t93.5 -230.5q0 -88 -71 -173t-173 -128l731 -967h-631l138 222l-318 528l-317 -516l143 -234h-616zM162 72h428l-113 186l383 598l381 -610l-108 -174h440l-709 936 q119 49 194 123.5t75 156.5q0 113 -78 195t-191 82t-194.5 -80t-81.5 -193q0 -80 75.5 -157.5t184.5 -122.5zM694 1288q0 72 45 125t111 53q74 0 125 -41.5t51 -111.5q6 -70 -40 -124t-114 -54q-70 -6 -124 40t-54 113zM743 1292q0 -45 38 -76.5t87 -31.5q47 4 78 40t31 85 q-4 47 -39 77.5t-84 30.5q-47 0 -79 -38t-32 -87z" />
<glyph unicode="0" horiz-adv-x="1118" d="M92 834l352 161l78 -354l2 -299l318 176l-158 252l-49 285l196 131l66 -180l-119 -76l21 -121l215 -330l-594 -317v442zM174 825l289 -198v-391l489 260l-194 297l-27 161l111 70l-35 96l-127 -86l43 -246l182 -284l-424 -236v365l-67 303z" />
<glyph unicode="1" horiz-adv-x="2201" d="M115 915l121 285l71 -110l471 -33l-416 211l-139 -37l152 287l67 -123l1059 -502l629 -176l-150 -254l-215 184l-716 217l-791 74zM195 977l59 10l805 -74l729 -219l178 -155l86 147l-567 160l-1077 514l-33 49l-51 -98l47 12l540 -276l-14 -48l-616 43l-37 52z" />
<glyph unicode="2" horiz-adv-x="940" d="M160 39l174 145l4 860l108 125l185 19l-62 176l-186 82l330 158l-6 -187l84 -266l-328 -367v-602l158 -143h-461zM293 88h199l-80 74v641l319 360l-74 244l2 117l-159 -78l114 -49l86 -248l-225 -25l-88 -100l-2 -858z" />
<glyph unicode="3" horiz-adv-x="2162" d="M92 690l193 322l75 -117h406l711 223l628 506l-518 -1436l99 -182h-345v144l-591 38l-459 502h-199zM178 739h131l461 -506l621 -40v-140h215l-72 133l463 1289l-496 -400l-723 -227l-444 -2l-47 74z" />
<glyph unicode="4" horiz-adv-x="2285" d="M90 858v109h240v-82l332 -273l1064 695l467 -463l-796 -78l352 -250h412v-166l-486 2l-499 355l-514 -332zM141 885l527 -447l510 330l514 -367h417v70l-376 -2l-482 338l826 78l-361 356l-1059 -690l-378 307v57h-138v-30z" />
<glyph unicode="5" horiz-adv-x="2140" d="M98 864l394 266l475 -124l77 43l-92 131l-49 -37l-405 444l805 -190l-152 -101l106 -168l80 -14l107 53l225 467l395 -872l-186 -481l-369 725l-438 -236l-57 98l-496 121l-237 -147l471 -598l299 80l170 -322l-529 117zM170 856l551 -696l407 -86l-102 194l-295 -78 l-524 666l299 186l541 -131l43 -77l442 239l338 -672l139 363l-342 760l-190 -389l-127 -70l-127 22l-138 224l97 63l-545 129l270 -299l58 43l149 -217l-139 -76l-475 125z" />
<glyph unicode="6" horiz-adv-x="1388" d="M123 807l553 12l4 512l565 -481l-553 -154l-100 -178zM307 756l266 -166l86 149l482 133l-410 351l-4 -455z" />
<glyph unicode="7" horiz-adv-x="1355" d="M123 352l92 56l-29 333l181 408l141 156l156 57l137 151l76 -98l-56 -78l183 -360l69 -12l160 -344l-176 -84l-37 77l-264 484l-264 -84l-89 -183l99 -755zM215 346l221 -162l-84 656l107 219l321 102l295 -538l6 -21l86 41l-129 277l-69 14l-205 407l49 72l-16 23 l-109 -117l-153 -57l-127 -142l-172 -387l32 -354z" />
<glyph unicode="8" horiz-adv-x="1617" d="M137 739l443 394v-555zM233 758l295 -107v369zM991 432l379 191l90 -482zM1098 428l291 -180l-56 299z" />
<glyph unicode="9" horiz-adv-x="1181" d="M117 373q356 139 356 485q0 135 -147 303q-106 121 -148 193l369 153l-53 -227q84 -100 123 -191.5t51 -222.5q2 -14 2 -27.5v-27.5q0 -137 -103 -301q-158 -252 -180 -303l-25 -166zM188 350l144 -194l12 65q25 59 178 295q102 158 103 297v31q-2 14 -2 20 q-12 131 -49 215t-130 193l35 155l-233 -98q125 -154 178 -221q94 -121 94 -250q0 -176 -85 -306t-245 -202zM821 360l223 168l21 -276zM909 369l107 -47l-8 120z" />
<glyph unicode="?" d="M68 20l776 1070l825 -1070h-631l138 222l-318 528l-317 -516l143 -234h-616zM162 72h428l-113 186l383 598l381 -610l-108 -174h440l-725 940zM633 1389q0 86 53 149.5t133 63.5q88 0 149.5 -51.5t61.5 -133.5q8 -82 -47 -147.5t-137 -65.5q-82 -8 -147.5 47.5 t-65.5 137.5zM692 1393q0 -55 45 -92t105 -37q55 0 92 45t37 104q0 55 -43 92t-105 37q-57 0 -94 -45t-37 -104z" />
<glyph unicode="A" horiz-adv-x="1296" d="M82 635l299 -105l528 39l6 45l-413 648v135l278 82l86 -463l326 -572l-848 -59l-192 -43zM152 555l36 -154l148 33l772 53l-289 510l-78 416l-188 -55v-82l416 -643l-15 -109l-583 -43zM217 772v264l133 144l291 -301zM268 838l273 67l-191 197l-82 -88v-176z" />
<glyph unicode="B" horiz-adv-x="1769" d="M111 637v319l211 639l186 -77l104 -156l-209 -94l-10 -150l-80 -110l70 -297l61 51l111 -154l492 314l192 -281h-309l-506 -326l188 -262l232 180h262l264 -225h363l-281 -325l-4 184l-490 156l-421 -318l-390 565l48 176zM162 643l86 -192l-47 -172l344 -500l403 303 l549 -178l2 -90l125 143h-274l-265 225h-223l-258 -202l-252 354l561 358h230l-109 158l-489 -311l-109 147l-82 -68l-94 400l86 119l10 166l183 79l-60 93l-127 49l-190 -574v-307z" />
<glyph unicode="C" horiz-adv-x="1675" d="M72 1200h1151v-174l-119 -49v-522h491v-324l-125 -104l-722 499h-502v146h258v260h-105v-168h-149v242zM184 1149l117 -125v-209h47v168h207v-362h-258v-43l463 -3l704 -485l80 68v245h-491v611l118 49v86h-987z" />
<glyph unicode="D" horiz-adv-x="1341" d="M121 1368l235 236l144 -88l252 71l286 -141v-254l-155 -156l102 -125v-495l199 -156v-254l-314 195l-634 -60v334l108 103l-70 141v528zM195 1372l129 -100v-545l84 -158l-123 -116v-252l600 53l250 -158v140l-199 155v502l-119 147l174 174v203l-243 119l-256 -72 l-127 76z" />
<glyph unicode="E" horiz-adv-x="1179" d="M125 451l881 675l-91 -1044zM221 459l649 -303l76 858z" />
<glyph unicode="F" horiz-adv-x="1419" d="M166 887l153 252h971l-205 -297l-153 110l-516 -4l319 -504l-121 -297zM225 885l373 -627l74 184l-353 559l627 -4l127 -86l121 176h-846z" />
<glyph unicode="G" horiz-adv-x="1720" d="M66 262l112 19l682 632v517h451v94l-90 90h354l-119 -90v-285h-422v-1087h211l72 -134h-537l84 113v604l-590 -551l9 -108zM178 229l49 -41l-2 21l693 647v-733l-37 -53h350l-17 30h-231v1190h422v260l16 13h-75l16 -17v-168h-451v-487l-708 -653z" />
<glyph unicode="H" horiz-adv-x="1689" d="M59 129l152 129l96 363l271 139l-187 311h-96v301h252v-201l176 -290l111 225l305 158l106 317l332 -475l-352 12l-264 -131l-119 -258h225v-471l-405 367l-213 -111l-68 -262l145 -123h-467zM201 180h184l-61 53l82 318l262 135l348 -315v307h-252l160 346l286 143 l269 -10l-217 311l-80 -239l-312 -160l-143 -295l-231 383v164h-150v-199h74l231 -381l-301 -157l-94 -357z" />
<glyph unicode="I" horiz-adv-x="1589" d="M152 442l223 267l55 -158l133 -57l240 231l-88 299v342l465 231l268 -208l-121 -449l-260 266l174 115l-43 49l-303 -166l-2 -168l86 -350l-279 -291l5 -360l-330 252v129l-49 26h-174zM264 494h72l90 -48v-133l225 -172l-2 277l273 284l-78 328v205l364 201l111 -123 l-172 -115l153 -158l89 326l-218 170l-405 -203v-303l96 -319l-287 -279l-184 80l-35 92z" />
<glyph unicode="J" horiz-adv-x="1699" d="M115 621l663 -152l488 483l26 219l279 -356l-211 14l-502 -514l-448 -235zM209 553l223 -410l399 215l508 527l125 -4l-139 153l-16 -106l-510 -512z" />
<glyph unicode="K" horiz-adv-x="1908" d="M72 934l669 481l127 -543l901 -247l-536 -627l-152 641zM184 952l940 -272l136 -574l419 490l-852 238l-118 495z" />
<glyph unicode="L" horiz-adv-x="1769" d="M104 801q39 106 68 157q86 160 176 160q127 0 197 -90h522l154 377l-93 229l517 -223l-244 -84l-101 -280v-334l252 -299l-237 -357l6 -88h-170v113l192 313l-131 164l-104 -45v-539h53v-194h-280l-103 -90l6 -66h-307l141 109l246 246h74v526h-45l-440 -584v-137h-199 l2 178l444 623v276h-206q-14 43 -44 67.5t-65 24.5q-23 0 -46.5 -10t-43.5 -78q-6 -23 -14 -65h-177zM174 852h64q12 45 28 78q27 51 54.5 63.5t62.5 12.5q47 0 88 -25t59 -68h222l-4 -342l-443 -622v-113h96v105l465 616h123v-629h-102l-236 -233l-22 -19h102l-2 33 l133 123h248v92h-53v621l174 78l178 -224l-207 -333v-46h66l-2 54l221 334l-238 284v361l113 315l141 49l-278 119l55 -129l-176 -430h-584q-37 51 -75.5 71.5t-96.5 20.5q-59 0 -112 -82q-35 -53 -62 -135z" />
<glyph unicode="M" horiz-adv-x="1673" d="M94 1235l363 301l135 -98v-338l401 -240l461 -16l133 -236l-364 -246l-33 -305l-371 -49v307l441 275l-406 112l-592 363v170h-168zM240 1286h73v-190l561 -346l515 -142l-519 -323v-219l275 34l33 293l342 230l-99 172l-444 18l-436 258v342l-80 57z" />
<glyph unicode="N" horiz-adv-x="1421" d="M201 618l73 943l437 -773l118 21l93 141l65 -424l-156 131l-65 -10l346 -354l188 -45l-344 -207l11 160l-383 383zM252 662l360 -31l406 -406l-6 -92l155 94l-82 23l-423 430l188 33l65 -60l-24 158l-31 -47l-176 -29l-375 656z" />
<glyph unicode="O" horiz-adv-x="2140" d="M199 1440l411 155l-32 -462zM301 1423l234 -190l20 285zM575 836l259 161l258 -403l520 -115l377 78l-238 -547l-162 264l-667 117zM651 821l301 -385l672 -117l121 -200l160 368l-293 -59l-549 121l-244 377z" />
<glyph unicode="P" horiz-adv-x="1290" d="M68 2v250q10 12 32.5 34.5t28.5 36t6 35.5q-4 35 -4 54q0 8 6 32.5t39 63.5t39 72q0 25 -16 104q-2 12 -9 37l158 -53q0 -12 -1 -25.5t-1 -34.5q0 -31 2 -37v-7q0 -32 -31 -64q-43 -47 -49 -73t-6 -48q0 -12 2 -37t2 -41l-24 -72h110v-227h-284zM117 51h186v129h-133 l49 135q0 14 -2 39t-2 37q0 23 6 47.5t43 59t37 65.5l-4 68l-39 12q5 -25 5 -48q0 -11 -1 -22q-4 -31 -49 -88q-23 -31 -28 -49t-5 -39q2 -33 2 -51q0 -27 -7 -44t-24.5 -34.5t-33.5 -31.5v-185zM549 588v84h196v-156h-155v72h-41zM598 623h43v-58h55v72h-98v-14zM719 748 q86 45 98 145v8q1 36 -29 83q-34 52 -34 85q0 68 120.5 129.5t120.5 101.5q0 35 -69 113q-33 37 -33 72q0 37 27 94q8 18 28 51h135q-20 -35 -28 -55q-31 -66 -31 -92q0 -16 125 -88q64 -37 74 -82q1 -5 1 -11q0 -61 -128 -109q-138 -52 -138 -108q0 -12 4.5 -29.5 t30.5 -39.5q57 -49 61.5 -73.5t4.5 -33.5q0 -45 -41 -100q-63 -88 -76 -111h-213zM801 1067q0 -37 31.5 -92t31.5 -92q0 -39 -15 -72t-44 -61h108q8 16 60 77q37 45 37 80q0 12 -3 27.5t-61 66.5q-27 25 -31 42.5t-4 25.5v12q-1 85 135 141q130 54 130 81q0 47 -106 87 q-94 36 -93 89q-2 23 4 49t18 53h-20q-12 -18 -23 -43q-16 -35 -16 -55q0 -41 52 -91.5t52 -91.5q0 -74 -121.5 -120.5t-121.5 -112.5z" />
<glyph unicode="Q" horiz-adv-x="2048" d="M113 612l204 -94l727 72l445 743l-70 250l459 -270l-236 -58l-481 -825l-774 -133l-111 -168zM201 518l92 -272l63 100l777 129l477 825l137 33l-246 144l39 -150l-467 -782l-764 -76z" />
<glyph unicode="R" horiz-adv-x="2048" d="M-20 1327l100 137q4 -2 203 -114q100 -57 149 -144q12 -23 17.5 -43t5.5 -47q0 -29 -9 -72q-18 -96 -18 -118q0 -31 5 -49.5t26.5 -48t66.5 -29.5q25 0 191 53q84 27 139 27q53 0 99 -15.5t92 -56.5q66 -57 88 -201.5t36 -169.5q35 -55 88.5 -80.5t122.5 -25.5 q84 0 181 41l430 96l-174 -393l-197 133q-106 -47 -217 -47q-201 0 -356 155q-55 55 -67.5 183.5t-55.5 185.5q-27 35 -80 35q-29 0 -201 -51q-90 -27 -141 -27q-55 0 -102.5 20.5t-88.5 71.5q-18 23 -26 50.5t-8 54.5q0 29 12 92t12 96q0 27 -4 49.5t-18 44.5 q-39 66 -127 111q-137 68 -174 96zM49 1337l154 -77q82 -43 123 -115q8 -14 15 -37t7 -55q0 -31 -12 -94.5t-12 -94.5q0 -27 6 -53.5t24 -48.5q31 -41 70 -58.5t88 -17.5q59 0 135 21q186 51 217 51q61 0 99 -37q53 -55 61 -185t61 -184q139 -139 322 -139q111 0 221 51 l168 -117l111 248l-328 -71q-84 -41 -178 -41q-76 0 -143.5 29.5t-122.5 90.5q-37 39 -49.5 175.5t-71.5 191.5q-37 35 -79 49.5t-87 14.5q-68 0 -185.5 -38t-154.5 -38q-33 0 -54.5 9t-37 33.5t-22.5 49t-7 53.5t12.5 90.5t12.5 93.5q0 29 -5.5 48.5t-19.5 46.5 q-43 76 -131 125q-84 43 -166 88z" />
<glyph unicode="S" horiz-adv-x="1880" d="M57 836l312 483l362 41q96 8 195 18q53 10 53 37q0 33 -47 47q-123 35 -160 142l199 22q0 -57 103.5 -87t117.5 -95q4 -20 4 -31q0 -86 -123 -135q-53 -20 -239 -61l-230 -48l234 -942q63 -98 172 -98q41 0 77 14q53 20 84 53t46 97l456 98l103 -313l-293 -72l-156 90 q-66 -55 -94 -78q-51 -39 -113.5 -56t-124.5 -17q-215 0 -342 186l-114 -41l-97 279l-127 -29zM117 829l225 -432l135 31l92 -272l107 41q61 -98 144 -148.5t181 -50.5q37 0 55.5 2t55.5 12q55 16 107.5 58.5t107.5 87.5l164 -99l217 54l-72 219l-379 -82 q-31 -109 -151 -156q-18 -8 -43 -12t-49 -4q-147 0 -223 131l-248 999l278 58q104 20 211 41q113 33 113 106q-2 12 -2 19q-4 29 -62 55q-141 66 -151 84l-86 -10q27 -41 105.5 -59.5t78.5 -82.5q0 -74 -145 -94q-102 -10 -148 -14l-334 -39z" />
<glyph unicode="T" horiz-adv-x="2166" d="M82 805l432 430v-336l516 -270l639 -123l279 -242l-969 172l-625 309zM186 834l187 -39l624 -314l785 -139l-133 119l-637 123l-549 284v242z" />
<glyph unicode="U" horiz-adv-x="2215" d="M82 997v158h502l217 193v-193h82l221 -373h301l524 -487l154 -4v-252h-223v123l-613 413l-22 -63l133 -82l-338 -141l37 147l-881 453v108h-94zM133 1049h94v-129l889 -455l-22 -88l147 61l-80 51l60 166l690 -467v-98h121v152l-125 6l-525 483h-307l-221 373h-104v131 l-150 -131h-467v-55z" />
<glyph unicode="V" horiz-adv-x="1685" d="M84 213l12 215l146 -129l51 61l113 -94l-158 -194zM137 236l103 -89l92 113l-33 27l-51 -60l-107 90zM229 500l220 256l24 -115l531 631l-150 129l297 151l10 -323l-555 -664l357 -100l122 143l175 527l-84 149l350 -151l-154 -60l-174 -551l-356 -426l12 -272l90 -148 l-317 68l92 106l-25 330l86 101l-65 55zM315 520l428 -143l113 -88l-113 -129l27 -330l-49 -55l117 -25l-35 60l-15 303l367 434l178 565l62 23l-99 43l19 -33l-189 -565l-141 -170l-467 131l588 704l-6 221l-154 -77l131 -111l-626 -746l-29 113z" />
<glyph unicode="W" horiz-adv-x="1265" d="M158 1157v234l309 157h496l120 -1157l-649 168l-119 -47l-147 -2v444l313 -252l463 -114l-80 667h-372l-127 -98h-207zM209 1208h137l127 99h436l95 -785l-549 135l-236 189v-287l86 2l123 53l598 -157l-108 1040h-441l-268 -137v-152z" />
<glyph unicode="X" horiz-adv-x="1370" d="M57 883l176 438l158 158h510l156 125v-299l127 -58v-698l151 -121h-585l-148 -264l-219 213v188h532v588l70 47l-39 39h-557v-356h-332zM135 934h203v356h631l98 -96l-100 -68v-612h-533v-115l156 -151l129 231h467l-53 43v695l-127 57v221l-86 -68h-506l-135 -135z" />
<glyph unicode="Y" horiz-adv-x="950" d="M123 201v504l49 8l125 -365l2 -90h420v117l-68 78v634h-332v-233h-137v424l381 381l232 -539l2 -594l69 -123l4 -223l-350 -379zM174 223l344 -346l299 324v188l-72 125v594l-198 461l-314 -314v-350h35v234h434v-670l68 -78v-184h-522v129l-74 213v-326z" />
<glyph unicode="Z" horiz-adv-x="1314" d="M131 1174l62 311l272 -101l590 66l4 -119l-240 -41l-98 -291l197 -274h-130l3 -80h127l-3 -291h107l176 72l-158 -307l-47 12v105h-381l-24 -144l-195 41l90 459l-110 493zM188 1206l230 -80l117 -530l-84 -424l96 -20l24 135h473v-47l46 86l-54 -21l-172 -2l2 291h-125 l-2 182h80l-153 217l114 342l228 37l-2 23l-551 -60l-226 80z" />
<glyph unicode="`" horiz-adv-x="2318" d="M156 403v11h315v-11h-315zM229 1237l9 8q2 -2 34 -51q20 -31 47 -35q41 -6 76 13.5t43 58.5q10 45 -41 82q-25 18 -59.5 33.5t-58.5 42.5q-31 35 -31 73q0 49 31.5 73t70.5 17q55 0 75.5 -10t59.5 -59l-8 -8q-33 45 -52 55t-75 14q-37 0 -64.5 -18.5t-27.5 -63.5 q0 -37 27 -67q20 -23 63 -42.5t68 -39.5q33 -29 33 -66q0 -14 -3 -20q-8 -37 -36.5 -57.5t-67.5 -20.5q-14 0 -33.5 4t-46.5 43q-18 27 -33 41zM281 868q0 61 34.5 108.5t68.5 51.5t52 4q47 0 84 -19.5t31 -54.5h-8q4 35 -38 49.5t-95 14.5q-55 -6 -87 -58.5t-32 -119.5 q6 -59 48 -103.5t101 -44.5t88 19q39 25 39 90h-102v10l108 -2q0 -74 -38 -102q-31 -23 -95 -23q-66 0 -111.5 46t-45.5 114q-2 12 -2 20zM319 74v311h11v-311h-11zM471 137q0 27 16 49q29 37 70 37q27 0 49 -16q37 -29 37 -70q0 -26 -16 -49q-29 -37 -70 -37q-27 0 -49 17 q-37 29 -37 69zM481 137q0 -39 31 -61q20 -14 45 -15q38 0 61 31q14 20 15 45q0 39 -31 62q-20 14 -45 14q-39 0 -61 -31q-14 -20 -15 -45zM524 1296v11h131v-11h-131zM586 1139v237h10v-237h-10zM649 764q0 27 17 49q29 37 69 37q27 0 49 -16q37 -29 37 -70q0 -26 -16 -49 q-29 -37 -70 -37q-27 0 -49 16q-37 29 -37 70zM659 764q0 -39 31 -62q20 -14 45 -14q39 0 62 31q14 20 14 45q0 39 -31 61q-20 14 -45 15q-39 0 -61 -31q-14 -20 -15 -45zM705 1206q0 27 16 49q29 37 70 37q27 0 49 -16q37 -29 37 -70q-1 -26 -17 -49q-29 -37 -69 -37 q-27 0 -50 17q-37 29 -36 69zM715 1206q0 -39 30 -61q20 -14 46 -15q38 0 61 31q14 20 14 45q0 39 -30 62q-20 14 -45 14q-39 0 -62 -31q-14 -20 -14 -45zM729 430q0 23 16.5 39t38.5 16q23 0 40.5 -15t17.5 -40t-16.5 -41t-41.5 -16q-23 0 -39 16.5t-16 40.5zM729 492v131 h10v-131h-10zM739 430q0 -47 45 -47q20 0 33.5 13.5t13.5 33.5t-12 32.5t-35 12.5q-45 0 -45 -45zM750 53v148h10v-148h-10zM783 173q-3 3 1 7q23 18 31 27q16 14 37 14q29 2 36 -15.5t7 -60.5v-50.5t6 -43.5q-10 -4 -13 5.5t-3 37.5q0 12 2 36t2 32q0 51 -37 51 q-16 0 -32.5 -14.5t-31.5 -26.5q-2 -2 -5 1zM885 811v10h159v-10h-159zM885 1126v164h10v-164h-10zM914.5 169q-3.5 3 0.5 7q23 18 31 27q16 14 37 14q29 2 36 -15.5t7 -60.5v-50.5t6 -43.5q2 -4 -2 -6t-6 2q-2 10 -3 24.5t-1 22.5q2 43 2 64q0 27 -7 41t-32 14 q-16 0 -32.5 -14.5t-30.5 -26.5q-2 -2 -5.5 1zM918 270l192 222q2 2 7 -0.5t1 -8.5l-192 -221q-2 -2 -7.5 0t-0.5 8zM938 481l8 4l62 -106l-9 -4zM950 1130v148h11v-148h-11zM984 1250q-3 3 1 7q23 18 31 27q16 14 37 14q33 1 45 -22q-10 -4 -12.5 5t-12.5 9h-20 q-16 0 -32.5 -14t-31.5 -27q-2 -2 -5 1zM1102 37v168h10v-168h-10zM1127.5 169q-3.5 3 0.5 7q23 18 31 27q16 14 37 14q29 2 36 -15.5t7 -60.5v-50.5t6 -43.5q2 -4 -2 -6t-6 2q-2 10 -3 24.5t-1 22.5q2 43 2 64q0 27 -7 41t-32 14q-16 0 -32.5 -14.5t-30.5 -26.5 q-2 -2 -5.5 1zM1147 1194q0 27 16 49q29 37 70 37q27 0 49 -16q37 -29 37 -70q0 -26 -16 -49q-29 -37 -70 -37q-27 0 -49 16q-37 29 -37 70zM1153 764q0 27 16 49q29 37 70 37q27 0 49 -16q37 -29 37 -70q0 -26 -16 -49q-29 -37 -70 -37q-27 0 -49 16q-37 29 -37 70z M1157 1194q0 -39 31 -61q20 -14 45 -15q38 0 61 31q14 20 15 45q0 39 -31 61q-20 14 -45 15q-39 0 -62 -31q-14 -20 -14 -45zM1163 764q0 -39 31 -62q20 -14 45 -14q38 0 61 31q14 20 15 45q0 39 -31 61q-20 14 -45 15q-39 0 -61 -31q-14 -20 -15 -45zM1163 1016l8 8 q4 -33 26 -48t52 -15q31 0 56.5 17t25.5 44v256h10l-2 -260q0 -29 -29.5 -48.5t-68.5 -19.5q-31 0 -53.5 15.5t-24.5 50.5zM1258.5 169q-3.5 3 1.5 7q23 18 30 27q16 14 37 14q29 2 36 -15.5t7 -60.5v-50.5t6 -43.5q2 -4 -2 -6t-6 2q-2 10 -3 24.5t-1 22.5q2 43 2 64 q0 27 -7 41t-32 14q-16 0 -32.5 -14.5t-30.5 -26.5q-2 -2 -5.5 1zM1333 684v164h10v-164h-10zM1397 1219q0 27 16 49q29 37 70 37q27 0 49 -17q37 -29 37 -69q-1 -27 -17 -50q-29 -37 -69 -36q-27 0 -49 16q-37 29 -37 70zM1407 1219q0 -39 31 -62q20 -14 45 -14q38 0 61 31 q14 20 15 45q0 39 -31 61q-20 14 -45 14q-39 0 -62 -30q-14 -20 -14 -45zM1430 -82l245 291q2 2 7 0t1 -8l-245 -291q-2 -2 -7.5 0t-0.5 8zM1440 670v350h10v-350h-10zM1454 207l8 4l82 -148l-8 -4zM1516 758q0 27 16 49q29 37 70 37q27 0 49 -17q37 -29 37 -69 q-1 -26 -17 -49q-29 -37 -69 -37q-27 0 -50 16q-37 29 -36 70zM1526 758q0 -39 30 -62q20 -14 46 -14q38 0 61 31q14 20 14 45q0 39 -30 61q-20 14 -45 15q-39 0 -62 -31q-14 -20 -14 -45zM1577 1139v164h10v-164h-10zM1655 1300v11h131v-11h-131zM1696 668v350h10v-350h-10 zM1716 1143v237h10v-237h-10zM1819 1208q0 47 31.5 85t72.5 26q31 -8 49.5 -36.5t14.5 -59.5h-115v10h106q0 25 -16 47.5t-43 30.5q-35 8 -62.5 -27t-27.5 -78q0 -14 2 -20q18 -72 78 -72q23 0 41 14.5t26 34.5l4 -8q0 -18 -23.5 -33.5t-47.5 -15.5q-31 -2 -54.5 20.5 t-29.5 47t-6 34.5z" />
<glyph unicode="a" horiz-adv-x="1296" d="M82 635l299 -105l528 39l6 45l-413 648v135l278 82l86 -463l326 -572l-848 -59l-192 -43zM152 555l36 -154l148 33l772 53l-289 510l-78 416l-188 -55v-82l416 -643l-15 -109l-583 -43zM217 772v264l133 144l291 -301zM268 838l273 67l-191 197l-82 -88v-176z" />
<glyph unicode="b" horiz-adv-x="1769" d="M111 637v319l211 639l186 -77l104 -156l-209 -94l-10 -150l-80 -110l70 -297l61 51l111 -154l492 314l192 -281h-309l-506 -326l188 -262l232 180h262l264 -225h363l-281 -325l-4 184l-490 156l-421 -318l-390 565l48 176zM162 643l86 -192l-47 -172l344 -500l403 303 l549 -178l2 -90l125 143h-274l-265 225h-223l-258 -202l-252 354l561 358h230l-109 158l-489 -311l-109 147l-82 -68l-94 400l86 119l10 166l183 79l-60 93l-127 49l-190 -574v-307z" />
<glyph unicode="c" horiz-adv-x="1675" d="M72 1200h1151v-174l-119 -49v-522h491v-324l-125 -104l-722 499h-502v146h258v260h-105v-168h-149v242zM184 1149l117 -125v-209h47v168h207v-362h-258v-43l463 -3l704 -485l80 68v245h-491v611l118 49v86h-987z" />
<glyph unicode="d" horiz-adv-x="1341" d="M121 1368l235 236l144 -88l252 71l286 -141v-254l-155 -156l102 -125v-495l199 -156v-254l-314 195l-634 -60v334l108 103l-70 141v528zM195 1372l129 -100v-545l84 -158l-123 -116v-252l600 53l250 -158v140l-199 155v502l-119 147l174 174v203l-243 119l-256 -72 l-127 76z" />
<glyph unicode="e" horiz-adv-x="1179" d="M125 451l881 675l-91 -1044zM221 459l649 -303l76 858z" />
<glyph unicode="f" horiz-adv-x="1320" d="M127 887l154 252h970l-204 -297l-154 110l-516 -4l319 -504l-121 -297zM186 885l373 -627l74 184l-352 559l626 -4l127 -86l121 176h-846z" />
<glyph unicode="g" horiz-adv-x="1660" d="M66 262l112 19l682 632v517h451v94l-90 90h354l-119 -90v-285h-422v-1087h211l72 -134h-537l84 113v604l-590 -551l9 -108zM178 229l49 -41l-2 21l693 647v-733l-37 -53h350l-17 30h-231v1190h422v260l16 13h-75l16 -17v-168h-451v-487l-708 -653z" />
<glyph unicode="h" horiz-adv-x="1671" d="M59 129l152 129l96 363l271 139l-187 311h-96v301h252v-201l176 -290l111 225l305 158l106 317l332 -475l-352 12l-264 -131l-119 -258h225v-471l-405 367l-213 -111l-68 -262l145 -123h-467zM201 180h184l-61 53l82 318l262 135l348 -315v307h-252l160 346l286 143 l269 -10l-217 311l-80 -239l-312 -160l-143 -295l-231 383v164h-150v-199h74l231 -381l-301 -157l-94 -357z" />
<glyph unicode="i" horiz-adv-x="1589" d="M152 442l223 267l55 -158l133 -57l240 231l-88 299v342l465 231l268 -208l-121 -449l-260 266l174 115l-43 49l-303 -166l-2 -168l86 -350l-279 -291l5 -360l-330 252v129l-49 26h-174zM264 494h72l90 -48v-133l225 -172l-2 277l273 284l-78 328v205l364 201l111 -123 l-172 -115l153 -158l89 326l-218 170l-405 -203v-303l96 -319l-287 -279l-184 80l-35 92z" />
<glyph unicode="j" horiz-adv-x="1699" d="M115 621l663 -152l488 483l26 219l279 -356l-211 14l-502 -514l-448 -235zM209 553l223 -410l399 215l508 527l125 -4l-139 153l-16 -106l-510 -512z" />
<glyph unicode="k" horiz-adv-x="1908" d="M72 934l669 481l127 -543l901 -247l-536 -627l-152 641zM184 952l940 -272l136 -574l419 490l-852 238l-118 495z" />
<glyph unicode="l" horiz-adv-x="1769" d="M104 801q39 106 68 157q86 160 176 160q127 0 197 -90h522l154 377l-93 229l517 -223l-244 -84l-101 -280v-334l252 -299l-237 -357l6 -88h-170v113l192 313l-131 164l-104 -45v-539h53v-194h-280l-103 -90l6 -66h-307l141 109l246 246h74v526h-45l-440 -584v-137h-199 l2 178l444 623v276h-206q-14 43 -44 67.5t-65 24.5q-23 0 -46.5 -10t-43.5 -78q-6 -23 -14 -65h-177zM174 852h64q12 45 28 78q27 51 54.5 63.5t62.5 12.5q47 0 88 -25t59 -68h222l-4 -342l-443 -622v-113h96v105l465 616h123v-629h-102l-236 -233l-22 -19h102l-2 33 l133 123h248v92h-53v621l174 78l178 -224l-207 -333v-46h66l-2 54l221 334l-238 284v361l113 315l141 49l-278 119l55 -129l-176 -430h-584q-37 51 -75.5 71.5t-96.5 20.5q-59 0 -112 -82q-35 -53 -62 -135z" />
<glyph unicode="m" horiz-adv-x="1673" d="M94 1235l363 301l135 -98v-338l401 -240l461 -16l133 -236l-364 -246l-33 -305l-371 -49v307l441 275l-406 112l-592 363v170h-168zM240 1286h73v-190l561 -346l515 -142l-519 -323v-219l275 34l33 293l342 230l-99 172l-444 18l-436 258v342l-80 57z" />
<glyph unicode="n" horiz-adv-x="1421" d="M201 618l73 943l437 -773l118 21l93 141l65 -424l-156 131l-65 -10l346 -354l188 -45l-344 -207l11 160l-383 383zM252 662l360 -31l406 -406l-6 -92l155 94l-82 23l-423 430l188 33l65 -60l-24 158l-31 -47l-176 -29l-375 656z" />
<glyph unicode="o" horiz-adv-x="2140" d="M199 1440l411 155l-32 -462zM301 1423l234 -190l20 285zM575 836l259 161l258 -403l520 -115l377 78l-238 -547l-162 264l-667 117zM651 821l301 -385l672 -117l121 -200l160 368l-293 -59l-549 121l-244 377z" />
<glyph unicode="p" horiz-adv-x="1290" d="M68 2v250q10 12 32.5 34.5t28.5 36t6 35.5q-4 35 -4 54q0 8 6 32.5t39 63.5t39 72q0 25 -16 104q-2 12 -9 37l158 -53q0 -12 -1 -25.5t-1 -34.5q0 -31 2 -37v-7q0 -32 -31 -64q-43 -47 -49 -73t-6 -48q0 -12 2 -37t2 -41l-24 -72h110v-227h-284zM117 51h186v129h-133 l49 135q0 14 -2 39t-2 37q0 23 6 47.5t43 59t37 65.5l-4 68l-39 12q5 -25 5 -48q0 -11 -1 -22q-4 -31 -49 -88q-23 -31 -28 -49t-5 -39q2 -33 2 -51q0 -27 -7 -44t-24.5 -34.5t-33.5 -31.5v-185zM549 588v84h196v-156h-155v72h-41zM598 623h43v-58h55v72h-98v-14zM719 748 q86 45 98 145v8q0 37 -29 83q-34 52 -34 85q0 68 120.5 129.5t120.5 101.5q0 35 -69 113q-33 37 -33 72q0 37 27 94q8 18 28 51h135q-20 -35 -28 -55q-31 -66 -31 -92q0 -16 125 -88q64 -37 74 -82q1 -5 1 -11q0 -61 -128 -109q-138 -52 -138 -108q0 -12 4.5 -29.5 t30.5 -39.5q57 -49 61.5 -73.5t4.5 -33.5q0 -45 -41 -100q-63 -88 -76 -111h-213zM801 1067q0 -37 31.5 -92t31.5 -92q0 -39 -15 -72t-44 -61h108q8 16 60 77q37 45 37 80q0 12 -3 27.5t-61 66.5q-27 25 -31 42.5t-4 25.5v12q0 84 135 141q130 54 130 81q0 46 -106 87 q-93 35 -93 89q-2 23 4 49t18 53h-20q-12 -18 -23 -43q-16 -35 -16 -55q0 -41 52 -91.5t52 -91.5q0 -74 -121.5 -120.5t-121.5 -112.5z" />
<glyph unicode="q" horiz-adv-x="2048" d="M113 612l204 -94l727 72l445 743l-70 250l459 -270l-236 -58l-481 -825l-774 -133l-111 -168zM201 518l92 -272l63 100l777 129l477 825l137 33l-246 144l39 -150l-467 -782l-764 -76z" />
<glyph unicode="r" horiz-adv-x="2048" d="M-20 1327l100 137q4 -2 203 -114q100 -57 149 -144q12 -23 17.5 -43t5.5 -47q0 -29 -9 -72q-18 -96 -18 -118q0 -31 5 -49.5t26.5 -48t66.5 -29.5q25 0 191 53q84 27 139 27q53 0 99 -15.5t92 -56.5q66 -57 88 -201.5t36 -169.5q35 -55 88.5 -80.5t122.5 -25.5 q84 0 181 41l430 96l-174 -393l-197 133q-106 -47 -217 -47q-201 0 -356 155q-55 55 -67.5 183.5t-55.5 185.5q-27 35 -80 35q-29 0 -201 -51q-90 -27 -141 -27q-55 0 -102.5 20.5t-88.5 71.5q-18 23 -26 50.5t-8 54.5q0 29 12 92t12 96q0 27 -4 49.5t-18 44.5 q-39 66 -127 111q-137 68 -174 96zM49 1337l154 -77q82 -43 123 -115q8 -14 15 -37t7 -55q0 -31 -12 -94.5t-12 -94.5q0 -27 6 -53.5t24 -48.5q31 -41 70 -58.5t88 -17.5q59 0 135 21q186 51 217 51q61 0 99 -37q53 -55 61 -185t61 -184q139 -139 322 -139q111 0 221 51 l168 -117l111 248l-328 -71q-84 -41 -178 -41q-76 0 -143.5 29.5t-122.5 90.5q-37 39 -49.5 175.5t-71.5 191.5q-37 35 -79 49.5t-87 14.5q-68 0 -185.5 -38t-154.5 -38q-33 0 -54.5 9t-37 33.5t-22.5 49t-7 53.5t12.5 90.5t12.5 93.5q0 29 -5.5 48.5t-19.5 46.5 q-43 76 -131 125q-84 43 -166 88z" />
<glyph unicode="s" horiz-adv-x="1880" d="M57 836l312 483l362 41q96 8 195 18q53 10 53 37q0 33 -47 47q-123 35 -160 142l199 22q0 -57 103.5 -87t117.5 -95q4 -20 4 -31q0 -86 -123 -135q-53 -20 -239 -61l-230 -48l234 -942q63 -98 172 -98q41 0 77 14q53 20 84 53t46 97l456 98l103 -313l-293 -72l-156 90 q-66 -55 -94 -78q-51 -39 -113.5 -56t-124.5 -17q-215 0 -342 186l-114 -41l-97 279l-127 -29zM117 829l225 -432l135 31l92 -272l107 41q61 -98 144 -148.5t181 -50.5q37 0 55.5 2t55.5 12q55 16 107.5 58.5t107.5 87.5l164 -99l217 54l-72 219l-379 -82 q-31 -109 -151 -156q-18 -8 -43 -12t-49 -4q-147 0 -223 131l-248 999l278 58q104 20 211 41q113 33 113 106q-2 12 -2 19q-4 29 -62 55q-141 66 -151 84l-86 -10q27 -41 105.5 -59.5t78.5 -82.5q0 -74 -145 -94q-102 -10 -148 -14l-334 -39z" />
<glyph unicode="t" horiz-adv-x="2166" d="M82 805l432 430v-336l516 -270l639 -123l279 -242l-969 172l-625 309zM186 834l187 -39l624 -314l785 -139l-133 119l-637 123l-549 284v242z" />
<glyph unicode="u" horiz-adv-x="2215" d="M82 997v158h502l217 193v-193h82l221 -373h301l524 -487l154 -4v-252h-223v123l-613 413l-22 -63l133 -82l-338 -141l37 147l-881 453v108h-94zM133 1049h94v-129l889 -455l-22 -88l147 61l-80 51l60 166l690 -467v-98h121v152l-125 6l-525 483h-307l-221 373h-104v131 l-150 -131h-467v-55z" />
<glyph unicode="v" horiz-adv-x="1685" d="M190 74l13 215l145 -129l51 61l113 -94l-158 -195zM229 500l220 256l24 -115l531 631l-150 129l297 151l10 -323l-555 -664l357 -100l122 143l175 527l-84 149l350 -151l-154 -60l-174 -551l-356 -426l12 -272l90 -148l-317 68l92 106l-25 330l86 101l-65 55zM244 96 l102 -88l92 113l-32 26l-52 -59l-106 90zM315 520l428 -143l113 -88l-113 -129l27 -330l-49 -55l117 -25l-35 60l-15 303l367 434l178 565l62 23l-99 43l19 -33l-189 -565l-141 -170l-467 131l588 704l-6 221l-154 -77l131 -111l-626 -746l-29 113z" />
<glyph unicode="w" horiz-adv-x="1265" d="M158 1157v234l309 157h496l120 -1157l-649 168l-119 -47l-147 -2v444l313 -252l463 -114l-80 667h-372l-127 -98h-207zM209 1208h137l127 99h436l95 -785l-549 135l-236 189v-287l86 2l123 53l598 -157l-108 1040h-441l-268 -137v-152z" />
<glyph unicode="x" horiz-adv-x="1370" d="M57 883l176 438l158 158h510l156 125v-299l127 -58v-698l151 -121h-585l-148 -264l-219 213v188h532v588l70 47l-39 39h-557v-356h-332zM135 934h203v356h631l98 -96l-100 -68v-612h-533v-115l156 -151l129 231h467l-53 43v695l-127 57v221l-86 -68h-506l-135 -135z" />
<glyph unicode="y" horiz-adv-x="950" d="M123 201v504l49 8l125 -365l2 -90h420v117l-68 78v634h-332v-233h-137v424l381 381l232 -539l2 -594l69 -123l4 -223l-350 -379zM174 223l344 -346l299 324v188l-72 125v594l-198 461l-314 -314v-350h35v234h434v-670l68 -78v-184h-522v129l-74 213v-326z" />
<glyph unicode="z" horiz-adv-x="1314" d="M131 1174l62 311l272 -101l590 66l4 -119l-240 -41l-98 -291l197 -274h-130l3 -80h127l-3 -291h107l176 72l-158 -307l-47 12v105h-381l-24 -144l-195 41l90 459l-110 493zM188 1206l230 -80l117 -530l-84 -424l96 -20l24 135h473v-47l46 86l-54 -21l-172 -2l2 291h-125 l-2 182h80l-153 217l114 342l228 37l-2 23l-551 -60l-226 80z" />
<glyph unicode="&#x2000;" horiz-adv-x="829" />
<glyph unicode="&#x2001;" horiz-adv-x="1659" />
<glyph unicode="&#x2002;" horiz-adv-x="829" />
<glyph unicode="&#x2003;" horiz-adv-x="1659" />
<glyph unicode="&#x2004;" horiz-adv-x="553" />
<glyph unicode="&#x2005;" horiz-adv-x="414" />
<glyph unicode="&#x2006;" horiz-adv-x="276" />
<glyph unicode="&#x2007;" horiz-adv-x="276" />
<glyph unicode="&#x2008;" horiz-adv-x="207" />
<glyph unicode="&#x2009;" horiz-adv-x="331" />
<glyph unicode="&#x200a;" horiz-adv-x="92" />
<glyph unicode="&#x202f;" horiz-adv-x="331" />
<glyph unicode="&#x205f;" horiz-adv-x="414" />
<glyph unicode="&#x25fc;" horiz-adv-x="1607" d="M0 0v1608h1608v-1608h-1608z" />
</font>
</defs>
</svg>
