<?xml version="1.0" encoding="UTF-8"?>
<svg width="14px" height="12px" viewBox="0 0 14 12" version="1.1" xmlns="http://www.w3.org/2000/svg" xmlns:xlink="http://www.w3.org/1999/xlink">
    <!-- Generator: Sketch 55.1 (78136) - https://sketchapp.com -->
    <title>Combined Shape</title>
    <desc>Created with Sketch.</desc>
    <g id="Cart" stroke="none" stroke-width="1" fill="white" fill-rule="evenodd">
        <path d="M3.7498125,5.06214825 C3.98431608,4.82764467 4.3659158,4.8267944 4.60126964,5.06129798 L6.30095292,6.76183152 L6.30095292,0.60232898 C6.30095292,0.26970462 6.57150781,0 6.90311185,0 C7.23573621,0 7.50544083,0.270554886 7.50544083,0.60232898 L7.50544083,6.76098125 L9.20495405,5.06044771 C9.43962768,4.82594414 9.82190762,4.82594414 10.0565812,5.06044771 L10.0565812,5.06129798 C10.2910848,5.29665182 10.2910848,5.67825155 10.0565812,5.91275512 L7.32892544,8.64041092 C7.273318,8.69754885 7.20631698,8.74176272 7.13200366,8.77186217 C7.06007109,8.80213166 6.98252676,8.81760652 6.90311185,8.81760652 C6.82386698,8.81760652 6.74547239,8.80213166 6.67200934,8.77118195 C6.60007677,8.74176272 6.53290569,8.69669858 6.47661803,8.64041092 L3.7498125,5.91360539 C3.63621686,5.80000975 3.57346717,5.64883232 3.57346717,5.48779179 C3.57346717,5.32777158 3.63621686,5.17574389 3.7498125,5.06214825 Z M13.1787948,7.36335558 C13.5253636,7.36335558 13.8062917,7.64428372 13.8062917,7.99085246 L13.8062917,10.9383872 C13.8062917,11.284956 13.5253636,11.5658841 13.1787948,11.5658841 L0.627496877,11.5658841 C0.280928141,11.5658841 0,11.284956 0,10.9383872 L0,8.1755304 C0,7.82896166 0.280928141,7.54803352 0.627496877,7.54803352 C0.974065612,7.54803352 1.25516381,7.82896166 1.25516381,8.1755304 L1.25516381,10.3107203 L12.551298,10.3107203 L12.551298,7.99085246 C12.551298,7.64428372 12.8322261,7.36335558 13.1786248,7.36335558 L13.1787948,7.36335558 Z" id="Combined-Shape" fill="white"></path>
    </g>
</svg>