<svg xmlns="http://www.w3.org/2000/svg" xmlns:xlink="http://www.w3.org/1999/xlink" version="1.1" id="Layer_1" x="0px" y="0px" viewBox="478.75 -26 161.25 146" enable-background="new 478.75 -26 161.25 146" xml:space="preserve"><g><g><path fill="#5B2D23" d="M572.59 98.97c0.02 0 0.04 0 0.04 0H572.59z"/><path fill="#5B2D23" d="M572.65 98.97L572.65 98.97L572.65 98.97z"/><g><path fill="#5B2D23" d="M575.6 64.56c-1.91-3.25-6.26-10.06-6.95-14.55c-2.54 4.47-4.14 6.14-4.75 6.89 c0.12-0.18-0.16 0.2-0.16 0.2l0 0c2.99 5.12-2.95 14.83-3.56 20.38c-0.49 4.39 0.83 8.29 3.74 11.66 c1.75 2.01 2.46 3.33 4.1 6.46s4.71 3.37 4.57 3.39c-1.69-2.09-2.23-4.23-1.3-6.52c0.26-0.61 0.57-1.2 0.91-1.77 c-0.32 1.14-0.41 2.84 0.59 5c0 0-0.69-3.56 1.71-8.33c0.39-0.59 0.77-1.2 1.06-1.87c0 0 0 0 0-0.02l0 0 c0.02-0.06 0.06-0.12 0.1-0.2c0.63-1.44 1.73-4.14 2.09-5.67c0.45-1.89 0.49-2.66 0.63-4.63 C578.66 71.04 577.75 68.22 575.6 64.56z"/></g></g><path fill="#3F1D16" d="M567.49 79.09c0 0-4.65-13.98 2.62-24.52l-0.71-1.73c0 0-0.61-1.44-0.77-2.76 c-3.01 3.58-5.16 6.54-5.16 6.54c0.67 1.22 1.1 3.17 1.06 4.43c-0.08 2.13-0.69 4.16-1.56 7.09c-0.47 1.61-1.73 5.3-1.3 8.53 c0.14 1.08 0.49 5.18 3.96 8.07c-3.23-9.16-1.99-11.84-1.6-14.61c0.47-3.33 0.91-4.53 1.12-7.15c0.04-0.47 0.1-0.97 0.18-1.48 C565.88 66.02 563.33 70.09 567.49 79.09z"/></g><path fill="#DD835B" d="M615.17 103.89c-0.1-0.26-0.59-0.91-0.75-1.16c-0.53-0.83-0.97-1.1-1.73-2.13 c-0.53-0.71-1.36-1.65-1.54-1.91c-0.93-1.56-1.28-2.07-2.17-2.64c-0.75-0.47-1.1-1.06-1.24-1.83c-0.18-0.93 0.75-1.67 1.56-2.32 c0.18-0.14 0.35-0.3 0.51-0.43c0.14 0.06 0.24 0.04 0.33 0c0.39 0.08 0.79 0.22 1.18 0.35c0.45 0.16 0.93 0.32 1.44 0.41 c0.63 0.12 1.26 0.18 1.87 0.24c0.57 0.06 1.16 0.12 1.75 0.22l0.37 0.06v-0.02c0.91 0.14 1.91 0.53 2.68 0.83 c0.3 0.12 0.55 0.22 0.75 0.28c0.81 0.26 1.34 0.57 2.01 0.97c1.3 0.79 1.73 1.12 2.26 1.54c0.28 0.22 0.59 0.45 1.04 0.77 c0.57 0.39 1.12 1.04 1.08 1.48c-0.2 0.26-0.39 0.33-0.59 0.39c-0.75-0.67-1.5-1.32-2.3-1.85c-0.1-0.06-0.22-0.16-0.37-0.26 c-0.49-0.33-1.32-0.69-1.67-0.83l-0.06 0.14c0.32 0.14 1.06 0.69 1.5 1.02c0.16 0.1 0.28 0.2 0.37 0.26 c0.91 0.61 1.77 1.4 2.62 2.15c0.41 0.37 0.89 0.85 1.08 1.42c0.12 0.35 0.04 0.43-0.22 0.67c-0.02 0.02-0.04 0.04-0.06 0.06 c-0.14-0.26-0.33-0.47-0.55-0.69l-0.3-0.32c-0.81-0.87-1.71-1.83-2.74-2.46c-0.59-0.35-1.73-0.89-2.4-0.87 c0.71 0.1 1.65 0.87 2.21 1.26c0.93 0.67 1.69 1.44 2.52 2.34l0.37 0.39c0.35 0.37 0.65 0.59 0.65 1.08c0 0.28-0.04 0.45-0.22 0.55 c-0.16 0.08-0.35 0.06-0.59-0.06c-0.41-0.69-1.24-1.44-2.01-2.11c-0.28-0.26-0.55-0.49-0.77-0.69c-0.67-0.65-1.85-1.22-2.84-1.34 c1.14 0.35 1.93 1 2.56 1.61c0.22 0.22 0.49 0.45 0.77 0.71c1 0.89 2.36 2.09 2.11 2.82c-0.1 0.3-0.24 0.47-0.39 0.53 c-0.18 0.08-0.43 0.04-0.81-0.1c-0.53-0.2-0.79-0.75-1.22-1.26c-0.33-0.41-0.81-0.77-1.22-1.06c-0.69-0.45-1.26-0.81-2.03-1.1 c-0.59-0.24-1.73-0.49-2.36-0.33c-0.41 0.1-0.71 0.37-0.89 0.75c-0.3 0.67 0.1 1.06 0.32 1.48c0.1 0.18 0.2 0.35 0.3 0.55 c0.47 0.81 0.95 1.65 0.61 2.54c-0.12 0.33-0.22 0.3-0.47 0.39c-0.3 0.1-0.3 0.14-0.61 0.04 C616.16 106.13 615.55 104.78 615.17 103.89z"/><path fill="#AF6246" d="M622.6 102.29c-0.81-0.77-1.67-1.46-2.66-1.95c-0.35-0.18-0.71-0.33-1.08-0.47 c-0.45-0.16-0.83-0.1-1.32-0.14c-0.41-0.02-0.81-0.18-1.2 0.04c-0.47 0.28-0.71 1.28-0.49 1.83c0.22 0.49 0-0.02 0 0 c0.08 0.14-0.06-0.16 0 0c0.08 0.39 0.33 0.81 0.57 1.18c0.45 0.75 0.83 1.18 1.18 1.65c0.26 0.33 0.59 1.04 0.41 1.48 c-0.14 0.3-0.98 0.33-1.24 0.37c1 0.51 1.73-0.63 1.4-1.65c-0.33-1.08-2.88-3.25-0.3-3.98c0.3-0.08 0.65-0.06 1.02 0l0 0 c0.08 0.02 0.18 0.04 0.26 0.06c0.06 0.02 0.14 0.04 0.22 0.06c0.06 0.02 0.12 0.04 0.2 0.06c0.02 0 0.06 0.02 0.1 0.02 c0.33 0.12 0.65 0.28 0.93 0.39c0.97 0.47 1.85 1.06 2.74 1.79c-0.02-0.04-0.06-0.08-0.08-0.14c0.1 0.08 0.2 0.16 0.3 0.24 C623.34 102.89 622.85 102.55 622.6 102.29z"/><path fill="#AF6246" d="M610.84 91.78c0.02 0.89-0.2 1.71-0.32 2.6c-0.12 0.87-0.22 1.32 0.1 2.13c0.49 1.22 1.2 2.36 2.11 3.33 c0.51 0.55 1.1 1.12 1.5 1.73c0.53 0.83 0.91 1.73 1.34 2.6c0.3 0.61 0.55 1.02 1.04 1.5c0.14 0.14 0.32 0.37 0.49 0.47 c0.16 0.08 0.28 0.1 0.63 0.04c-0.73 0.83-1.48-0.22-1.81-0.73c-0.26-0.37-0.63-1.12-0.77-1.54c-0.14-0.43-0.39-0.59-0.65-0.98 c-0.63-0.97-1.42-1.71-2.13-2.62c-0.77-0.97-1.46-2.05-2.21-3.03c-0.22-0.3-0.75-0.59-0.91-0.93c-0.1-0.24-0.06-0.32 0-0.61 c0.33-1.52 0.81-2.78 1.67-4.04"/><path fill="#88171A" d="M608.46 88.27c-4.21-1.4-7.94-2.62-12.09-4.57c-2.48-1.16-4.79-2.64-7.09-4.12l0 0 c-0.45-0.32-1.63-0.83-2.11-0.87c-0.14 0-0.3 0-0.43 0c-0.73-0.35-1.58-0.57-2.28-0.69c-0.63-0.12-1.52-0.39-2.3-0.49l0 0 c-1.95-0.61-3.94-1.16-5.99-1.5c-4.57-0.77-9.32-1.22-13.87-1.56c-4.61-0.35-7.23-0.55-10.28 2.95c-0.28 0.32-0.57 0.61-0.87 0.93 c-2.26 5.26 3.21 9.89 7.5 10.12c2.15 0.12 4.63-0.3 6.79-0.3c1.44 0 4.75 0.53 6.11 0.06c0.71-0.26 1.32 0.14 2.09 0.04 c2.88-0.53 5.91 0.08 8.88 0.33c0.35 0.14 0.93 0.1 1.44 0.04c0.28 0.47 0.61 0.95 1.02 1.02l-0.02 0.04 c4.61 1.6 8.13 3.19 12.11 5.75c2.46 1.58 5.32 1.87 8.09 2.32c0.61 0.1 3.13 0.89 3.45 0.71c0.69-0.39 0.61-3.11 0.98-4.16 C610.94 90.77 613.04 89.81 608.46 88.27z"/><g><path fill="#690C0F" d="M556.72 88.11c-0.04-0.02-0.1-0.02-0.16-0.04C556.6 88.07 556.66 88.09 556.72 88.11z"/><path fill="#690C0F" d="M558.04 88.27c-0.63-0.04-1.08-0.1-1.32-0.14C557.27 88.27 557.7 88.31 558.04 88.27z"/><path fill="#690C0F" d="M609.16 96.33c-0.37 0.37-0.73 0.65-1.22 0.81c-0.08-0.04-0.14-0.1-0.22-0.16 c-2.01 0.55-3.6-0.53-5.69-0.77c-1.28-0.16-2.01-0.33-3.05-1.2c-0.77-0.65-1.24-1.44-2.17-1.65c-0.32-0.22-0.59-0.2-1.02-0.2 c-0.49 0.02-0.71-0.18-1.08-0.59c-0.33-0.35-0.59-0.81-0.71-1.3c-0.12-0.53-0.04-1.06-0.65-1.26c-0.47-0.16-0.71 0.16-1.12 0.22 c-0.39 0.06-1 0-1.32-0.2c-0.35-0.22-0.75-0.69-0.83-1.08c-0.08-0.49 0.18-0.67 0.47-1.02c-0.04-0.08-0.16-0.2-0.24-0.24 c-0.3 0.2-0.93 0.2-1.3 0.28c-0.61 0.14-1.18 0.39-1.77 0.59c-0.55 0.18-3.35-1.26-4.08-1.36c0.06 0.02 0.18 0.33 0.37 0.73 c-1.06 0.06-2.25 0.06-3.41-0.14c-1.54-0.28-17.37-1.4-18.93-1.1c-1.69 0.33-2.07 1.36-3.19 1.54c3.62 0.3 12.74 0.63 13.94 0.24 c0.57-0.2 0 0 0.61-0.08c0.85-0.28 3.15 0.41 3.86 0.43c1.52 0.02 5.16 0.65 7.92 0.3c0.32 0.33 0.69 0.63 1.18 0.81 c7.88 2.76 12.49 6.5 14.87 6.97c1.48 0.3 2.52 0.3 3.96 0.75c1.06 0.33 2.6 0.73 3.7 0.85C609.36 98.67 608.69 97.31 609.16 96.33 C609.16 96.35 609.18 96.35 609.16 96.33C609.14 96.33 609.14 96.33 609.16 96.33z"/></g><g><path fill="#88171A" d="M537.12 74.74c-0.08 0-0.18 0-0.28 0c-5.89 0.08-7.42 1.4-10.52 3.68c-2.9 2.15-5.85 4.18-8.71 6.52 c-4.96 4.06-5.18 2.95-9.2 6.56l0.06 0.12c0 0-3.66 2.91 1.34 7.35c0 0-2.9 5.65 0.65 2.54l1.67 1.1c1.99-1.5 12.19-7.13 13-7.98 c2.62-2.84 7.64-4.65 10.36-7.39c2.36-2.36 5.06-5.2 4.73-8.74C540.06 76.51 538.6 75.69 537.12 74.74z"/><g><path fill="#690C0F" d="M516.5 85.77c-1.73 1.38-6.36 3.98-8.39 5.99l-0.87 1.56c3.05-1.12 5.63-2.36 7.86-4.08 c2.09-1.6 7.94-7.29 10.06-9.67C523.91 80.93 522.82 80.75 516.5 85.77z"/><g><path fill="#501916" d="M524.91 94.87C524.85 94.97 524.83 95.07 524.91 94.87L524.91 94.87z"/><path fill="#690C0F" d="M534.56 88.13c0.35-0.65-0.28-4.49-4.31-2.99c-0.37 1.71-1.83 3.19-2.9 4.53 c-0.65 0.85-1.48 1.5-2.09 2.36c-0.67 0.16-1.42 0.16-2.05-0.18c-0.98 1.04-1.93 2.46-3.03 3.41c-1.2 1.04-2.76 1.06-3.82 2.05 c-4.2 3.86-11.6 4.47-11.27 5.08l1.3 1.3c3.96 1.26 12.29-4.73 13.96-5.91c1.5-1.04 3.31-2.17 4.41-2.84l0.12-0.08 c0.06 0.02 0.32-0.18 0.32-0.2c0.08-0.2 0.37-0.33 0.43-0.51c0.43-0.32 0.61-0.49 1.08-0.97L534.56 88.13z"/></g></g></g><path fill="#684228" d="M538.79 97.86c-0.63 0-1.24-0.1-1.83-0.33l0.16-0.41c1.95 0.79 4.41-0.16 6.38-0.91l0.39-0.14 c-0.08-0.98-0.16-2.13-0.1-3.25c0.02-0.51 0.12-1.06 0.22-1.6c0.14-0.73 0.28-1.5 0.22-2.15l0.45-0.04c0.06 0.71-0.08 1.5-0.22 2.26 c-0.1 0.55-0.2 1.06-0.22 1.54c-0.06 1.18 0.02 2.36 0.12 3.37v0.16l-0.69 0.28C542.2 97.17 540.45 97.86 538.79 97.86z"/><g><line fill="none" x1="535.07" y1="92.13" x2="534.93" y2="91.84"/><path fill="#88171A" d="M562.17 117.7c-0.57-2.84 0.1-4.86 0.24-7.78c0.12-2.4 0.47-5.65 0.3-8.51c-0.1-0.02-0.2-0.08-0.3-0.18 c-0.22 0.04-0.43 0-0.61-0.16c-0.95-0.95-1.18-2.05-1.16-3.37c0.02-2.19-0.49-4.16-1.08-6.24c-0.75-2.62-1.1-5.16-0.97-7.9 c0.18-3.27 3.8-5.97 6.48-8c-0.08-0.02-3.11-1.65-3.21-1.67c-2.91-0.59-6.01-2.19-8.92-2.13h-8.35c-3.17 0.35-4.55 0.35-7.64 1.02 c-1.5 0.32-2.13 1.67-3.33 1.95c0.83 2.36 0.79 4.88 1.04 7.25c0.2 1.67 0.85 3.58 1.18 5.4c-0.61 0.77-1.38 1.5-2.34 1.56 l1.38 2.91l0.14 0.3c-0.51 2.95-1.89 9.39-4.16 11.11c-0.04 3.03-0.1 6.09 0.16 7.41c0.67 3.39 0.2 5.1-0.71 8.31 c-0.41 1.44-0.53 7.41 0.04 8.78c0.67 1.6 5.67 1.38 7.41 1.44c5.24 0.2 11.36 0.53 16.54-0.26c1.83-0.28 7.7-1.73 8.88-3.15 C564.83 123.86 562.63 119.88 562.17 117.7z"/></g><path fill="#B29766" d="M547.95 84.71c0.08-2.8-9.16-11.15-5.24-12.82c-0.18 0.04-0.32 0.08-0.45 0.16 c0.04-0.04 0.06-0.06 0.06-0.06c-1.81 0.18-3.53 0.37-4.71 0.53c-0.63 0.28-1.32 0.45-1.85 0.65c-0.97 0.39-1.95 0.75-2.93 1.08 c-0.61 0.41-1.04 0.81-2.09 1.44c0 0 1.34 9.06 1.24 13.49c-0.04 2.34-0.33 6.32-1.16 8.53c0.1-0.28 0.16-0.37 0.18 1.34 c0.1 6.22-0.26 9.12-0.33 13.94c-0.1 5.49-1.52 9.49-0.89 14.42c2.03 1.99 5.34 1.46 8.29 1.46c2.19 0 7.86-0.43 9.18 1.18 c0.35-0.69 0.39-1.5 0.35-2.32c1.24 4.92 12.25 0.18 16.11-0.3c0.43-3.92-0.57-9.22-0.91-14.38c-0.39-6.09 0.41-8.63 0-13.35 c-0.39-4.69-0.53-17.96 1.34-24.99c-1.77-1.48-1.77-1.48-4.94-2.28c-1.56-0.55-4.31-0.57-5.71-0.65c0.02 0.06 0.06 0.14 0.08 0.2 c-0.1-0.04-0.18-0.08-0.3-0.1l-0.45-0.14c3.6 1.54-3.76 10.34-4.75 12.8L547.95 84.71z"/><path d="M555.02 89.79c-0.16 0.24-0.41 0.41-0.63 0.41c-0.47 0-0.77-0.39-0.77-0.77c0-0.3 0.12-0.55 0.37-0.75 c0.22-0.16 0.45-0.22 0.59-0.22l0 0c0.1 0 0.26 0.04 0.33 0.1c0.04 0.02 0.04 0.06 0.04 0.1c0 0.08-0.08 0.18-0.14 0.18 c-0.02 0-0.04 0-0.06-0.04c-0.14-0.12-0.28-0.18-0.41-0.18c-0.2 0-0.41 0.18-0.43 0.61c0 0.55 0.37 0.71 0.57 0.71 c0.16 0 0.28-0.04 0.45-0.22L555.02 89.79z M556.26 88c0.12 0 0.2-0.1 0.2-0.2c0-0.12-0.08-0.2-0.2-0.2l0 0c-0.1 0-0.2 0.08-0.2 0.2 C556.05 87.9 556.15 88 556.26 88z M553.92 88.59v-0.08h-0.69v0.08c0.22 0.02 0.24 0.06 0.2 0.24s-0.24 0.67-0.35 0.91l-0.35-0.95 c-0.06-0.16-0.02-0.18 0.16-0.22v-0.08h-0.71c0.04-0.14 0.08-0.28 0.12-0.33c0.12-0.32 0.16-0.37 0.39-0.39v-0.08h-0.83v0.08 c0.28 0.02 0.32 0.08 0.28 0.32c-0.06 0.28-0.28 1.02-0.43 1.52l0 0c-0.22-0.63-0.45-1.26-0.65-1.87h-0.1 c-0.2 0.61-0.41 1.24-0.61 1.89l0 0c-0.16-0.53-0.32-1.06-0.47-1.56c-0.06-0.22 0-0.26 0.26-0.28V87.7h-0.93v0.08 c0.22 0.02 0.28 0.08 0.35 0.37c0.2 0.69 0.41 1.36 0.61 2.05h0.1c0.2-0.61 0.41-1.22 0.61-1.87l0 0c0.18 0.47 0.45 1.26 0.65 1.87 h0.1c0.22-0.71 0.37-1.24 0.51-1.61c0.18 0.02 0.22 0.08 0.3 0.28c0.1 0.26 0.3 0.73 0.43 1.16c0.02 0.06 0.02 0.1 0 0.16 c-0.02 0.04-0.06 0.14-0.12 0.28c-0.08 0.14-0.14 0.24-0.28 0.3c-0.06 0.02-0.1 0.06-0.12 0.12c-0.02 0.08 0.08 0.2 0.18 0.22 c0.04 0 0.1 0 0.14-0.06c0.08-0.2 0.16-0.45 0.43-1.04c0.28-0.59 0.39-0.93 0.51-1.14C553.7 88.65 553.74 88.61 553.92 88.59z M560.2 88.43L560.2 88.43L560.2 88.43L560.2 88.43c-0.06 0.02-0.08 0-0.08-0.02s-0.02-0.06-0.04-0.06c0 0 0 0-0.02 0h-0.02v0.06 c0 0.02 0 0.04 0.04 0.04v0.02h-0.12v-0.04c0.04 0 0.04 0 0.04-0.04v-0.16c0-0.04 0-0.04-0.04-0.04v-0.02h0.12 c0.04 0 0.1 0 0.1 0.06c0 0.02-0.02 0.06-0.06 0.06c0 0 0.02 0.04 0.04 0.06C560.16 88.39 560.16 88.41 560.2 88.43 C560.18 88.43 560.18 88.43 560.2 88.43z M560.1 88.25c0-0.04-0.02-0.06-0.04-0.06s-0.02 0-0.02 0.02v0.1h0.02h0.02 C560.1 88.29 560.1 88.27 560.1 88.25z M560.3 88.31c0 0.14-0.1 0.24-0.24 0.24s-0.24-0.1-0.24-0.24s0.1-0.24 0.24-0.24 S560.3 88.17 560.3 88.31z M560.26 88.31c0-0.12-0.08-0.22-0.2-0.22s-0.2 0.1-0.2 0.22s0.08 0.22 0.2 0.22 C560.16 88.53 560.26 88.43 560.26 88.31z M558.53 90.06v0.08h-2.74h-0.83v-0.08c0.24-0.02 0.26-0.06 0.26-0.32v-1.81 c0-0.26-0.02-0.28-0.26-0.3v-0.06c0.18-0.02 0.43-0.08 0.57-0.14v2.32c0 0.24 0.02 0.3 0.26 0.32c0.02 0 0.04 0 0.04 0 c0.24-0.02 0.26-0.06 0.26-0.32v-0.79c0-0.24-0.02-0.26-0.24-0.3v-0.06c0.18-0.02 0.35-0.08 0.53-0.14v1.3 c0 0.26 0.02 0.3 0.26 0.32c0.02 0 0.04 0 0.08 0c0.2-0.02 0.24-0.06 0.24-0.32v-1.12h-0.26l0.02-0.04l0.1-0.1h0.18 c0-0.24 0.06-0.59 0.32-0.81c0.22-0.2 0.41-0.26 0.47-0.26c0.06 0 0.18 0.02 0.18 0.14c0 0.08-0.04 0.14-0.14 0.14 c-0.12 0-0.12-0.04-0.24-0.04c-0.24 0-0.26 0.26-0.26 0.41c0 0.12 0 0.43 0 0.43h0.41h0.02h0.14c0-0.24 0.06-0.59 0.32-0.81 c0.22-0.2 0.41-0.26 0.47-0.26c0.06 0 0.18 0.02 0.18 0.14c0 0.08-0.04 0.14-0.14 0.14c-0.12 0-0.12-0.04-0.24-0.04 c-0.24 0-0.26 0.26-0.26 0.41c0 0.1 0 0.43 0 0.43h0.45c0.02 0.04 0 0.12-0.04 0.16h-0.39v1.12C558.19 90 558.23 90.04 558.53 90.06 z M557.9 88.65h-0.2h-0.08h-0.33v1.12c0 0.24 0.08 0.32 0.3 0.32c0.24 0 0.3-0.06 0.3-0.32L557.9 88.65L557.9 88.65z M559.95 89.02 c0 0.08-0.02 0.1-0.08 0.12c-0.06 0-0.53 0.04-0.98 0.06c0 0.55 0.32 0.75 0.59 0.75c0.14 0 0.28-0.04 0.41-0.18l0.04 0.06 c-0.22 0.3-0.49 0.37-0.59 0.37c-0.47 0-0.75-0.37-0.75-0.79c0-0.24 0.08-0.49 0.26-0.67c0.16-0.16 0.37-0.28 0.55-0.28l0 0 C559.69 88.45 559.95 88.72 559.95 89.02z M559.61 88.98c0-0.2-0.12-0.39-0.33-0.39l0 0c-0.16 0-0.33 0.18-0.37 0.47 c0.22 0 0.43 0 0.63 0C559.59 89.04 559.61 89.02 559.61 88.98z"/><path fill="#684228" d="M563.39 118.01c-0.14-1.89-0.65-8.72-0.41-10.93c0.22-1.89 0.04-4.06-0.12-6.14c-0.04-1.16 0-1.83 0.06-2.36 c-0.04-0.12-0.1-0.22-0.14-0.33c-0.24 0.39-0.49 0.77-0.75 1.16c-0.02 0.18-0.04 0.37-0.08 0.57c0.02 1.12 0.06 2.21 0.18 3.23 c0.28 2.38-1.18 5.46-0.85 9.26c-1.06-1.63-2.17-3.21-3.03-4.98c-0.61-1.26-1.26-2.48-1.77-3.8c-0.37-0.98-0.51-1.95-0.79-2.9 c-0.53 1.32 0.47 4.51 0.83 5.79c0.91 3.15 2.86 5.87 4.61 8.53c0.61 0.91 2.03 4.06 2.36 4.9 C563.47 119.61 563.53 118.62 563.39 118.01z"/><path fill="#684228" d="M538.81 100.68c0.33 0.39 0.33 1.34 0.39 1.83c0.06 0.59 0.04 1.2 0.04 1.81c0 1.28-0.22 2.26-0.59 3.47 c-0.14 0.45-1.18 3.43-0.35 3.58c0.06-0.57 0.39-1.2 0.65-1.71c0.35-0.67 0.81-1.28 1.2-1.93c0.43-0.69 0.41-1.58 0.41-2.38 c0-1.38 0.08-2.95-0.59-4.18C539.82 100.92 539.01 100.15 538.81 100.68"/><path fill="#684228" d="M553.37 71.75c-0.12-0.08-0.59 0.06-0.75 0c0.39 0.18 0.83 0.63 0.97 1.02c0.57 1.83-1.95 5.73-3.8 8.57 c-0.98 1.5-1.61 2.5-1.85 3.13c-1.42-1.42-3.6-3.35-5.16-3.35c-0.37 0-0.75 0.08-1.1 0.26c-0.04-0.65-0.2-1.5-0.35-2.44 c-0.14-0.79-0.3-1.63-0.39-2.44c1.02 0.61 1.06 1.46 2.21 1.87c0.59 0.22 0.63 0.39 1.2 0.14c0 0-0.51-0.89-0.98-1.54 c-0.43-0.59-0.69-1.14-1-1.77c-0.51-1.06-0.73-2.01 0-3.05l0.26-0.16c0 0 0 0-0.02 0c0.06-0.02 0.45-0.02 0.49-0.06 c-0.1 0.02-0.53 0.02-0.61 0.06c-0.65-0.02-1.3 0.08-1.97 0.16c-0.73 0.08-1.81 0.28-2.56 0.33c-0.08 0-0.16 0.02-0.24 0.02 c-0.91 0.24-1.38 0.47-1.91 0.69c-0.95 0.37-1.89 0.73-2.86 1.06c-0.26 0.16-0.49 0.33-0.71 0.47c0.71-0.26 1.79-0.32 2.44-0.1 s0.41 0.89 0.89 1.22c0.39 0.28 1.1 0.08 1.56 0c1.12-0.26 2.01-0.18 2.97 0.24c0 0.97 0.14 2.01 0.32 2.97c0.2 1.06 0 3.25 0 3.92 c2.17-1.99 5.59 0 7.37 1.85c0 0.08 0 0.16 0 0.26c0 0-0.16 1.52-0.12 4.04c0 0.51-0.04 0.81 0 1.36c0.1 1.08 0 2.07 0.08 3.27 c0.08 1.18 0.02 2.5 0.04 3.86c0 1.34 0 2.74 0 4.16c-0.02 0.71-0.02 1.42-0.04 2.13l-0.02 1.06c0 0.35-0.04 0.71-0.08 1.06 c-0.04 0.71-0.1 1.42-0.16 2.13c-0.06 0.71-0.12 1.44-0.18 2.15c-0.08 1.44-0.06 2.86-0.04 4.19s0.06 2.66 0.08 3.88 c0.02 1.22 0 2.38-0.04 3.47c-0.04 1.08-0.1 2.07-0.1 2.95c-0.02 0.89 0.04 1.65 0.06 2.28c0 0.32 0.06 0.59 0.08 0.85 c0.04 0.24 0.06 0.45 0.1 0.61c0.04 0.33 0.08 0.51 0.08 0.51s0.08-0.69 0.06-1.04c0-0.33-0.06-0.63-0.04-1.26 c0.02-0.63-0.1-1.06-0.02-1.93c0.04-0.87 0.2-1.85 0.28-2.93c0.1-1.08-0.02-2.13 0-3.37c0.02-1.24 0-2.76 0-4.1s0.02-2.6 0.08-4 c0.06-0.69 0.12-1.4 0.18-2.13c0.06-0.71 0.12-1.44 0.18-2.17c0.02-0.35 0.06-0.73 0.06-1.08l0.02-1.08c0-0.71 0.06-1.5 0.08-2.21 c-0.02-1.42-0.02-2.78-0.06-4.12c-0.04-1.34 0.14-2.68 0-3.94c-0.14-1.24-0.08-2.44-0.24-3.51c-0.08-2.34-0.02-4.35 0-4.92 l0.02-0.02l0 0v-0.02l0.39-0.43c1.61-1.83 3.72-3.01 6.07-2.15l0.02-1.1c0-0.67 0.12-1.89 0.32-2.95 C555.52 75.61 556.05 72.36 553.37 71.75z M554.39 78.94c-0.18 0.98-0.33 1.83-0.37 2.5c-2.26-0.65-4.14 1.22-5.59 2.86 c0.37-0.67 1.26-2.11 1.77-2.97c2.11-3.66 4.43-6.66 3.82-8.69c-0.02-0.1-0.06-0.2-0.12-0.3C555.63 72.97 554.87 76.4 554.39 78.94z "/><path fill="#3D160D" d="M548.46 87.07c0 0.28-0.22 0.51-0.51 0.51l0 0c-0.28 0-0.51-0.22-0.51-0.51v-1.65 c0-0.28 0.22-0.51 0.51-0.51l0 0c0.28 0 0.51 0.22 0.51 0.51V87.07z"/><path fill="#684228" d="M544.09 94.93c-0.02-0.12-0.02-0.24-0.04-0.35c-0.02-0.26 0-0.51 0-0.77v-0.41c0-0.14 0-0.26 0-0.41 l-0.02-0.79c-0.02-0.28 0-0.53 0.02-0.79l0.02-0.39l0.04-0.41l0.06-0.39c0-0.14 0.04-0.26 0.08-0.39c0.06-0.24 0.12-0.49 0.18-0.73 c0.16-0.04 0.24-0.06 0.24-0.06s-0.14-0.06-0.37-0.16c-0.24-0.08-0.61-0.24-1.04-0.32c-0.22-0.04-0.45-0.1-0.69-0.14 s-0.49-0.08-0.73-0.12c-0.12-0.02-0.26-0.02-0.39-0.04c-0.14-0.02-0.28-0.04-0.41-0.06s-0.28-0.04-0.43-0.06l-0.22-0.02h-0.04h-0.02 l-0.1-0.02c-0.24-0.04-0.51-0.12-0.79-0.18s-0.59-0.12-0.91-0.14c-0.16 0-0.33 0-0.49 0c-0.06 0-0.12 0.02-0.2 0.02 s-0.14 0.02-0.22 0.04c-0.32 0.08-0.57 0.22-0.75 0.33c-0.2 0.12-0.33 0.22-0.47 0.3c-0.06 0.02-0.12 0.04-0.2 0.08 c-0.06 0.02-0.12 0.02-0.18 0.04c-0.12 0.02-0.24 0-0.3 0s-0.1 0-0.1 0s0.02 0.02 0.08 0.06c0.06 0.04 0.12 0.12 0.26 0.18 c0.06 0.02 0.14 0.06 0.24 0.08c0.08 0 0.18 0.02 0.3 0.02c0.2 0 0.43-0.04 0.63-0.08c0.22-0.04 0.41-0.06 0.59-0.06h0.02l0 0 c0 0 0.02 0-0.02 0l0 0l0 0h0.04h0.1c0.06 0 0.12 0 0.2 0.02c0.1 0.02 0.18 0.04 0.3 0.06c0.43 0.1 0.95 0.32 1.58 0.47l0.14 0.02 h0.02h0.06h0.04l0.22 0.02c0.14 0.02 0.28 0.02 0.43 0.04c0.28 0.02 0.57 0.02 0.85 0c0.28 0 0.57-0.02 0.81-0.06 c0.24-0.02 0.47-0.06 0.69-0.1c0.43-0.08 0.77-0.12 1.04-0.18c0.06 0 0.1-0.02 0.16-0.02c-0.12 0.22-0.24 0.43-0.33 0.65 c-0.06 0.12-0.12 0.24-0.16 0.37l-0.14 0.39l-0.14 0.39c-0.02 0.14-0.04 0.28-0.08 0.41c-0.04 0.28-0.12 0.55-0.12 0.83l-0.06 0.83 c0 0.12-0.02 0.28-0.02 0.39l-0.04 0.39c-0.02 0.28-0.04 0.55-0.04 0.83c0 0.14 0 0.3 0.02 0.45c0 0.02 0 0.06 0.02 0.08l-0.26 0.1 c-0.18 0.04-0.37 0.12-0.57 0.16l-0.59 0.1l-0.59 0.08c-0.41 0.02-0.81 0.04-1.22 0.06l-1.26 0.04c-0.22 0-0.45 0.02-0.63 0.04 c-0.2 0.02-0.41 0.02-0.59 0.02s-0.39-0.02-0.55-0.06c-0.08-0.02-0.16-0.04-0.22-0.08c-0.04 0-0.04-0.04-0.08-0.06l0 0l0 0l0 0 c-0.02-0.02 0.02 0.02 0.02 0.02v-0.02l-0.02-0.02c0-0.02-0.04-0.04-0.04-0.06c-0.02-0.04-0.04-0.12-0.06-0.2 c-0.02-0.08-0.02-0.18-0.02-0.28c0-0.2 0-0.41 0-0.61c0-0.41 0.04-0.87-0.12-1.28c0.02 0.22 0 0.41-0.04 0.61 c-0.04 0.2-0.08 0.41-0.14 0.61c-0.04 0.2-0.1 0.41-0.12 0.63c-0.02 0.24-0.06 0.45 0.06 0.75c0 0.02 0.02 0.04 0.04 0.08l0.02 0.04 v0.02l0.02 0.02l0 0v-0.02c0.04 0.06 0.1 0.12 0.16 0.16c0.1 0.1 0.24 0.16 0.35 0.2c0.24 0.1 0.47 0.12 0.69 0.16 c0.22 0.02 0.45 0.02 0.67 0.02h0.63l1.26 0.04c0.43 0 0.87 0 1.3-0.04l0.65-0.06c0.22-0.04 0.43-0.08 0.65-0.14 c0.22-0.06 0.43-0.14 0.65-0.2c0.22-0.08 0.43-0.2 0.63-0.3l0.28-0.14l-0.08-0.37C544.15 95.13 544.11 95.05 544.09 94.93z"/><path fill="#684228" d="M541.51 128.47c-0.73-0.12-1.54-0.08-2.28-0.12c-0.59-0.02-1.22-0.04-1.77-0.3 c-0.63-0.28-1.1-0.49-1.79-0.63c-1-0.22-2.42-0.22-3.19-0.98c-0.28-0.28-0.41-0.63-0.47-1c-0.06-1.81-0.37-3.96-0.35-4.47 c0-0.32 0.06-0.63 0.12-0.95c0.3 0 0.69 0 1.14-0.08c0.51-0.08 1.08-0.18 1.65-0.32c0.14-0.02 0.3-0.06 0.43-0.1 c0.16-0.02 0.32-0.06 0.47-0.08c0.16-0.02 0.32-0.06 0.49-0.1l0.24-0.06h0.06h-0.02l0 0l0.12-0.02c0.3-0.06 0.61-0.08 0.93-0.12 c0.33-0.04 0.67-0.1 1-0.2c0.16-0.04 0.35-0.12 0.51-0.18c0.08-0.04 0.14-0.06 0.2-0.1c0.08-0.04 0.14-0.08 0.22-0.12 c0.3-0.18 0.53-0.41 0.69-0.59c0.18-0.2 0.3-0.35 0.43-0.49c0.06-0.06 0.14-0.1 0.2-0.16c0.06-0.04 0.12-0.08 0.18-0.1 c0.12-0.08 0.24-0.08 0.32-0.12c0.08-0.02 0.12-0.04 0.12-0.04s-0.04 0-0.12-0.04c-0.08 0-0.18-0.08-0.35-0.06 c-0.08 0-0.18 0-0.28 0c-0.1 0.02-0.2 0.04-0.32 0.08c-0.22 0.08-0.45 0.2-0.65 0.32c-0.22 0.12-0.43 0.22-0.63 0.3 c-0.08 0-0.26 0.08-0.39 0.1c-0.12 0-0.24 0.04-0.37 0.06c-0.53 0.06-1.18 0.06-1.89 0.16l-0.14 0.02h-0.06h-0.02l-0.06 0.02 l-0.24 0.06c-0.16 0.04-0.32 0.08-0.47 0.12c-0.32 0.08-0.61 0.2-0.93 0.32c-0.61 0.24-1.14 0.49-1.58 0.71 c-0.32 0.18-0.59 0.3-0.81 0.43c0.53-2.05 1.87-3.84 1.85-6.01c-0.02-1.71-0.75-3.03-0.73-4.75c0-1.2-0.02-2.42-0.12-3.62l0 0 c0.16-1.26 1.04-1.63 2.01-0.87c0.57 0.45 1.3 1.42 2.11 2.07c0.12-2.07-1.04-2.99-2.42-4.14c-0.59-0.49-1.14-1.06-1.65-1.65 c-0.67-0.77-0.59-2.17-0.73-3.15c0-0.08 0-0.14 0-0.22c0-0.02-0.02-0.02-0.02-0.04c-0.02-0.06-0.04-0.12-0.08-0.18 c0-0.02-0.02-0.06-0.04-0.06c-0.18-0.28-0.53-0.59-0.71-0.87c-0.22 0.53-0.2 1.04-0.43 1.56c-0.04 0.73-0.02 1.46 0.02 2.32 c0.02 0.33 0.02 0.67 0.02 1.02c-0.1 1.44-0.2 2.88-0.08 4.25c0 0.06 0.02 0.16 0.06 0.24c-0.1 3.01-0.32 6.05-0.32 9.06 c0 3.07-0.98 6.09-0.98 9.16c0 0.81-0.35 2.52 0.02 3.43c0.06 0.12 0.26 0.32 0.45 0.47c0.32 0.55 1.32 0.81 1.93 0.97 c2.25 0.57 3.01 0.33 5.2 0.35c0.79 0 2.21-0.12 2.99-0.12c0.67 0 1.34 0 2.01 0C541.95 128.76 541.89 128.53 541.51 128.47z"/><path fill="#3D160D" d="M541.12 119.05c0.02 0.28-0.2 0.51-0.47 0.53l0 0c-0.28 0.02-0.51-0.2-0.53-0.47l-0.1-1.63 c-0.02-0.28 0.2-0.51 0.47-0.53l0 0c0.28-0.02 0.51 0.2 0.53 0.47L541.12 119.05z"/><path fill="#684228" d="M552.68 116.53c0 0 0.04 0 0.12-0.02c0.08 0 0.2-0.06 0.35-0.04c0.08 0 0.18 0 0.3 0.02 c0.1 0.02 0.2 0.06 0.32 0.1c0.22 0.08 0.45 0.22 0.67 0.35c0.1 0.06 0.22 0.12 0.33 0.18c0.06 0.02 0.1 0.06 0.16 0.06 c0.04 0.02 0.12 0.04 0.14 0.06c0.14 0.04 0.3 0.1 0.43 0.12c0.14 0.02 0.24 0.06 0.39 0.06c0.57 0.1 1.22 0.1 1.97 0.26l0.14 0.02 l0.16 0.04l0.24 0.06c0.16 0.04 0.33 0.1 0.49 0.14c0.32 0.08 0.63 0.22 0.95 0.35c0.63 0.26 1.16 0.53 1.61 0.79 s0.83 0.45 1.1 0.61c0.26 0.16 0.41 0.26 0.41 0.26s-0.18 0-0.49 0c-0.32-0.02-0.77-0.04-1.26-0.14c-0.51-0.1-1.12-0.24-1.71-0.37 c-0.14-0.04-0.3-0.08-0.45-0.12c-0.16-0.04-0.32-0.08-0.49-0.12c-0.16-0.04-0.33-0.08-0.49-0.12l-0.26-0.06l-0.06-0.02h-0.02h-0.02 l0 0c-0.02 0 0.04 0 0.02 0l0 0l-0.12-0.02c-0.3-0.06-0.63-0.1-0.97-0.18c-0.33-0.06-0.69-0.12-1.02-0.24 c-0.16-0.04-0.35-0.12-0.51-0.2c-0.16-0.08-0.28-0.14-0.41-0.22c-0.12-0.06-0.16-0.1-0.24-0.16c-0.06-0.04-0.14-0.1-0.2-0.16 c-0.12-0.1-0.22-0.22-0.3-0.32c-0.18-0.2-0.3-0.37-0.43-0.51c-0.06-0.06-0.14-0.1-0.2-0.18c-0.06-0.04-0.14-0.08-0.18-0.12 c-0.12-0.08-0.26-0.1-0.33-0.14C552.72 116.55 552.68 116.53 552.68 116.53z"/><path fill="#3D160D" d="M552.92 118.56c-0.04 0.28 0.12 0.55 0.41 0.59l0 0c0.28 0.04 0.55-0.12 0.59-0.41l0.3-1.61 c0.04-0.28-0.12-0.55-0.41-0.59l0 0c-0.28-0.04-0.55 0.12-0.59 0.41L552.92 118.56z"/><path fill="#DD835B" d="M572.71 35.31c0.06-0.73 0.08-1.44 0.02-2.01c-0.16-1.3 0.2-0.85-0.51-1.87c-0.77-1.1-1.22-2.26-2.03-3.33 c-2.23-2.95-4.63-5.65-7.8-7.48c-2.46-1.44-5-1.28-7.48-2.15c-1.34-0.47-2.03-1.12-3.56-1.18c-0.95 0-1.89 0.02-2.84 0.06 c-3.33 0.2-5.71 5.36-8.45 3.55c-12.58-8.35-13.51 5.2-14.63 13.12c-0.41 2.9-0.71 6.07-0.33 8.78c0.41 2.93 3.15 4.25 4.55 6.77 c1.56 2.8 3.72 6.46 5.89 8.76c3.68 3.98 7.46 7.48 12.86 7.72c3.23 0.16 5.93 0 12.39-5.99c0 0 1.91-1.75 2.93-2.91 c1.75-2.01 1.12-1.16 2.38-2.82c1.36-1.77 2.26-3.11 3.17-4.96c0.33-0.67 0.59-1.38 0.81-2.11c0.47 0.18 0.98 0.28 1.5 0.28 c2.9 0 2.64-2.54 3.37-6.24C575.7 37.24 574.54 35.51 572.71 35.31z"/><path fill="#DD835B" d="M543.82 62.45l-0.45 11.38c0 0 3.78 3.7 9.35 0.32l-0.49-12.45"/><path fill="#AF6246" d="M548.43 50.32c-0.14 0-0.3-0.02-0.47-0.06c-0.28-0.08-0.51-0.18-0.73-0.28s-0.43-0.18-0.69-0.26 c-0.12-0.02-0.3-0.02-0.47-0.02c-0.37 0-0.79 0.02-1.08-0.24c-0.33-0.3-0.51-0.63-0.51-1c-0.02-0.73 0.59-1.36 1.12-1.89 c0.2-0.2 0.37-0.39 0.49-0.53l0 0l0.08-0.1l0 0c0.18-0.26 0.3-0.49 0.39-0.79s0.26-1.93 0.28-2.19l0.43 0.45 c-0.02 0.32-0.06 1.18-0.26 2.11c-0.08 0.39-0.14 0.61-0.39 0.97c-0.14 0.24-0.3 0.51-0.55 0.75c-0.41 0.41-0.57 0.75-0.55 1.16 c0 0.06 0.22 0.57 0.55 0.57c0.35 0-0.16 0 0 0c0.24 0 0.47 0 0.67 0.04c0.32 0.08 0.57 0.18 0.81 0.3c0.2 0.08 0.39 0.18 0.61 0.24 c0.41 0.1 0.79-0.06 1.18-0.22c0.26-0.1 0.49-0.2 0.75-0.22c0.18-0.02 0.35-0.02 0.49-0.02c0 0-0.33 0.18 0 0 c0.61-0.33 1.06-1.08 0.18-1.87c-0.3-0.28-0.18-0.97-0.33-1.22l0 0c0.1 0.18 0.35 0.41 0.59 0.63c0.65 0.59 1.77 1.6 0.83 2.7 c-0.49 0.57-0.87 0.57-1.28 0.57c-0.12 0-0.26 0-0.41 0c-0.14 0-0.32 0.08-0.51 0.16C549.27 50.16 548.88 50.32 548.43 50.32z"/><path fill="#AF6246" d="M568.16 36.16c-0.16-2.19-1.83-4.12-2.95-5.97c-0.24-0.41-0.59-1.42-0.93-1.75 c-0.2-0.08-2.95-0.61-3.15-0.61c-1.12-0.55-1.63-0.75-3.01-0.33c-2.82-0.47-5.69 0.28-8.72-0.14c-3.13-0.43-8.96-2.09-10.02-5.57 l-5.4-1.24l-4.31 0.85l-2.5 2.88l-1.75 9.49c0 0-1.79 1.44-2.36 1.81c-1.77 1.18-1.99 3.78-1.52 5.73c0.89 3.66 0.47 6.24 3.31 6.24 c0.95 0 1.83-0.1 2.46-0.75l0.12 0.87l0.37 0.91c0.57 0.97 0.71 1.87 2.66 4.45c0.55 0.73 2.68 3.07 3.27 3.68 c1.91 1.97 5.32 5.38 6.95 6.66c1.24 0.98 2.26 1.63 3.01 2.03c-0.24 1.6-0.32 3.29-0.32 4.71c0 1.1-0.02 3.74-0.02 3.74 c0.3 0.91 2.05 1.3 2.05 1.3c0.98 0.26 1.26 0.45 2.34 0.39c-1.28 0.18-2.09-1.63-2.13-2.62c-0.08-1.48 0.12-3.05 0.26-4.53 c0.08-0.93 0.26-1.38 0.75-2.01c2.44 0.45 2.97-0.39 2.97-0.39c-1.61 0-2.68-0.12-4.47-0.75c-1.5-0.53-3.23-1.71-4.61-2.93 c-2.07-1.85-1.87-1.85-3.82-3.78c-4.14-4.1-5.81-8.25-5.81-8.25c-4.71-14.3 0.51-21.68 0.51-21.68c0.65-0.95 1.24-1.61 1.79-2.07 c5.61 5.51 13.81 4.55 13.81 4.55l-8.23-4.47l-0.37-0.35l2.58 0.65c0.87 0.41 1.58 0.97 2.52 1.26c1.75 0.51 3.58 0.51 5.38 0.61 c1.16 0.06 2.34 0.02 3.51-0.06c0.59-0.04 1.16-0.12 1.73-0.18c0.1 0 0.24-0.04 0.37-0.06l-0.1 0.02c1.5-0.22 3.01-0.22 4.39 0.39 c1.16 0.51 2.6 1.46 3.54 2.36c0.49 0.47 0.87 0.95 1.26 1.48c0.57 0.75 0.97 1.5 1.26 2.07c0.49 0.97 0.73 2.03 0.79 2.76 c0.1 1.52 0.06 2.64-0.14 4.12c-0.16 1.14-0.57 2.36-1.5 3.17s-2.15 1.32-3.37 1.26c1.24-0.04 2.26 0.53 3.49 0.1 C567.88 44.86 568.4 39.61 568.16 36.16z"/><path fill="#5B2D23" d="M568.59 13.37c-3.92-3.62-8.23-6.72-18.75-6.6c-4.39 0.04-6.5 0.91-10.79 1.83 c-7.56 1.61-10.14 5.83-14.32 10.64h0.02c-6.38 8.13-1.24 21.43-1.24 21.43c4.61 12.84 0.77 18.18-1.83 17.96 c5.89 0.75 6.56-7.35 6.64-10.18c0.08-2.66-1.32-6.97-1.48-10.81c-0.24-5.93 0.71-14 6.6-16.62c0 0 0.12-0.04 0.32-0.1 c0.41 0.51 0.95 1.22 1.32 2.01c4.31 8.59 12.39 11.42 19.81 6.52c-4.47 2.76-12.37-1.61-14.95-6.54c1.81 2.72 6.68 4.06 9.45 4.43 c3.09 0.43 6.01-0.35 8.86 0.18c6.01 1.79 8.06 6.03 8.59 9.77c0.45 3.17 0.1 6.76-2.21 9.79c0 0-1.73 2.21-4.49 2.21 c5.53 2.05 10.87-5.46 10.52-13.16l1.1 1.56l0.95 1.36c0 0 0-0.02 0-0.04l0.02 0.04c0.89-2.93 0.08-4.12 0.95-6.87 C575.64 26.04 573.85 18.26 568.59 13.37z"/><g><path fill="#3F1D16" d="M543.78 13.04c6.4 0.26 8.37 3.41 13.06 7.78c2.7 2.52 6.64 3.68 10.75 3.37c-4.12 0.3-6.72-2.9-9.41-5.42 C553.51 14.4 550.2 13.29 543.78 13.04z"/></g><path fill="#3F1D16" d="M570.39 25.56c-2.15 1.1-4.71 2.4-7.07 1.85c-2.26-0.53-4.18-3.62-6.64-3.43c2.46-0.22 4.37 1.81 6.64 2.36 C565.7 26.92 568.24 26.65 570.39 25.56z"/><path fill="#613627" d="M531.25 35.57c0 0 5.46-5.28 11.88-1.95c0 0-0.26-1.32-1.18-1.79c0 0-5.71-1.93-10.69 3.31L531.25 35.57 L531.25 35.57z"/><path fill="#613627" d="M564.26 35.61c0 0-4.77-5.06-11.17-2.09c0 0 0.14-1.34 0.98-1.77c0 0 5.51-1.75 9.99 3.37L564.26 35.61z"/><g id="kate-right-eye"><path fill="#FFFFFF" d="M534.52 39.94c-0.3-1.81 2.46-4.02 5.32-4.02c4.25 0 4.55 3.21 4.55 3.21c0 1.77-1.54 2.66-4.37 2.76 c-2.78 0.1-4.08-0.26-4.75-0.81C534.62 40.61 534.52 39.94 534.52 39.94z"/><path fill="#010101" d="M540.11 35.47c-0.97-0.02-2.01 0.16-2.9 0.43c-0.43-0.32-1.08-1.08-0.63-2.54c0 0-1.26 1.16-0.08 2.82 c-0.2 0.08-0.41 0.16-0.57 0.26c-0.04 0.02-0.08 0.06-0.14 0.08c-0.35-0.28-0.89-0.91-0.53-2.15c0 0-1.12 1.02 0 2.46 c-0.2 0.14-0.35 0.3-0.53 0.43c-0.33-0.26-0.71-0.75-0.59-1.71c0 0-0.75 1.02 0.26 2.09c-0.16 0.18-0.3 0.37-0.39 0.55 c-0.24-0.22-0.47-0.59-0.47-1.22c0 0-0.49 0.83 0.26 1.6c-0.3 0.65-0.33 1.26-0.08 1.54c0.37 0.43 0.95 0.75 1.5 0.98 c-0.59-0.49-0.71-1.16-0.71-1.16c-0.3-1.81 2.46-4.02 5.32-4.02c1.91 0 3.01 0.65 3.66 1.36c0.22 0.2 0.35 0.35 0.35 0.35 C542.56 35.33 540.11 35.47 540.11 35.47z"/><path fill="#462312" d="M539.98 41.91c1.32-0.04 2.34-0.28 3.07-0.67c0.18-0.41 0.28-0.89 0.26-1.36c-0.06-1.87-1.71-3.37-3.7-3.31 c-1.99 0.06-3.56 1.63-3.53 3.53c0.02 0.59 0.2 1.12 0.49 1.6C537.36 41.87 538.42 41.95 539.98 41.91z"/><path fill="#010101" d="M539.09 41.93c0.28 0 0.57 0 0.89-0.02c0.14 0 0.28-0.02 0.41-0.02c0.67-0.28 1.18-0.91 1.26-1.71 c0.1-1.12-0.69-2.11-1.77-2.21c-1.08-0.1-2.05 0.71-2.15 1.83C537.65 40.77 538.22 41.63 539.09 41.93z"/><circle fill="#E0E2E2" cx="538.83" cy="38.76" r="0.63"/></g><path fill="none" d="M534.52 39.94c-0.3-1.81 2.46-4.02 5.32-4.02c4.23 0 4.55 3.21 4.55 3.21c-0.12 1.85-1.54 2.66-4.37 2.76 c-2.78 0.1-4.08-0.26-4.75-0.81C534.62 40.61 534.52 39.94 534.52 39.94z"/><g id="kate-left-eye"><path fill="#FFFFFF" d="M561.78 39.55c0.18-1.81-2.72-3.84-5.55-3.66c-4.25 0.28-4.33 3.51-4.33 3.51 c0.12 1.77 1.71 2.56 4.55 2.48c2.78-0.08 4.06-0.53 4.69-1.12C561.72 40.22 561.78 39.55 561.78 39.55z"/><path fill="#010101" d="M562.59 36.53c0.04 0.63-0.14 1.02-0.37 1.24c-0.12-0.18-0.28-0.35-0.43-0.53 c0.93-1.12 0.12-2.09 0.12-2.09c0.16 0.95-0.16 1.46-0.49 1.73c-0.16-0.14-0.35-0.28-0.55-0.41c1.02-1.52-0.16-2.46-0.16-2.46 c0.45 1.2-0.04 1.87-0.37 2.17c-0.04-0.02-0.08-0.06-0.14-0.08c-0.18-0.08-0.37-0.16-0.59-0.22c1.06-1.73-0.28-2.8-0.28-2.8 c0.55 1.44-0.06 2.25-0.47 2.58c-0.91-0.22-1.95-0.33-2.91-0.26c0 0-2.44 0-3.58 2.4c0 0 0.12-0.16 0.33-0.37 c0.59-0.75 1.65-1.48 3.56-1.6c2.84-0.2 5.73 1.83 5.55 3.66c0 0-0.06 0.67-0.63 1.2c0.53-0.26 1.1-0.61 1.44-1.06 c0.24-0.32 0.18-0.91-0.18-1.54C563.12 37.32 562.59 36.53 562.59 36.53z"/><path fill="#462312" d="M556.46 41.87c1.56-0.04 2.62-0.2 3.39-0.43c0.26-0.49 0.41-1.04 0.39-1.63c-0.06-1.87-1.75-3.35-3.74-3.29 s-3.55 1.65-3.49 3.55c0.02 0.49 0.14 0.93 0.35 1.34C554.1 41.73 555.14 41.91 556.46 41.87z"/><path fill="#010101" d="M556.05 41.85c0.14 0 0.28 0 0.41 0c0.32 0 0.61-0.02 0.89-0.04c0.85-0.33 1.36-1.24 1.2-2.21 c-0.18-1.1-1.18-1.85-2.26-1.69c-1.08 0.18-1.79 1.2-1.63 2.32C554.81 41.02 555.36 41.63 556.05 41.85z"/><circle fill="#E0E2E2" cx="557.39" cy="38.64" r="0.63"/></g><path fill="none" d="M561.78 39.55c0.18-1.81-2.72-3.84-5.55-3.66c-4.23 0.28-4.33 3.51-4.33 3.51c0.26 1.83 1.71 2.56 4.55 2.48 c2.78-0.08 4.06-0.53 4.69-1.12C561.72 40.22 561.78 39.55 561.78 39.55z"/><path fill="#5B2D23" d="M533.52 20.96l0.24 0.06C533.65 20.96 533.58 20.96 533.52 20.96z"/><path fill="#3F1D16" d="M532.32 19.75l-0.16-0.12c-8.31 0.53-8.06 12.76-8.07 12.88c0-0.08 0.95-5.1 4.02-8.53 c-1.54 2.5-3.56 7.86-1.16 16.68c0 0-1.99-17 6.83-19.73l0 0C533.32 20.4 532.91 20.09 532.32 19.75z"/><g id="kate-arm-position"><g id="kate-arm-animate"><g id="kate-arm"><path fill="#DD835B" d="M511.48 61.51c-0.16 0.24-0.45 0.98-0.57 1.26c-0.41 0.89-0.41 1.42-0.87 2.6 c-0.32 0.83-0.65 2.05-0.79 2.32c-0.81 1.61-1.04 2.19-1.04 3.25c0 0.89-0.3 1.5-0.87 2.05c-0.67 0.65-1.79 0.28-2.8-0.06 c-0.22-0.08-0.43-0.14-0.63-0.2c-0.02-0.14-0.1-0.22-0.18-0.28c-0.14-0.39-0.24-0.77-0.35-1.18c-0.12-0.47-0.24-0.95-0.43-1.42 c-0.24-0.61-0.53-1.18-0.81-1.71c-0.26-0.51-0.53-1.04-0.77-1.6l-0.14-0.35h-0.02c-0.37-0.83-0.59-1.89-0.77-2.7 c-0.06-0.32-0.12-0.59-0.16-0.77c-0.22-0.81-0.26-1.44-0.28-2.23c-0.04-1.52 0-2.05 0.06-2.74c0.02-0.33 0.06-0.73 0.08-1.3 c0.02-0.69 0.28-1.52 0.65-1.71c0.33 0.02 0.49 0.16 0.65 0.3c-0.16 0.98-0.3 1.97-0.32 2.93c0 0.12 0 0.28-0.02 0.45 c-0.02 0.59 0.14 1.48 0.2 1.85l0.14-0.02c-0.06-0.33 0.02-1.26 0.04-1.81c0-0.18 0-0.33 0.02-0.45c0.02-1.1 0.22-2.25 0.39-3.37 c0.08-0.55 0.24-1.2 0.61-1.67c0.24-0.3 0.33-0.28 0.69-0.18c0.02 0 0.06 0.02 0.08 0.02c-0.14 0.26-0.22 0.55-0.3 0.85 l-0.1 0.41c-0.3 1.14-0.61 2.42-0.59 3.64c0.02 0.69 0.2 1.93 0.59 2.48c-0.3-0.65-0.16-1.87-0.12-2.54 c0.06-1.16 0.3-2.21 0.59-3.39l0.14-0.53c0.12-0.49 0.16-0.87 0.55-1.14c0.22-0.14 0.41-0.2 0.59-0.12 c0.16 0.08 0.26 0.28 0.28 0.51c-0.37 0.73-0.53 1.81-0.69 2.84c-0.06 0.37-0.1 0.71-0.16 1.02c-0.18 0.93-0.02 2.23 0.41 3.11 c-0.32-1.14-0.2-2.17-0.02-3.03c0.06-0.3 0.12-0.65 0.18-1.02c0.2-1.32 0.47-3.13 1.22-3.29c0.3-0.06 0.51-0.04 0.65 0.04 c0.16 0.1 0.28 0.33 0.35 0.73c0.1 0.55-0.2 1.08-0.39 1.71c-0.16 0.51-0.22 1.1-0.22 1.61c0 0.83 0 1.5 0.16 2.3 c0.12 0.61 0.51 1.73 1 2.17c0.32 0.28 0.69 0.39 1.12 0.33c0.73-0.12 0.83-0.65 1.06-1.06c0.1-0.18 0.2-0.35 0.3-0.55 c0.43-0.83 0.89-1.69 1.79-1.89c0.35-0.08 0.37 0.02 0.59 0.18c0.26 0.18 0.28 0.18 0.37 0.49 C512.84 59.46 512.03 60.72 511.48 61.51z"/><g><path fill="#AF6246" d="M510.51 58.59c-0.73 0.87-1.18 4.16-3.17 2.4c-0.63-0.55-0.83-1.81-0.95-2.68 c-0.14-1.06-0.12-2.11 0-3.23c0.02 0 0.06-0.02 0.08-0.06c0.08-0.26 0.18-0.49 0.26-0.71c0.04-0.2 0.1-0.41 0.14-0.55 c0-0.12 0-0.26 0-0.37c-0.08-0.39-0.18-0.61-0.35-0.73c-0.14-0.1-0.35-0.1-0.65-0.04c-0.75 0.16-1.02 1.97-1.22 3.29 c-0.06 0.37-0.1 0.73-0.18 1.02c-0.16 0.83-0.26 1.79 0 2.88c0.06 0.1 0.1 0.18 0.16 0.16c0.45-0.1 0.37-0.59 0.43-0.98 c0.16-1.1 0.3-2.23 0.47-3.31c0.06-0.43 0.14-0.89 0.51-1.12c0.37-0.22 0.41 0.02 0.39 0.32c-0.18 0.3-0.22 0.87-0.28 1.22 c-0.28 1.4-0.37 2.82-0.02 4.23c0.12 0.47 0.37 0.75 0.59 1.18c0.2 0.35 0.3 0.79 0.69 0.98c0.47 0.24 1.1 0.06 1.52-0.14 c0.51-0.26 0.71-0.79 1.06-1.24c0.35-0.47 0.53-1.02 0.73-1.56c0.14-0.39 0.51-0.98 0.97-1.06c0.33-0.04 0.85 0.14 1.02 0.35 C512.56 57.76 511.2 57.76 510.51 58.59z"/><path fill="#AF6246" d="M507.85 69.31c-0.02 0.08-0.04 0.18-0.02 0.28c0.04-0.06 0.1-0.14 0.12-0.2L507.85 69.31z"/><path fill="#AF6246" d="M501.3 56.43c0.06-0.45 0.12-0.91 0.2-1.36c-0.1-0.08-0.2-0.16-0.35-0.22c0 0 0 0-0.02 0 c-0.1-0.06-0.2-0.08-0.28-0.06h-0.02c-0.02 0-0.02 0.02-0.04 0.02c-0.08 0.04-0.16 0.12-0.22 0.22l0 0 c-0.02 0.04-0.04 0.08-0.06 0.12c-0.04 0.06-0.06 0.14-0.1 0.22v0.02l0 0c-0.04 0.12-0.08 0.26-0.12 0.39 c-0.16 0.65-0.2 1.54-0.2 2.11l0 0c-0.06 0.61-0.1 1.18-0.06 2.6c0.02 0.59 0.04 1.08 0.14 1.63c0 0.02 0.02 0.02 0.02 0.04 c0 0.06 0 0.14 0.02 0.2c0.12 0.95 0.43 2.01 0.69 2.93c0.24 0.83 0.69 1.75 1.06 2.5c0.33 0.69 0.59 1.26 0.89 1.97 c0.12 0.32 0.28 0.93 0.45 1.16c0.24 0.35 0.63 0.33 1.08 0.41c0.63 0.12 1.24 0.32 1.87 0.47c0.3 0.08 0.75 0.2 1.04 0 c0.3-0.18 0.16-0.28 0.32-0.59c0.1-0.22 0.1-0.39 0.41-0.32c0.2-0.45-0.18-0.91-0.18-1.4c-0.26 0.43-0.83 0.77-1.28 0.77 c-0.85-0.02-1.58-0.45-2.25-0.89c-0.83-0.55-1.14-1.46-1.56-2.36c-0.37-0.79-0.83-1.52-1.1-2.36c-0.26-0.77-0.28-1.38-0.3-2.03 c0-0.02 0.02-0.02 0.02-0.04l-0.02 0.02c0-0.12 0-0.26-0.02-0.39c0.04-0.47 0.1-1.16 0.16-1.95c-0.08-0.39-0.37-1.28-0.35-1.85 C501.16 58.02 501.22 57.19 501.3 56.43z"/><path fill="#AF6246" d="M504.05 57.17c-0.02 0.18-0.04 0.35-0.04 0.57c0 0.77 0.18 1.63 0.49 2.26 c-0.02-0.06-0.02-0.1-0.02-0.16C504.25 59.44 503.99 58.38 504.05 57.17z"/><path fill="#AF6246" d="M502.91 60.21c-0.12-0.18-0.22-0.43-0.32-0.71C502.71 59.91 502.83 60.19 502.91 60.21z"/><path fill="#AF6246" d="M504.07 56.88c-0.02 0.08-0.02 0.2-0.02 0.3C504.03 57.08 504.05 56.98 504.07 56.88L504.07 56.88z"/><path fill="#AF6246" d="M504.94 53.02c0-0.26-0.1-0.43-0.28-0.51s-0.3-0.02-0.53 0.12c-0.39 0.26-0.51 0.63-0.61 1.14 l-0.14 0.49c-0.3 1.18-0.65 2.48-0.61 3.64c0.02 0.67-0.16 1.67 0.14 2.32c0.18 0.02 0.26-1.4 0.47-2.74 c0.16-0.95 0.35-1.42 0.47-1.44c0.08-0.02 0.35-0.24 0.28 0.16c-0.04 0.22-0.04 0.45-0.06 0.67c0.06-0.3 0.1-0.63 0.16-1 C504.41 54.85 504.57 53.75 504.94 53.02z"/><path fill="#AF6246" d="M501.49 60.34c0-0.02 0-0.04 0-0.06v0.02V60.34z"/><path fill="#AF6246" d="M502.34 57.57c-0.02 0.47 0.08 1.28 0.28 1.91c-0.14-0.53-0.26-1.26-0.26-1.99 C502.34 57.53 502.34 57.55 502.34 57.57z"/><path fill="#AF6246" d="M503.4 52.88c-0.02 0-0.14-0.08-0.16-0.08c-0.35-0.1-0.57-0.08-0.79 0.22c-0.37 0.47-0.41 1.1-0.51 1.65 c-0.18 1.12-0.37 2.26-0.39 3.37c0 0.12 0 0.28-0.02 0.45c-0.02 0.51-0.08 1.44-0.04 1.81c0.1-1.14 0.24-2.44 0.41-3.43 c0.06-0.35 0.14-0.67 0.22-0.93c0.1-0.32 0.22-0.28 0.33-0.33s0.02 0.45-0.08 1.24c-0.02 0.22-0.02 0.45-0.02 0.67 c0.08-1.18 0.37-2.28 0.65-3.41C503.07 53.81 503.25 53.12 503.4 52.88z"/></g><path fill="#88171A" d="M505.39 101.78c2.48 0.16 4.69-0.04 6.89-1.42c1-0.61 1.71-1.54 2.68-2.21c0.02-0.02 0.06-0.04 0.08-0.06 c0.1-0.37 0.18-0.75 0.12-1.08c-0.02-0.12-0.08-0.26-0.14-0.39c-0.57-2.48-1.36-5.95-1.77-8.27c-0.51-2.93-0.32-7.5-1.18-10.16 c-1.06-3.29-0.16-4.47 0.04-7.8c-1.38-0.75-1.63 0.26-2.74 0.41c-1.79 0.26-3.45 0.16-5.28 0.2c-3.43 0.06-3.33 1.04-2.74 4.02 c0.71 3.62-0.2 5.48 0.91 8.96c1.5 4.73 0.37 8.53 1.04 13.22h0.41c-0.04 0.04-0.08 0.1-0.12 0.14l-0.26 0.39 c0.04 0.35 0.14 0.45 0.22 0.79c0.12 0.59 0.39 1.56 0.73 2.07c0.18 0.28 0.28 0.53 0.35 0.79 C504.7 101.35 505.29 101.76 505.39 101.78z"/><path fill="#690C0F" d="M506.16 103.06c0.02 0.43 0.79 0.65 0.02 0.43c-0.71-0.22-1.16-1.14-1.5-1.77 c-0.49-0.91-0.97-2.28-1.42-4.39c-0.02-0.1-0.04-0.22-0.06-0.3c-0.26-1.4-0.45-2.54-0.22-3.96c0.18-1.1-0.16-2.34-0.16-3.43 c0-0.45 0.02-1.04 0.2-1.5c-0.06-1.28-0.65-2.32-1.1-3.6c-0.59-1.73-0.51-3.43-0.51-5.18c0-1.97-0.37-3.31-0.73-5.26 c-0.39-2.26 0.69-2.09 2.52-2.88l0.3 0.47c-1.1 0.1-1.08 1.58-0.91 2.84c0.39-0.28 0.91-0.3 1.46-0.3 c0.83-0.02 1.73 0.2 2.56 0.08c0.43-0.06 1.3-0.43 1.48-0.69c-0.3 0.57-0.75 1.16-1.36 1.46c-0.65 0.32-1.32 0.2-2.03 0.28 c-0.43 0.04-1.3 0.1-1.61 0.45c-0.12 0.12-0.18 0.33-0.22 0.53c0.16 1.69-0.26 3.07-0.28 4.77c-0.02 2.13 1.5 4.14 1.24 6.24 v0.06l0 0c0 0.08-0.02 0.18-0.04 0.28c0.04 0.41 0.18 0.87 0.18 1.22c0 0.81-0.12 1.67-0.24 2.48c-0.18 1.18 0.1 2.01 0.59 3.13 c0.22 0.49 0.28 1.04 0.32 1.61l0 0c0.06 0.35 0.14 0.32 0.04 0.69c0.04 0.91 0.14 1.77 0.75 2.48c0.3 0.33 0.87 0.47 1.18 0.77 c0.37 0.35-0.41 1.63-0.43 2.07C506.16 103.06 506.14 102.51 506.16 103.06z"/><path fill="#690C0F" d="M512.42 92.57c0.57 0.35 1.32 0.69 1.61 0.02c0.22-0.49 0.16-1.04 0.14-1.58 c-0.3-1.44-0.57-2.84-0.73-3.92c-0.35-2.36 0.2-4.84-0.93-6.97c-0.71 1.46-0.06 4.31-0.22 6.03c-0.06 0.71-0.16 1.44-0.28 2.17 c-0.3 0.97-1.04 1.93-1.87 1.83c-1.46-0.14-2.3-0.87-3.47-1.48c0.06 1.97 2.93 1.77 4.18 2.42 C511.5 91.42 512.05 91.97 512.42 92.57z"/></g></g></g><path fill="#010101" d="M554.75 54.85c0 2.13-2.36 4.23-6.56 4.23c-2.03 0-5.24-1.81-5.24-3.92c0-1.56 2.64 0.73 5.75 0.35 C552.58 55.01 554.75 52.72 554.75 54.85z"/><path fill="#353635" d="M599.63 86.01c-0.63-0.55-1.81-0.33-2.88-0.24c-0.41 0.02-0.87 0.06-1.16 0.06c0.02-0.08 0.08-0.32 0.1-0.43 s0.04-0.24 0.04-0.32c0.14-0.51 0.33-1 0.53-1.44c0.06-0.14 0.12-0.33 0.18-0.55c0.1-0.37 0.24-0.85 0.43-1l-0.26-0.33 c-0.06 0.06-0.14 0.1-0.18 0.12c-0.08-0.08-0.18-0.18-0.32-0.26c-0.24-0.14-0.49-0.16-0.73-0.18c0-0.08 0-0.16-0.02-0.24l-0.39 0.14 l0 0c-0.02 0.06 0.02-0.53-0.37 0.22c-0.08 0.14-0.45 1.22-0.53 1.38c-0.1 0.22-0.32 1.04-0.41 1.28c-0.14 0.35-0.3 0.71-0.49 0.98 c-0.14 0.22-0.65 0.41-1.02 0.55c-0.12 0.04-0.26 0.1-0.35 0.14c-0.43 0.18-0.77 0.32-1.12 0.45c-0.3 0.12-0.59 0.22-0.93 0.37 c-0.14 0.06-0.28 0.12-0.41 0.18c-0.83 0.35-1.69 0.71-2.5 1.2c-0.1 0.06-0.2 0.12-0.3 0.18c-0.49 0.28-1.06 0.59-1.06 1.34 c0 0.73 0.53 0.75 0.98 0.77c0.59 0.02 1.16-0.35 1.67-0.73c0.24-0.16 0.45-0.32 0.65-0.43c0.18-0.1 0.35-0.2 0.51-0.28 c0.24-0.14 0.45-0.26 0.65-0.35c0.08-0.04 0.49-0.22 0.59-0.26c-0.26 0.2-0.67 0.51-0.87 0.67c-0.37 0.32-1.26 0.95-1.46 1.54 c-0.06 0.22-0.12 0.55 0.02 0.81c0.1 0.16 0.24 0.28 0.45 0.32s0.97 0.2 1.3 0.02c0.35-0.2 0.63-0.59 0.95-1.02 c0.2-0.3 0.41-0.59 0.65-0.85c0.12-0.12 0.26-0.28 0.39-0.45c0.12-0.14 0.51-0.53 0.65-0.67c-0.22 0.43-0.67 1.12-0.79 1.38 l-0.06 0.16c-0.18 0.37-0.35 0.81-0.37 1.24c0 0.22 0.1 0.41 0.28 0.57c0.24 0.18 0.59 0.24 0.89 0.24c0.18 0 0.35-0.02 0.47-0.06 c0.55-0.18 0.65-0.77 0.75-1.22c0-0.04 0.02-0.1 0.02-0.14c0.04-0.26 0.08-0.51 0.1-0.75c0.04-0.35 0.06-0.69 0.18-1.02 c0.04-0.1 0.06-0.2 0.08-0.28c0.1-0.3 0.14-0.45 0.37-0.67c0.18-0.18 0.35-0.3 0.49-0.33c0.49-0.16 0.98-0.18 1.46-0.18 s0.95 0.02 1.52 0.1c0.2 0.02 0.32 0.04 0.41 0.06c0.12 0.02 0.24 0.04 0.49 0.06c0.02 0 0.06 0 0.12 0.02 c0.2 0.04 0.45 0.08 0.61-0.06c0.26-0.2 0.33-0.81 0.32-0.98C600.01 86.5 599.87 86.22 599.63 86.01z"/><path fill="#353635" d="M614.8 90.65c-0.1-0.06-0.2-0.1-0.3-0.18c-0.81-0.49-1.67-0.87-2.5-1.2c-0.14-0.06-0.28-0.12-0.41-0.18 c-0.33-0.14-0.63-0.26-0.93-0.37c-0.33-0.12-0.69-0.26-1.12-0.45c-0.1-0.04-0.22-0.08-0.35-0.14c-0.37-0.14-0.87-0.33-1.02-0.55 c-0.18-0.28-0.33-0.63-0.49-0.98c-0.1-0.24-0.3-1.06-0.41-1.28c-0.08-0.14-0.45-1.22-0.53-1.38c-0.39-0.75-0.35-0.16-0.37-0.22l0 0 l-0.39-0.14c-0.02 0.08-0.04 0.16-0.02 0.24c-0.24 0-0.49 0.04-0.73 0.18c-0.14 0.08-0.24 0.18-0.32 0.26 c-0.06-0.02-0.12-0.06-0.18-0.12l-0.26 0.33c0.2 0.14 0.32 0.61 0.43 1c0.06 0.2 0.1 0.39 0.18 0.55c0.18 0.43 0.39 0.93 0.53 1.44 c0.02 0.06 0.04 0.18 0.04 0.32c0.02 0.12 0.08 0.35 0.1 0.43c-0.3 0-0.75-0.02-1.16-0.06c-1.06-0.08-2.25-0.3-2.88 0.24 c-0.24 0.22-0.37 0.51-0.41 0.87c0 0.16 0.06 0.79 0.32 0.98c0.18 0.14 0.43 0.08 0.61 0.06c0.04 0 0.08-0.02 0.12-0.02 c0.26-0.02 0.37-0.04 0.49-0.06c0.1-0.02 0.22-0.04 0.41-0.06c0.59-0.08 1.04-0.1 1.52-0.1s0.97 0.02 1.46 0.18 c0.14 0.04 0.32 0.16 0.49 0.33c0.24 0.22 0.3 0.39 0.37 0.67c0.02 0.08 0.06 0.18 0.08 0.28c0.12 0.33 0.14 0.65 0.18 1.02 c0.02 0.24 0.04 0.49 0.1 0.75c0 0.04 0.02 0.1 0.02 0.14c0.08 0.43 0.2 1.04 0.75 1.22c0.12 0.04 0.3 0.06 0.47 0.06 c0.32 0 0.65-0.06 0.89-0.24c0.2-0.14 0.3-0.33 0.28-0.57c0-0.45-0.2-0.87-0.37-1.24l-0.06-0.16c-0.12-0.28-0.57-0.95-0.79-1.38 c0.14 0.16 0.53 0.53 0.65 0.67c0.14 0.16 0.28 0.32 0.39 0.45c0.26 0.26 0.45 0.57 0.65 0.85c0.3 0.43 0.57 0.83 0.95 1.02 c0.33 0.18 1.08 0.02 1.3-0.02c0.2-0.04 0.35-0.16 0.45-0.32c0.16-0.26 0.1-0.59 0.02-0.81c-0.18-0.59-1.08-1.22-1.46-1.54 c-0.2-0.16-0.59-0.47-0.87-0.67c0.08 0.04 0.51 0.22 0.59 0.26c0.22 0.1 0.41 0.22 0.65 0.35c0.16 0.08 0.33 0.18 0.51 0.28 c0.22 0.1 0.43 0.26 0.65 0.43c0.53 0.37 1.08 0.77 1.67 0.73c0.45-0.02 0.98-0.04 0.98-0.77C615.86 91.23 615.29 90.93 614.8 90.65 z"/><g><path fill="#A91E22" d="M608 59.68c0.02 0 0.02 0.02 0.04 0.02c0.08 0.02 0.16 0.04 0.22 0.08L608 59.68z"/><path fill="#A91E22" d="M629.8 60.52c0.81-1.08 1.12-1.87 1.2-2.42c0.14-0.83-0.2-1.18-0.2-1.18c-0.97-0.87-1.81 0.69-1.81 0.69 c-0.87 1.3-1.87 2.32-2.93 3.13c1.85-2.76 2.82-5.32 2.82-5.32c0.3-0.77 0.47-1.42 0.55-1.93c0.32-1.91-0.53-2.36-0.53-2.36 c-1.32-0.65-1.81 1.34-1.81 1.34c-0.53 1.63-1.28 3.01-2.15 4.21c0.95-2.62 1.38-4.92 1.54-5.89c0.06-0.35 0.08-0.55 0.08-0.55 c0.59-4.19-1.12-4.65-1.12-4.65c-1.16-0.26-1.5 0.81-1.6 1.46c-0.06 0.32-0.06 0.55-0.06 0.55c-0.04 0.51-0.1 1-0.18 1.5 c-0.87 4.9-3.82 8.67-6.44 11.15c-0.71 0.63-2.15 1.26-2.52 1.36c-0.87 0.22-1.06 0.12-1.87 0.37c-0.33 0.1-0.59 0.16-0.83 0.32 c-0.04 0.02-0.06 0.04-0.1 0.06c-0.24-0.49-0.49-0.95-0.79-1.28c-0.39-0.47-0.71 0.24-3.03-1.36c-0.45-0.14-0.98-0.16-1.44-0.33 c-0.85-0.32-1.83-0.35-2.76-0.39c-2.95-0.12-6.48-0.89-9.12 0.73c-0.81 0.49-2.5 0.95-3.25 1.52c-0.37 0.28-0.28 0.43-0.59 0.77 c-0.45 0.45-0.75 1-1.12 1.5c-0.67 0.91-0.91 1.63-1.4 2.66c-0.47 0.98-1.14 2.17-1.32 3.25c-0.16 0.91-0.04 1.85-0.12 2.76 c-0.08 1.12-0.04 2.15 0.24 3.23c0.51 2.09 1.81 3.98 3.29 5.51c0.61 0.63 1.32 1.14 1.95 1.69c0.43 0.37 0.73 0.89 1.12 1.28 c0.57 0.59 0.81 1.04 1.65 1.3s1.61-0.63 2.5-0.71c1.32-0.12 2.42 0.3 3.68 0.18c1-0.1 1.73 0.87 2.74 1 c0.49 0.06 0.73-0.63 1.26-0.73c0.45-0.08 0.81-0.73 1.14-0.77c0.43-0.26 0.91-0.22 1.22-0.57c0.43-0.45 0.55-0.67 0.91-1.18 c0.41-0.59 1.48-0.41 1.87-1c0.49-0.73 1.95-0.81 2.19-1.65c0.28-1.08 0.87-1.77 1.4-2.74c0.35-0.63 0.79-2.97 0.95-3.68 c0.28-1.28 0.16-1.95-0.04-2.95c0.24 0.12 0.51 0.18 0.83 0.14c8.02-0.39 12.88-4.84 12.88-4.84c1.26-1.02 1.61-1.77 1.67-2.25 c0.08-0.41-0.06-0.63-0.06-0.63c-0.63-0.95-1.71 0.2-1.71 0.2c-0.98 0.89-2.03 1.54-3.07 2.01 C628.39 62.65 629.8 60.52 629.8 60.52z"/></g><g><path fill="#580E0E" d="M601.23 58.41c1.95 0 5.04 0.65 7.96 2.42l1.24-0.1c-2.32-1.46-6.2-3.29-9.2-3.19 c-3.74 0.12-7.07 1.46-9.61 3.6c0.43-0.18 0.95-0.1 1.4-0.39C595.22 59.28 598.21 58.41 601.23 58.41z"/><g><g><path fill="#2A8E43" d="M611.8 77.38c-0.33-1.46 0.73-0.41 0.83-0.89c0.06-0.3-1.32-1.34-1.38-1.63 c-0.08-0.47 0.33-0.61-0.04-0.89l0.24 0.06c-0.45-0.69-1.12-0.98-1.42-1.77c-0.26-0.69-0.98-0.85-1.34-1.56 c-0.41-0.79-0.79-1.18-1.58-1.18c-1.18 0-0.3-0.16-0.47-0.95c-0.53-0.14-1.08 0.12-1.65 0.22c-0.39 0.06-0.41 0.04-0.67-0.18 c-0.2-0.2-0.12-0.51-0.51-0.55c0 0.16-0.12 0.28-0.14 0.41c-0.45 0.04-0.75-0.53-1.26-0.41c0.02 0.26-0.06 0.55-0.3 0.65 c-0.39 0.18-0.35-0.08-0.57-0.33c-0.53-0.59-0.55-0.57-1.18-0.22c-0.32 0.16-0.22 0.24-0.57 0.14c-0.32-0.08-0.79-0.41-1.14-0.57 c-0.65-0.3-1.04-0.33-1.77-0.3c-0.04 0.57 0.83 0.59 0.89 1.28c-1.16 0.2-2.28 0.35-3.37 0.89c-0.49 0.24-1.97 0.67-1.79 1.36 c0.57 0.1 0.73 0.33 0.39 0.47c-0.98 0.39-1.18 1.22-1.4 1.54c-0.2 0.3-0.06 1.02-0.06 1.38c0 1.04-1.77 2.62-1.5 3.62 c0.18 0.69 0.49 2.54 0.77 3.25c0.43 1.18 2.01 0.91 2.36 2.09c0.2 0.3 0.51 0.53 0.83 0.71c0.02 0 0.06 0.02 0.08 0.02 c0.1 0.04 0.22 0.1 0.33 0.16c0.16 0.06 0.33 0.1 0.47 0.12c0.43 0.06 0.93 0.08 1.34 0.22c0.06 0.02 0.14 0.04 0.22 0.08 c0.65-0.02 1.34-0.1 1.99-0.12c0.32-0.2 0.65-0.37 1.06-0.32c0.49 0.06 0.95 0.2 1.4 0.35c0.06-0.02 0.14-0.02 0.2-0.04 c0.59-0.2 1.18-0.39 1.77-0.49c0.26-0.04 0.49 0 0.69 0.12c0.73-0.24 1.44-0.45 2.15-0.69c0.39-0.18 0.77-0.35 1.18-0.47 c0.06-0.02 0.1-0.02 0.16-0.02c0.43-0.18 0.2 0.89 0.63 0.65c0.75-0.41 1.83-1.99 2.62-1.6c0.16-0.61 0.2-1.14 0.47-1.73 c0.08-0.16 0.16-0.32 0.24-0.47c0-0.08 0.06-0.18 0.16-0.26c0.16-0.24 0.33-0.45 0.53-0.63l0 0 C611.65 78.54 611.86 77.66 611.8 77.38z"/><path fill="#1C437D" d="M592.48 76.1c0.39-0.53 0.97-0.73 1.2-1.32c0.22-0.51 0.85-0.63 1.16-1.16c0.35-0.59 0.67-0.89 1.36-0.89 c1.02 0 0.26-0.12 0.41-0.71c0.47-0.1 0.95 0.1 1.42 0.16c0.33 0.04 0.35 0.04 0.59-0.14c0.18-0.14 0.1-0.39 0.43-0.41 c0 0.12 0.1 0.2 0.12 0.32c0.39 0.02 0.65-0.39 1.1-0.32c-0.02 0.18 0.06 0.41 0.26 0.49c0.33 0.12 0.3-0.06 0.49-0.24 c0.45-0.45 0.47-0.41 1.02-0.18c0.26 0.12 0.18 0.18 0.49 0.1c0.28-0.06 0.83-0.2 1.1-0.3c0.57-0.22 0.75-0.37 1.38-0.33 c0.04 0.43-0.71 0.43-0.75 0.97c0.98 0.16 1.97 0.26 2.9 0.65c0.43 0.18 1.69 0.49 1.56 1.02c-0.49 0.08-0.63 0.26-0.33 0.35 c0.85 0.3 1.02 0.93 1.2 1.16c0.18 0.22 0.04 0.77 0.04 1.02c0 0.77 0.22 1.87 0 2.62c-0.16 0.53-0.67 0.85-0.91 1.38 c-0.43 1 0.43 2.25-0.1 3.25c-0.24 0.43-1.24 0.51-1.65 0.85c-0.47 0.39-0.75 0.87-1.38 1.1c-0.53 0.2-1.22 0.24-1.79 0.24 c-0.53 0-0.95-0.08-1.38-0.32c-0.65-0.33-0.79-0.12-1.46 0.02c-0.47 0.12-1.18 0.2-1.67 0.02c-0.53-0.18-0.85-0.55-1.46-0.53 c-0.32 0.02-0.49 0.18-0.75 0.26c-0.3 0.1-0.59 0.1-0.91 0.14c-0.45 0.06-0.81 0.3-1.16 0.14c-0.33-0.14-0.79-0.33-1.08-0.55 c-0.2-0.14-0.33-0.51-0.49-0.65c-0.63-0.59-1.06-1.46-1.46-2.15c-0.35-0.61-0.47-1.12 0.08-1.81c0.16-0.2-0.63-0.51-0.59-0.75 c0.06-0.24 0.65-0.79 0.71-1c0.3-1.08-0.63-0.32-0.71-0.65c-0.04-0.22 1.14-1 1.18-1.22c0.08-0.35-0.3-0.45 0.04-0.65"/><path fill="#1C437D" d="M605.91 59.42c0.33-0.06 0.73 0.2 1.02 0.28c0.26 0.06 0.49 0.14 0.63 0.14h0.26l-0.02-0.22 c-0.12-0.95-1.69-1.77-1.77-1.81c-0.67-0.33-1.34-0.39-1.89-0.39c-0.22 0-0.45 0-0.67 0.02c-0.3 0-0.59 0.02-0.91 0 c-0.37 0-0.77-0.04-1.2-0.1c-0.1-0.02-0.22-0.04-0.32-0.06c-0.14-0.02-0.3-0.06-0.43-0.08c-0.33-0.02-0.61-0.04-0.91-0.04 c-0.67 0-1.28 0.08-1.85 0.28c-1.5 0.47-2.05 1.56-2.42 2.26c-0.08 0.18-0.16 0.33-0.26 0.45l-0.26 0.37l0.45-0.04 c0.32-0.02 0.87-0.26 1.46-0.51c0.33-0.14 0.79-0.35 1.06-0.43c-0.1 0.33-0.45 0.89-0.63 1.22c-0.3 0.55-0.63 1.48-0.22 1.73 c0.24 0.1 1.77-1.52 2.15-1.67c0.12 0.22 0.02 0.85 0 1.28c-0.02 0.63 0.02 1.73 0.39 1.77c0.26 0.06 0.97-1.75 1.3-2.36 c0.06-0.1 0.32-0.47 0.35-0.51c0.06 0.14 0.26 0.91 0.35 1.06c0.06 0.1 0.12 0.28 0.2 0.45c0.28 0.69 0.47 1.12 0.81 1.12 c0.3 0 0.45-0.35 0.53-0.67c0.02-0.1 0.04-0.18 0.08-0.26c0.1-0.3 0.14-1.26 0.04-1.95c0.18 0.18 0.49 0.67 0.89 1.08 c0.75 0.75 1.24 1.24 1.6 1.24c0.14 0 0.26-0.06 0.32-0.18c0.12-0.2 0-0.45-0.35-1.24c-0.14-0.32-0.51-0.95-0.59-1.22 c0.43 0.04 1.02 0.51 1.46 0.75c0.24 0.14 0.51 0.28 0.77 0.39l0.26 0.1l0.04-0.28C607.73 60.78 606.53 59.81 605.91 59.42z"/></g><path fill="#791214" d="M599.34 53.14c0 0 0-0.02 0.02-0.02C599.34 53.12 599.28 53.2 599.34 53.14z"/></g></g><g><path fill="#A91E22" d="M618.4 41.44c-0.28-1.24-0.63-2.28-1.08-3.15c-0.16-0.3-0.3-0.61-0.43-0.97c-0.18-0.43-0.37-0.87-0.59-1.26 c-0.63-1.12-2.11-2.42-2.72-2.86c-1.14-0.83-4-0.77-3.55-1.22c0 0 0.02 0 0 0c0.33-0.3 0.57-0.37 0.98-0.37 c1.16-0.02 2.23 1 2.23 1c-0.02-2.58-2.07-3.35-2.13-3.37c-0.47-0.18-0.95-0.28-1.44-0.28c-1.16 0-1.95 0.53-1.97 0.53 c-1.54 0.89-2.72 1.06-2.54 0.77c0.47-1.02 0.47-1.81 0.47-1.85c0.1-1.02-0.3-1.95-0.37-2.11c-0.12-0.35-0.14-0.63-0.06-0.81 c0.06-0.16 0.2-0.2 0.2-0.2h0.02c0.08-0.04 0.18-0.04 0.28-0.04c1.36-0.1 1.85 1.56 1.85 1.56c0.55-2.56-1.44-3.09-2.34-3.09 c-0.06 0-0.1 0-0.12 0c-0.69 0-1.08 0.3-1.26 0.53c-0.45 0.55-0.32 1.28-0.32 1.34c0 0.08 0.14 0.63 0.26 1.12 c-0.24-0.81-0.59-1.56-0.75-1.85c-0.39-0.77-0.77-1.52-0.77-2.09c0-1.2 0.67-2.07 1.75-2.23c0.77-0.12 1.32 0.04 1.65 0.49 c0.1 0.14 0.53 0.97-0.26 1.08c-0.08 0-0.02 0 0 0c0 0 0 0.08 0 0l-0.02 0.08c0.55 0.2 1.08 0.26 1.44-0.32 c0.28-0.45 0.32-0.97 0.12-1.36c-0.59-1.16-1.93-1.36-2.68-1.38c-1.75-0.04-3.33 1.34-3.56 3.11c-0.1 0.79 0.18 1.77 0.45 2.72 c0.2 0.69 0.41 1.42 0.41 1.95c0 2.52-1.89 3.25-1.99 3.33c-0.16 0.1-0.3 0.18-0.51 0.3c-0.06 0.02-0.12 0.06-0.18 0.1 c-0.16 0.08-0.33 0.18-0.51 0.24c0.04-0.08 0.12-0.18 0.16-0.26l0.06-0.08c0.14-0.2 0.37-0.45 0.57-0.63 c0.06-0.06 0.12-0.12 0.16-0.16l1.18-1.2c-3.17 0.12-4.88 1.85-6.3 2.86c-0.83 0.59-1.14 1.16-2.19 1.44 c-3.45 0.93-5.83 3.25-5.67 8.65c0.02 0.71-0.1 1.5-0.59 2.46c-1.26 2.52-0.63 4.14-0.08 4.55l0.45 0.33l0.2-0.51 c0.28-0.69 0.65-1.38 0.91-1.67c0.08 0.41-0.02 1.14-0.1 1.81c-0.16 1.16-0.3 2.26 0.18 2.86l0.43 0.55 c0.79-0.83 0.83-1.58 0.98-1.65c0.43-0.33 0.43 0.81 0.55 1.2c0.2 0.73 0.37 1.89 0.79 2.19c0.37 0.26 1 0.26 1.65 0.95 c0.39 0.41 0.75 1.02 1.04 1.56c0.39 0.69 0.61 1.06 0.93 1.2c1.5 0.75 3.35 1.2 5.57 1.42c0 0.06 0 0.12 0 0.16 c0 0.02 0.02 0.04 0.06 0.08l0 0l0.24 0.3c0.02 0.02 0.81 0.63 2.07 0.63c0.73 0 1.48-0.2 2.21-0.61l0.18-0.24l0 0 c0.08-0.08 0.12-0.18 0.16-0.28c3.55-0.24 5.97-1.18 8.67-3.78c0.73-0.69 3.37-3.8 3.56-5.34c0.26 0.22 0.67 0.83 0.98 1.26 l0.45 0.63c0.91-1.16 0.59-2.95 0.24-4.88c-0.14-0.73-0.32-1.6-0.32-2.09c0.43 0.16 1.3 0.63 1.61 0.77 c0.49 0.24 0.55 0.26 0.67 0.26h0.32C619.5 44.94 618.58 42.23 618.4 41.44z"/><path fill="#580E0E" d="M586.06 48.67c0-0.73 0.2-1.5 0.61-2.09c0.22-0.32 0.59-0.85 0.95-0.45c0.39 0.45 0.22 2.07 0.12 2.62 c-0.12 0.67-0.08 1.18 0.06 1.85c0.32 0.04 0.51-0.81 0.89-0.97c0.14-0.06 0.45-0.16 0.59-0.08c0.18 0.1 0.43 0.65 0.55 0.85 c0.18 0.3 0.39 0.61 0.53 0.95c0.18 0.37 0.14 0.81 0.39 1.16c0.22 0.3 0.51 0.43 0.81 0.59c1.26 0.65 1.67 2.13 2.66 3.09 c0.73 0.69 1.77 0.97 2.66 1.42c1.3 0.67 2.7 0.63 4.1 0.85c0.37 0.06 0.71 0.22 1.12 0.24c0.59 0.02 1.18 0 1.75 0 c-0.67 0.24-1.42 0.16-2.13 0.16c-1.04 0-2.03-0.06-3.05-0.2c-0.91-0.12-1.87-0.08-2.74-0.39c-1.12-0.41-2.26-0.57-3.01-1.58 c-0.39-0.53-0.53-1.22-0.93-1.73c-0.71-0.91-1.97-0.95-2.4-2.13c-0.24-0.63-0.1-2.23-0.95-2.48c-0.24 0.43-0.24 1.85-1.06 1.56 c-1.1-0.37-0.75-2.05-0.61-2.84c0.02-0.2 0.43-2.3 0.14-2.34c-0.08 0-0.79 1.89-0.93 2.17"/></g><g id="mack-eyes"><path fill="#FFFFFF" d="M607.19 36.12c-2.36-0.33-4.1 0.63-4.84 2.17c-0.77-1.54-2.48-2.5-4.84-2.17 c-2.93 0.41-4.98 2.52-4.98 5.44c0 2.5 2.46 4.37 5.4 3.92c2.54-0.39 3.82-1.2 4.43-2.52c0.59 1.3 1.89 2.13 4.43 2.52 c2.93 0.45 5.4-1.4 5.4-3.92C612.18 38.64 610.13 36.51 607.19 36.12z"/><ellipse fill="#010101" cx="598.19" cy="42.05" rx="1.83" ry="2.01"/><ellipse fill="#FFFFFF" cx="597.31" cy="41.1" rx="0.69" ry="0.75"/><path fill="#010101" d="M598.19 45.77c-1.89 0-3.47-1.85-3.54-3.9c-0.08-2.01 1.36-3.66 3.54-3.66c1.89 0 3.43 1.79 3.43 3.84 C601.62 44.1 600.08 45.77 598.19 45.77z M598.19 38.98c-1.54 0-2.93 1.44-2.93 3.13s1.3 3.21 2.93 3.01 c1.52-0.18 2.97-1.32 2.97-3.01S599.73 38.98 598.19 38.98z"/><ellipse fill="#010101" cx="606.7" cy="42.05" rx="1.83" ry="2.01"/><ellipse fill="#FFFFFF" cx="605.82" cy="41.1" rx="0.69" ry="0.75"/><path fill="#010101" d="M606.7 45.77c-1.89 0-3.45-1.85-3.55-3.9c-0.08-2.01 1.36-3.66 3.55-3.66c1.89 0 3.43 1.79 3.43 3.84 C610.13 44.1 608.59 45.77 606.7 45.77z M606.7 38.98c-1.54 0-2.93 1.44-2.93 3.13s1.3 3.21 2.93 3.01 c1.52-0.18 2.97-1.32 2.97-3.01C609.7 40.41 608.24 38.98 606.7 38.98z"/></g><path fill="#580E0E" d="M590.24 39.59c0-0.63-0.73-1.77-0.1-2.36c0.04 0.06 0.06 0.14 0.1 0.2c0.41-0.45 0.06-1.65 1.06-1.75 c0.04 0.04 0.04 0.1 0.06 0.16c0.53 0 0.91-1.52 1.61-1.83c0.32-0.14 0.45 0.04 0.89-0.26c0.39-0.26 0.65-0.47 1.16-0.59 c0.57 0.33 1.26-0.65 1.81-0.73c0.65-0.14 2.3 0.14 2.91 0.57c-0.35 0.24-1.22-0.06-1.52 0.26c0.37 0.06 0.85 0.16 1.02 0.43 c-0.65 0.06-1.4-0.12-2.05 0c-0.55 0.12-0.77 0.51-1.24 0.63c-0.57 0.16-0.89-0.06-1.38 0.33c-0.43 0.35-0.51 0.59-1.08 0.75 c-0.59 0.18-1 0.57-1.32 1.1c-0.35 0.57-0.53 0.95-0.95 1.54c-0.24 0.35-0.35 0.49-0.51 0.93c-0.14 0.37-0.12 0.63-0.51 0.77"/><path fill="#580E0E" d="M613.83 39.59c0-0.63 0.73-1.77 0.1-2.36c-0.04 0.06-0.06 0.14-0.1 0.2c-0.41-0.45-0.06-1.65-1.06-1.75 c-0.04 0.04-0.04 0.1-0.06 0.16c-0.53 0-0.91-1.52-1.61-1.83c-0.32-0.14-0.45 0.04-0.89-0.26c-0.39-0.26-0.65-0.47-1.16-0.59 c-0.57 0.33-1.26-0.65-1.81-0.73c-0.65-0.14-2.3 0.14-2.91 0.57c0.35 0.24 1.22-0.06 1.52 0.26c-0.37 0.06-0.85 0.16-1.02 0.43 c0.65 0.06 1.4-0.12 2.05 0c0.55 0.12 0.77 0.51 1.24 0.63c0.57 0.16 0.89-0.06 1.38 0.33c0.43 0.35 0.51 0.59 1.08 0.75 c0.59 0.18 1 0.57 1.32 1.1c0.35 0.57 0.53 0.95 0.95 1.54c0.24 0.35 0.35 0.49 0.51 0.93c0.14 0.37 0.12 0.63 0.51 0.77"/><g><g><path fill="#353635" d="M596.95 52.47c0.02 0.39 0.16 0.93 0.26 1.32c0.06 0.28 0.32 1.16 0.57 1.3c0 0 1.16-0.49 1.81-1.1 c0.3-0.28 0.63-0.47 0.79-0.81l0.08 0.16c0 0 0 0 0-0.02c0.02-0.26-0.16-0.51-0.22-0.75c-0.08-0.43-0.37-0.73-0.61-1.1 c-0.3-0.45-0.51-0.91-0.75-1.38c-0.28-0.55-0.65-1.04-0.93-1.58c-0.12-0.26-0.04-0.53-0.14-0.79c-0.08-0.22-0.26-0.41-0.35-0.61 c-0.04-0.08-0.08-0.16-0.12-0.26c0 0.59-0.26 1.32-0.32 1.73C596.89 49.81 596.85 51.13 596.95 52.47z"/><path fill="#353635" d="M597.15 46.91c0 0.02-0.02 0.06-0.02 0.08c0 0 0 0 0 0.02L597.15 46.91z"/></g><path fill="#010101" d="M600.44 52.39c-0.12-0.39-0.53-0.73-0.71-1.1c-0.18-0.33-0.3-0.67-0.41-1.02c-0.3-0.81-0.81-1.52-1.06-2.34 c-0.14-0.51-0.2-0.95-0.73-1.12l-0.14-0.16c0.14 0.43 0.32 0.95 0.32 0.95s-0.04 0.47-0.14 0.69l0 0 c-0.24 1.58-0.33 4.21 0.43 5.99c0.45-0.2 1.5-0.55 1.89-1.38l0.18-0.32l0.33 0.61c0.02-0.06 0.06-0.12 0.06-0.2 C600.48 52.82 600.48 52.51 600.44 52.39z"/></g><g><g><path fill="#454545" d="M598.43 45.16c0 0-0.93 3.35 4.18 10.99c4.73-6.58 2.95-12.57 2.95-12.57l-0.02-0.1 C603.59 42.91 600.77 42.74 598.43 45.16z"/><path fill="#353635" d="M605.4 42.82l0.43 0.2C605.7 42.93 605.56 42.88 605.4 42.82z"/></g><g><path fill="none" d="M602.63 56.15c4.73-6.58 2.95-12.57 2.95-12.57l-0.02-0.1l-0.08-0.41c-0.77-0.28-1.69-0.49-2.78-0.49 c-1.97 0-3.74 0.79-5.69 2.23c0 0.89 0.16 5.93 5.61 11.4C602.61 56.17 602.61 56.15 602.63 56.15z"/><path fill="#636464" d="M605.56 43.58c0 0 1.77 5.99-2.95 12.57c0 0.02-0.02 0.02-0.02 0.04c0.06 0.06 0.12 0.12 0.2 0.2 c0.95-0.63 5.59-3.74 5.12-11.9c-0.26-0.22-1.1-0.95-2.44-1.42l0.08 0.41L605.56 43.58z"/><g><path fill="none" d="M605.44 43.05L605.44 43.05l0.08 0.41c-1.95-0.57-4.77-0.73-7.11 1.69c0 0-0.93 3.35 4.18 10.99 c0 0.02-0.02 0.02-0.02 0.04c0.06 0.06 0.12 0.12 0.2 0.2c0.95-0.63 5.59-3.74 5.12-11.9C607.63 44.25 606.8 43.55 605.44 43.05z "/><path fill="#353635" d="M598.43 45.16c2.34-2.4 5.16-2.25 7.11-1.69l-0.08-0.41c-0.77-0.28-1.69-0.49-2.78-0.49 c-1.97 0-3.74 0.79-5.69 2.23c0 0.89 0.16 5.93 5.61 11.4l0 0c0-0.02 0.02-0.02 0.02-0.04C597.5 48.51 598.43 45.16 598.43 45.16 z"/></g></g><ellipse transform="matrix(0.1982 -0.9802 0.9802 0.1982 437.9166 625.3976)" fill="#010101" cx="601.21" cy="45.03" rx="0.81" ry="0.37"/><ellipse transform="matrix(-0.1674 -0.9859 0.9859 -0.1674 660.7385 648.0085)" fill="#010101" cx="604" cy="45" rx="0.81" ry="0.37"/></g><g><g><path fill="#A91E22" d="M592.68 60.48h0.08C592.74 60.46 592.72 60.46 592.68 60.48z"/><path fill="#A91E22" d="M596.68 79.59c-0.12-0.16-0.28-0.28-0.39-0.45c-0.16-0.26-0.22-0.57-0.39-0.83 c-0.35-0.59-0.95-1.1-1.42-1.6c-0.41-0.41-0.67-0.87-0.91-1.4c-0.2-0.47-0.49-0.83-0.79-1.22c-0.55-0.73-1.26-1.4-1.34-2.36 c-0.06-0.79 0.18-1.73 0.35-2.48c0.2 0 0.59-0.59 0.85-0.73c0.28-0.16 0.55-0.26 0.83-0.45c0.43-0.3 1.12-0.49 1.52-0.79 c0.47-0.35 1.18-1.32 1.16-1.89c-0.02-0.33-0.32-1.14-0.59-1.48c-0.32-0.37-1.46-1.63-3.68-2.38c0 0 0-0.49-0.26-0.41 c0.41 0 0.37-0.08 0.41-0.08c0.45 0.06-0.73 0.14-0.73 0.14c0.06 0.26 0 0 0 0c-0.65 0.16-1.12 0.45-1.71 0.81 c-0.16 0.1-0.3 0.2-0.45 0.3c0.45-0.26 1.06-0.57 1.56-0.83c-0.87 0.73-2.17 1.75-2.15 1.32c-0.2 0.18-0.39 0.37-0.59 0.57 c-1.06 1.1-2.26 2.23-2.82 3.7c-0.16 0.43-0.2 0.75-0.47 1.14c-0.22 0.32-0.3 0.47-0.39 0.85c-0.1 0.39-0.04 0.77-0.1 1.18 c-0.04 0.35-0.26 0.73-0.37 1.06c-0.22 0.65-0.43 1.26-0.43 1.95c0 0.71 0.08 1.36 0.14 2.05c0.02 0.39 0.16 0.73 0.18 1.14 c0 0.3 0 0.47 0.1 0.75c0.26 0.65 0.57 1.2 0.89 1.83c0.41 0.85 0.93 1.56 1.5 2.3c0.3 0.39 0.55 0.67 0.95 0.95 c0.37 0.26 0.55 0.55 0.91 0.75c0.75 0.45 1.67 1.02 2.58 1c0.26 0 0.51-0.08 0.71-0.22c0.14-0.1 0.16-0.3 0.37-0.32 c0.3-0.04 0.67 0.3 0.97 0.35c0.55 0.1 1.28-0.37 1.58-0.81c0.3-0.45 0.24-0.61 0.81-0.61c0.3 0 0.63 0.04 0.93-0.08 c0.67-0.3 0.93-1.04 0.93-1.73C596.89 80.18 596.89 79.9 596.68 79.59z"/><path fill="#A91E22" d="M588.52 62.77L588.52 62.77c0.2-0.18 0.39-0.33 0.59-0.49C588.78 62.47 588.54 62.63 588.52 62.77z"/></g><path fill="#580E0E" d="M596.3 78.56c-2.23-2.8-3.56-5.18-3.58-5.22c-0.83-1.44-1.08-2.62-0.73-3.53c0.35-0.93 1.24-1.22 1.26-1.22 l0.04-0.02c2.95-1.1 3.15-2.01 3.15-3.13c0-1.77-1.75-2.48-1.79-2.54c0 0 1.38 1.12 1.08 2.68c-0.16 0.77-1.18 1.77-2.72 2.13 c-0.18 0.06-1.63 0.37-2.01 1.71c-0.32 1.12-0.18 2.8 1.1 4.65c0 0.02 1.44 2.05 3.7 4.88l0.02 0.02c0 0 0.77 0.79 0.75 1.61 c0 0.37-0.04 0.83-0.35 1.12c0 0-0.35 0.41-0.91 0.43c-0.63 0.02-1.46-0.59-2.26-1.34c-0.04-0.04-4.1-3.66-5.04-9.37 c0.3 6.32 4.45 9.71 4.61 9.85c0.51 0.49 1 0.85 1.5 1.06c-0.08 0.28-0.33 0.89-0.85 1.08c-0.65 0.24-1.58-0.16-2.74-1 c-0.04-0.02-4.65-3.88-4.49-8.61c-0.65 5.67 3.94 8.92 4.14 9.04c0.32 0.24 0.61 0.41 0.91 0.59c-0.37 0.28-1 0.47-2.01-0.06 c-3.72-1.89-5.69-6.93-5.02-11.5c1.02-6.91 5.69-10.34 11.01-11.34l0 0c-5.48-0.08-10.85 3.68-11.97 10.67 c-0.77 4.83 1.3 10.52 5.59 12.6c0.63 0.32 1.36 0.37 1.83 0.37s0.87-0.14 1.2-0.45c0.41 0.16 0.77 0.24 1.12 0.24 c0.26 0 0.49-0.04 0.71-0.12c0.75-0.3 1.08-0.98 1.18-1.32c0.16 0.02 0.32 0.06 0.47 0.06c0.04 0 0.06 0 0.1 0 c0.75-0.04 1.18-0.45 1.24-0.55c0.43-0.41 0.55-0.83 0.59-1.38C597.25 79.84 596.42 78.68 596.3 78.56z"/></g><path fill="#580E0E" d="M630.08 60.8c0.73-0.97 1.16-1.83 1.26-2.58c0.18-0.98-0.26-1.42-0.3-1.48c-0.22-0.2-0.43-0.32-0.67-0.35 c-0.93-0.16-1.6 0.93-1.69 1.1c-0.32 0.47-0.89 1.5-1.87 2.44c1.5-2.09 2.36-4.23 2.38-4.31c0.3-0.73 0.49-1.42 0.57-2.01 c0.35-2.09-0.59-2.66-0.71-2.74c-0.16-0.08-0.32-0.14-0.47-0.16c-1.08-0.18-1.67 0.98-1.83 1.71c-0.16 0.51-0.32 1.36-0.98 2.6 c0.49-1.48 0.97-3.56 1.04-4.12c0.06-0.35 0.08-0.55 0.08-0.55c0.61-4.37-1.16-4.96-1.36-5.02c-0.06 0-0.1-0.02-0.14-0.02 c-0.43-0.06-0.81 0-1.12 0.24c-0.51 0.37-0.71 1.04-0.77 1.54c-0.04 0.3-0.06 0.53-0.06 0.59c-0.04 0.47-0.1 0.97-0.18 1.44 c-0.87 4.92-3.92 8.67-6.34 10.95c-0.67 0.59-2.05 1.18-2.36 1.26c-0.37 0.1-0.69 0.2-0.93 0.22c-0.3 0.04-0.67 0.06-1.14 0.2 c0 0 0 0-0.02 0c-0.43 0.12-0.85 0.24-1.18 0.79c-0.22 0.35-0.28 0.91-0.24 1.52c0.24-0.39 0.59-1.56 1.5-1.75 c0.41-0.12 0.95-0.08 1.22-0.12c0.24-0.02 0.53-0.06 0.95-0.18c0.45-0.12 1.87-0.47 2.62-1.14c2.5-2.36 5.69-6.52 6.6-11.64 c0.08-0.51 0.16-1.02 0.2-1.52v-0.02c0 0 0-0.22 0.04-0.49c0.08-0.53 0.26-0.91 0.51-1.08c0.16-0.12 0.37-0.16 0.65-0.1 c0.1 0.04 1.36 0.61 0.85 4.25c0 0-0.02 0.2-0.08 0.53c-0.14 0.89-0.59 3.21-1.52 5.83l-0.85 2.32l1.46-2.01 c0.95-1.32 1.69-2.78 2.21-4.31V52.6c0 0 0.33-1.3 1.06-1.18c0.08 0 0.16 0.04 0.24 0.08c0.06 0.04 0.61 0.49 0.35 2.01 c-0.08 0.55-0.26 1.18-0.53 1.87c0 0.02-0.98 2.54-2.78 5.24l-1.18 1.77l1.69-1.3c1.18-0.91 2.19-1.99 3.01-3.21l0.02-0.02 c0.12-0.22 0.57-0.83 0.98-0.77c0.1 0.02 0.2 0.06 0.3 0.16c0.02 0.04 0.2 0.3 0.1 0.87c-0.1 0.63-0.49 1.42-1.14 2.28v0.02 c0 0.02-1.42 2.13-4.25 4.35l-2.23 1.75l2.58-1.16c1.16-0.51 2.23-1.2 3.17-2.07v-0.08c0.12-0.14 0.57-0.51 0.87-0.45 c0.04 0 0.14 0.02 0.28 0.2c0 0.02 0.06 0.16 0 0.37l0 0l0 0c-0.04 0.33-0.3 1.02-1.54 2.03h-0.02c-0.04 0.04-5.18 4.37-12.7 4.31 c-0.24-1.85-0.93-3.74-2.07-5.14l-0.08-0.08c-0.08-0.1-0.18-0.2-0.28-0.32c0.95 1.65 1.6 4.1 1.6 6.3c0 0-0.1 0.22 0.2 0.37 c7.94-0.39 13.51-4.65 13.81-4.92c1.08-0.87 1.69-1.71 1.79-2.46c0.1-0.51-0.06-0.81-0.1-0.87c-0.26-0.37-0.55-0.49-0.75-0.53 c-0.33-0.06-0.89 0.24-2.66 1.75C628.46 62.67 630.02 60.88 630.08 60.8z"/><g id="mack-arrow"><g><path fill="none" stroke="#A81F23" d="M628.6-2.37c2.94 10.22-7.75 25.54-9.36 27.15"/></g><path fill="none" stroke="#A81F23" d="M623.44 25.03c-0.59-0.02-1.24 0.02-1.83 0.05c-0.65-0.03-1.28 0.05-1.89 0.23 c-0.15 0.14-0.32 0.22-0.52 0.22c-0.15-0.16-0.17-0.35-0.06-0.57c0.07-0.58 0.04-1.16-0.09-1.74c-0.13-0.87-0.27-2.57-1.07-3.18"/></g><g id="kate-arrow"><g><path fill="none" stroke="#A81F23" d="M492.73 1.76c2.17 10.41 18.77 18.97 20.95 19.64"/></g><path fill="none" stroke="#A81F23" d="M510.08 23.58c0.51-0.3 1.11-0.56 1.63-0.81c0.56-0.33 1.15-0.55 1.78-0.68 c0.2 0.06 0.38 0.04 0.56-0.04c0.06-0.21-0.01-0.39-0.21-0.53c-0.33-0.49-0.58-1.01-0.73-1.58c-0.29-0.83-0.96-2.4-0.54-3.31"/></g><g><path fill="#A91E22" d="M483.09-9.03c0.27 0 0.41 0.08 0.41 0.24v0.3c0 0.11-0.07 0.58-0.21 1.41l-0.02 0.34 c0.82-0.34 1.67-0.81 2.55-1.39l0.64-0.49c0.5 0.05 0.75 0.17 0.75 0.36v0.09c0 0.23-0.42 0.57-1.27 1.02 c-0.38 0.25-1.09 0.66-2.12 1.23c-0.05 0-0.23 0.08-0.55 0.23l-0.03 0.24c0 0.26 0.2 0.48 0.59 0.66c1.03 0.81 1.82 1.36 2.38 1.67 c0.57 0.35 0.99 0.53 1.25 0.53c0.51 0.01 0.76 0.06 0.76 0.14c0.1 0.06 0.14 0.19 0.14 0.38c-0.3 0.14-0.59 0.21-0.87 0.21h-0.14 c-0.73 0-1.73-0.47-3-1.42c-0.54-0.34-0.84-0.52-0.89-0.52l-0.02 0.08v0.07c0 0.16 0.06 0.73 0.18 1.72v0.36 c-0.1 0.13-0.24 0.2-0.42 0.2h-0.09c-0.24-0.03-0.36-0.09-0.38-0.18l-0.28-2.06c-0.02-0.66-0.09-1.02-0.21-1.08 c-0.05-0.08-0.28-0.25-0.67-0.53c-0.12-0.13-0.18-0.27-0.18-0.43v-0.12c0-0.1 0.24-0.24 0.72-0.43l0.27-0.18l-0.02-0.32v-0.35 c0-0.55 0.1-1.19 0.3-1.91c0.08-0.05 0.18-0.08 0.28-0.08H483.09z"/><path fill="#A91E22" d="M491.05-6.12c0.2 0 0.34 0.17 0.41 0.52c0 0.18 0.11 0.76 0.33 1.75c0.15 0.55 0.38 1.01 0.67 1.39 c0.17 0.26 0.26 0.47 0.26 0.61v0.1c0 0.12-0.08 0.18-0.23 0.18c-0.15 0.1-0.25 0.14-0.3 0.14c-0.29-0.11-0.55-0.34-0.78-0.69 c-0.12-0.22-0.33-0.71-0.64-1.47l-0.1-0.12c-0.38 0.58-0.71 1.03-0.98 1.35c-0.34 0.36-0.73 0.54-1.18 0.54 c-0.42 0-0.7-0.22-0.82-0.66l-0.02-0.26c0-0.59 0.38-1.32 1.14-2.19c0.47-0.39 1.02-0.71 1.64-0.98c0.17-0.14 0.34-0.2 0.51-0.2 H491.05z M488.81-2.89h0.02c0.25 0 0.5-0.22 0.76-0.66c0.47-0.58 0.71-1.03 0.71-1.36l-0.02-0.02h-0.04 c-0.18 0.06-0.52 0.33-1 0.83c-0.3 0.38-0.45 0.77-0.45 1.18L488.81-2.89z"/><path fill="#A91E22" d="M494.23-9.1c0.24 0 0.41 0.12 0.51 0.36c-0.21 1.28-0.31 2.3-0.31 3.04v0.67l0.21 0.02 c0.46 0 0.98-0.07 1.54-0.21l0.27-0.02c0.24 0 0.36 0.11 0.36 0.34c0 0.34-0.23 0.54-0.69 0.61c-0.2 0.05-0.73 0.11-1.57 0.18 c0 0.02-0.04 0.03-0.11 0.03l0.1 1.03c0 0.14-0.03 0.27-0.1 0.38c0.08 0.09 0.11 0.22 0.11 0.38v0.16c0 0.36-0.04 0.55-0.11 0.58 l-0.41-0.03c-0.05 0-0.1 0.04-0.17 0.11c-0.28-0.12-0.42-0.58-0.42-1.36c0-0.71-0.04-1.06-0.11-1.06c-0.1-0.1-0.43-0.15-1-0.15 c-0.25 0-0.44-0.14-0.54-0.41v-0.05c0.13-0.28 0.42-0.42 0.87-0.42c0.24 0.01 0.36 0.02 0.36 0.05c0.08 0 0.14-0.07 0.18-0.2 l0.05-0.03h0.14l-0.02-0.21c0-0.91 0.09-2.08 0.28-3.51c0.14-0.17 0.32-0.26 0.54-0.26H494.23z"/><path fill="#A91E22" d="M499.17-4.96c0.06 0.22 0.09 0.4 0.09 0.52c0 0.52-0.41 0.94-1.21 1.26v0.02c0.22 0.36 0.5 0.54 0.84 0.54 c0.47 0 0.98-0.38 1.51-1.13c0.33-0.37 0.58-0.55 0.75-0.55h0.03l0.03 0.04v0.16l-0.02 0.06c0 0.03 0.03 0.04 0.06 0.05 c0.07 0 0.12-0.06 0.14-0.17h0.03v0.02c0 0.18-0.15 0.47-0.46 0.88c-0.05 0.09-0.09 0.2-0.11 0.31c-0.14 0.03-0.21 0.09-0.21 0.18 c-0.29 0.48-0.73 0.82-1.3 1.02c-0.19 0.04-0.34 0.06-0.46 0.06h-0.16c-0.77 0-1.52-0.55-2.27-1.66l-0.08-1.27v-0.12 c0-0.52 0.17-0.84 0.5-0.97c0.36-0.2 0.68-0.3 0.95-0.3C498.39-6.03 498.83-5.67 499.17-4.96z M497.63-3.84 c0.12 0 0.3-0.09 0.55-0.28c0.04-0.13 0.06-0.23 0.06-0.31c0-0.31-0.14-0.53-0.42-0.66l-0.12-0.02c-0.16 0-0.24 0.05-0.24 0.15 c-0.06 0.1-0.09 0.26-0.09 0.45C497.36-4.18 497.45-3.96 497.63-3.84z"/></g><g><path fill="#A91E22" d="M621.12-13.26c0.19 0.21 0.38 0.61 0.55 1.2c0.16 0.68 0.49 1.69 0.98 3.02c0.61 1.91 1.2 3.25 1.77 4.02 c0.07 0.1 0.1 0.19 0.11 0.28v0.05c-0.07 0.27-0.2 0.4-0.41 0.4l-0.14 0.02c-0.44 0-0.83-0.47-1.19-1.41 c-0.34-0.72-0.89-2.15-1.65-4.3l-0.23-0.57h-0.02c-0.15 0.61-0.34 1.66-0.56 3.14c-0.32 1.39-0.48 2.31-0.48 2.74 c-0.12 0.03-0.18 0.1-0.18 0.21c0 0.04-0.17 0.09-0.51 0.15h-0.16c-0.12 0-0.2-0.07-0.23-0.2c-0.1-0.21-0.18-0.67-0.26-1.38 l-0.46-2.59c-0.17-0.7-0.36-1.26-0.57-1.67l-0.07-0.11h-0.02c-0.18 0.48-0.39 1.46-0.62 2.95c-0.12 0.66-0.24 1.06-0.38 1.2 c-0.12 0.11-0.26 0.17-0.42 0.17h-0.11c-0.2 0-0.3-0.06-0.3-0.18c-0.05-0.19-0.07-0.37-0.07-0.54l0.03-0.93 c0-0.11-0.05-0.39-0.14-0.86v-0.11c0-0.29 0.17-0.43 0.5-0.43L615.94-9c0.12-0.24 0.31-0.89 0.57-1.95 c0.25-0.76 0.57-1.14 0.97-1.14c0.49 0 0.91 0.67 1.26 2c0.13 0.41 0.3 1.14 0.51 2.2h0.02c0.19-0.46 0.36-1.12 0.5-2 c0.24-1.68 0.47-2.79 0.69-3.34l0.39-0.04H621.12z"/><path fill="#A91E22" d="M627.19-9.76c0.2 0 0.34 0.17 0.41 0.52c0 0.18 0.11 0.76 0.33 1.75c0.15 0.55 0.38 1.01 0.67 1.39 c0.17 0.26 0.26 0.47 0.26 0.61v0.1c0 0.12-0.08 0.18-0.23 0.18c-0.15 0.1-0.25 0.14-0.3 0.14c-0.29-0.11-0.55-0.34-0.78-0.69 c-0.12-0.22-0.33-0.71-0.64-1.47l-0.1-0.12c-0.38 0.58-0.71 1.03-0.98 1.35c-0.34 0.36-0.73 0.54-1.18 0.54 c-0.42 0-0.7-0.22-0.82-0.66l-0.02-0.26c0-0.59 0.38-1.32 1.14-2.19c0.47-0.39 1.02-0.71 1.64-0.98c0.17-0.14 0.34-0.2 0.51-0.2 H627.19z M624.94-6.52h0.02c0.25 0 0.5-0.22 0.76-0.66c0.47-0.58 0.71-1.03 0.71-1.36l-0.02-0.02h-0.04 c-0.18 0.06-0.52 0.33-1 0.83c-0.3 0.38-0.45 0.77-0.45 1.18L624.94-6.52z"/><path fill="#A91E22" d="M630.47-9.2c0.21 0 0.41 0.06 0.59 0.18c-0.02 0.04-0.03 0.09-0.03 0.17l0.08 0.2v0.1 c-0.09 0.19-0.29 0.33-0.59 0.42c-0.3 0.09-0.5 0.22-0.59 0.38c-0.11 0.25-0.17 0.45-0.17 0.59v0.1c0 0.3 0.18 0.48 0.53 0.54h0.22 c0.35 0 0.95-0.19 1.81-0.58c0.37-0.15 0.61-0.23 0.72-0.23h0.03c0.18 0.18 0.28 0.31 0.28 0.4c-0.01 0.06-0.17 0.23-0.47 0.52 c-0.07 0.15-0.14 0.22-0.23 0.22c-0.97 0.58-1.79 0.86-2.46 0.86c-0.73 0-1.22-0.35-1.47-1.05l-0.03-0.36v-0.16 c0-0.8 0.33-1.49 0.98-2.05c0.26-0.16 0.51-0.25 0.75-0.25H630.47z"/><path fill="#A91E22" d="M634.31-13.5c0.22 0.03 0.33 0.07 0.33 0.14c0.05 0.39 0.08 0.86 0.08 1.43v0.16c0 0.75-0.04 1.48-0.12 2.2 l1.8-0.58l0.48-0.06c0.25 0 0.43 0.06 0.55 0.18c-0.03 0.11-0.05 0.24-0.05 0.4l0.02 0.02c-0.23 0.2-0.63 0.38-1.18 0.54 c-0.47 0.11-0.87 0.23-1.21 0.38c-0.11 0.05-0.24 0.13-0.39 0.25v0.03c0.09 0.18 0.37 0.34 0.85 0.5c0.35 0.11 0.61 0.24 0.77 0.39 h0.13c0.05 0 0.2 0.07 0.43 0.21c0.93 0.41 1.44 0.69 1.51 0.85v0.02c-0.03 0-0.06 0.11-0.08 0.34c-0.04 0.09-0.16 0.14-0.34 0.14 l-0.21 0.08c-1.14-0.53-1.93-0.88-2.36-1.07c-0.26-0.1-0.48-0.16-0.66-0.2c-0.07 0.13-0.1 0.3-0.1 0.5l0.05 1.1 c0 0.22-0.05 0.37-0.15 0.45c-0.03 0.02-0.06 0.12-0.08 0.28l-0.25 0.1l-0.07 0.02c-0.2-0.05-0.32-0.1-0.38-0.14 c-0.1-0.21-0.15-0.53-0.15-0.95l0.02-1.46l-0.02-0.39l-0.48-0.33l0.02-0.2L633-8.42c0-0.14 0.2-0.33 0.59-0.58 c0.07 0 0.11-1.22 0.14-3.66c0.03-0.45 0.06-0.67 0.1-0.67c0.15-0.11 0.29-0.16 0.41-0.16H634.31z"/></g></svg>
